<?xml version="1.0" encoding="utf-8"?>
<!-- Generator: Adobe Illustrator 23.0.3, SVG Export Plug-In . SVG Version: 6.00 Build 0)  -->
<svg version="1.1" id="Ebene_1" xmlns="http://www.w3.org/2000/svg" xmlns:xlink="http://www.w3.org/1999/xlink" x="0px" y="0px"
	 viewBox="0 0 162.6 311.53" style="enable-background:new 0 0 162.6 311.53;" xml:space="preserve">
<style type="text/css">
	.st0{fill-rule:evenodd;clip-rule:evenodd;fill:#FDEFEF;}
	.st1{fill:none;stroke:#956968;stroke-width:1.8;}
	.st2{fill-rule:evenodd;clip-rule:evenodd;fill:#956968;}
	.st3{fill-rule:evenodd;clip-rule:evenodd;fill:#765756;}
</style>
<g>
	<path id="Fill-15" class="st0" d="M103.6,33.46c1.05-6.58,47.24-4.02,52.62-24.05c2.98-11.1-9.16-10.2-27.03-8.11
		c-6.53,0.76-6.87,3.72-1.49,4.8c4.89,0.98,11.83,1.6,10.47,4.93c-1.89,4.62-67.68,10.51-67.3,29.14s25.75,9.9,26.05,15.01
		c0.3,5.11-21.99,7.03-21.82,22.37c0.01,0.51,0.01,1,0.02,1.47l5.58-0.02c0.12-0.48,0.24-0.96,0.36-1.47
		c3.33-13.9,49.73-2.15,54.16-29.93C139.2,22.63,102.56,40.04,103.6,33.46"/>
	<path id="Stroke-43" class="st1" d="M80.72,201.83c15.75-1.35,48.6-3.6,65.25-3.6c12.97,0,11.95,7.45,1,10.03
		c-14.25,3.35-52.3,9.32-66.25,9.32C66.77,217.58,64.97,203.18,80.72,201.83z"/>
	<path id="Stroke-45" class="st1" d="M40.36,124.24c15.75-1.35,39.7-1.35,56.35-1.35s15.75,10.62,1.8,11.97
		c-13.95,1.35-44.2,3.33-58.15,3.33C26.41,138.19,24.61,125.59,40.36,124.24z"/>
	<path id="Stroke-49" class="st1" d="M10,300.25c12.44-1.35,23.81-1.35,36.95-1.35c13.15,0,13.15,9,1.42,10.35
		C36.65,310.6,21.01,310.6,10,310.6C-1.01,310.6-2.44,301.6,10,300.25z"/>
	<path id="Stroke-51" class="st1" d="M107.15,168.62c14.44-1.57,27.65-1.57,42.91-1.57c15.27,0,15.27,9.46,1.65,11.03
		c-13.62,1.57-31.77,3.55-44.57,3.55C94.36,181.63,92.71,170.19,107.15,168.62z"/>
	<path id="Fill-57" class="st2" d="M57,78.92h36.44l-5.54,28c-0.66,3.35-3.6,5.76-7.01,5.76H66.71c-3.69,0-6.77-2.8-7.12-6.47
		L57,78.92z"/>
	<path id="Fill-59" class="st3" d="M89.34,99.61l1.93-9.74C101.22,89.8,100.21,99.07,89.34,99.61 M92.17,85.35l-3.68,18.6
		C107.35,102.66,105.23,85.1,92.17,85.35"/>
	<path id="Stroke-75" class="st1" d="M40.9,231.24c13.58-1.31,12.23,12.19,0,13.54C28.68,246.12,27.33,232.55,40.9,231.24z"/>
</g>
</svg>
