<?xml version="1.0" encoding="utf-8"?>
<!-- Generator: Adobe Illustrator 23.0.3, SVG Export Plug-In . SVG Version: 6.00 Build 0)  -->
<svg version="1.1" id="Ebene_1" xmlns="http://www.w3.org/2000/svg" xmlns:xlink="http://www.w3.org/1999/xlink" x="0px" y="0px"
	 viewBox="0 0 388.42 416.06" style="enable-background:new 0 0 388.42 416.06;" xml:space="preserve">
<style type="text/css">
	.st0{fill-rule:evenodd;clip-rule:evenodd;fill:#C69999;}
	.st1{fill-rule:evenodd;clip-rule:evenodd;fill:#594242;}
	.st2{fill-rule:evenodd;clip-rule:evenodd;fill:#433DC7;}
	.st3{fill-rule:evenodd;clip-rule:evenodd;fill:#625BE1;}
	.st4{fill-rule:evenodd;clip-rule:evenodd;fill:#372186;}
	.st5{fill-rule:evenodd;clip-rule:evenodd;fill:#350F54;}
	.st6{fill-rule:evenodd;clip-rule:evenodd;fill:#765656;}
	.st7{fill-rule:evenodd;clip-rule:evenodd;fill:#DEB3B3;}
</style>
<g>
	<g id="Demo_1_" transform="translate(-650.000000, -151.000000)">
		<g id="Illustration_Book-Demo_1_" transform="translate(650.000000, 151.000000)">
			<g id="Group-77_1_" transform="translate(53.000000, 31.000000)">
				<path id="Fill-1_1_" class="st0" d="M292.69,66.58c0.99-4.17-1.22-8.43-5.2-10.02l-18.18-7.27c-2.74-1.1-5.67-1.62-8.62-1.54
					l-135.05,2.5c-3.27,0.05-6.19,2.03-7.44,5.05L72.24,169.92l185.1,7.74L292.69,66.58z"/>
				<path id="Fill-3_1_" class="st1" d="M45.52,46.93c0,0-7-3.86-17.12-10.99c-4.6-3.24-8.25,1.4-5.96,7.08
					c2.29,5.69,7,10.84,11.97,14.62c9.6,8.1,14.43,9.36,24.27,8.02l7.2,3.6l1.5-11.62C67.37,57.65,51.51,50.19,45.52,46.93"/>
				<path id="Fill-5_1_" class="st1" d="M60.47,55.69c-1.96-4.78-4.16-11.96-7.76-13.76c-3.6-1.8-12.23-8.72-14.03-8.72
					s-2.92,2.8-0.67,5.05c1.5,1.5,2.99,2.84,7.56,5.69c-0.15,5.09-0.4,7.42,1.35,10.18C53.32,64.25,62.43,60.47,60.47,55.69"/>
				<path id="Fill-7_1_" class="st2" d="M152.93,80.1c-11.23,6.31-31.32,12.98-36.72,12.98c-13.5-0.9-25.74-5.88-53.94-17.88
					l5.1-17.55c27.6,7.5,40.55,10.61,52.55,13.01c0,0,44.1-26.32,50.17-28.85c6.06-2.53,15.61,10.94,5.97,20.82
					C166.42,72.51,160.99,75.57,152.93,80.1"/>
				<path id="Fill-9_1_" class="st3" d="M173.13,40.75c14.48-2.54,18.13-4.11,28.45-4.9c10.32-0.8,27.29,4.98,33.07,7.98
					c12.92,6.72-44.49,102.56-50.88,108.54c-6.39,5.98-50.08-0.9-46.99-14.26c3.09-13.37,10.29-55.23,14.49-65.94
					C155.01,62.63,162.61,42.59,173.13,40.75"/>
				<path id="Fill-11_1_" class="st4" d="M84.22,96.15c10.68,0.95,99.69,36.85,104.75,39.05c13.77,5.99,10.79,40.56-5.19,42.73
					c-35.32,4.79-75.83-35.53-92.38-44.93C74.84,123.61,63.9,94.35,84.22,96.15"/>
				<path id="Fill-13_1_" class="st4" d="M60.76,120.74c14.03,1.53,80.48,16.23,89.5,17.86c18.6,3.35,19.55,41.66-5.99,39.07
					c-25.54-2.59-77.42-16.92-90.39-21.91C40.38,150.56,42.99,118.81,60.76,120.74"/>
				<path id="Fill-17_1_" class="st0" d="M148.76,165.88c-70.2-5.7-110.14-7.41-151.13-7.41c-28.53,0-38.58,12.52-43.07,34.8
					c-2.2,10.89-5.46,27.55-7.47,37.84c-0.92,4.72,2.76,9.08,7.57,8.95c27.88-0.72,112.28-2.94,174.04-5.16L148.76,165.88z"/>
				<path id="Fill-19_1_" class="st5" d="M-3.56,254.26l-5.29,15.06c-13.78,11.96-22.99,20.31-29.94,28.19
					c-6.96,7.88,4.38,18.45,16.53,12.15s27.99-18.9,35.64-24.36c4.2-2.7,4.65-12.75,1.35-30.15L-3.56,254.26z"/>
				<path id="Fill-21_1_" class="st3" d="M6.69,269.82c-7.59,5.03-7.59,15.1,0,10.07C14.29,274.85,14.29,264.78,6.69,269.82"/>
				<path id="Fill-23_1_" class="st4" d="M60.76,120.74c-19.7-1.89-27,25.55-33.66,43.16c-6.66,17.61-31.84,94.08-31.84,94.08
					l28.8,4.05c0,0,31.79-63.13,37.59-76.17C67.45,172.83,79.64,122.56,60.76,120.74"/>
				<path id="Fill-25_1_" class="st5" d="M114.75,240.31c1.2,5.7,1.2,13.35,0,22.95c-1.8,14.4-4.5,32.85-4.5,38.25
					c0,5.4,29.7-3.15,30.6-14.4c0.6-7.5-3.75-23.85-13.05-49.05L114.75,240.31z"/>
				<path id="Fill-27_1_" class="st3" d="M127.37,257.36c-1.52,9.1,2.53,15.67,4.55,7.08C133.95,255.84,128.89,248.26,127.37,257.36
					"/>
				<path id="Fill-29_1_" class="st5" d="M210.21-13.66c15.02-2.4,20.24,6.6,22.2,15.61c1.96,9.01,0,17.41-9.79,19.81
					c-9.79,2.4-18.28,0.6-21.54-9.61C197.81,1.95,195.2-11.26,210.21-13.66"/>
				<path id="Fill-31_1_" class="st5" d="M232.86-5.93c14.05-1.96,18.93,5.4,20.76,12.77c1.83,7.37,0,14.25-9.16,16.21
					c-9.16,1.96-17.1,0.49-20.15-7.86C221.25,6.84,218.81-3.97,232.86-5.93"/>
				<path id="Fill-33_1_" class="st5" d="M255.85,0.79c10.66-1.6,14.36,4.4,15.75,10.41c1.39,6,0,11.61-6.95,13.21
					c-6.95,1.6-12.97,0.4-15.29-6.4C247.05,11.2,245.19,2.39,255.85,0.79"/>
				<path id="Fill-35_1_" class="st5" d="M275.15-0.47c9.69-1.31,13.06,3.6,14.32,8.51c1.26,4.91,0,9.5-6.32,10.81
					c-6.32,1.31-11.79,0.33-13.9-5.24C267.15,8.04,265.46,0.84,275.15-0.47"/>
				<path id="Fill-37_1_" class="st5" d="M296.47-7.2c9.2-1.05,10.76,2.8,11.96,6.62c1.2,3.82-2.35,7.6-6,8.41
					c-6.9,1.52-11.2,0.25-13.2-4.08C287.22-0.58,288.16-6.26,296.47-7.2"/>
				<path id="Fill-39_1_" class="st1" d="M209.68,0.4c-3.44,16.52-2.64,30.37,2.38,36.25c-7.61,11.53-26.4,25.22-34.27,31.16
					c4.78-15.67,7.37-18.98,11.24-26.25c-1.03-5.88-2.06-10.92-3.1-15.11C205.2-7.44,213.12-16.12,209.68,0.4"/>
				<path id="Fill-41_1_" class="st6" d="M186.56-29.13c16.07-1.61,23.42,6.58,25.35,24.27c1.93,17.69-14.91,39.44-25.35,39.44
					c-9.32,0-13.85-14.4-16.78-31.85C166.85-14.73,170.48-27.52,186.56-29.13"/>
				<path id="Fill-61_1_" class="st0" d="M68.83,351.22c32.12-2.75,99.13-7.34,133.09-7.34c33.96,0,32.12,27.61,3.67,30.36
					c-28.45,2.75-108.31,9.1-136.76,9.1C40.38,383.35,36.71,353.98,68.83,351.22"/>
				<path id="Fill-63_1_" class="st5" d="M168.86-3.73c1.05-6.82,17.77-12.23,24.33-9.18c6.56,3.06,3.76,16.42,11.38,15.47
					c-0.74-3.25-1.81-7.73,1.68-7.97c5.17-0.36,4.56,13,2.1,19c3.99-6.77,11.35-23.74-1.62-38.61
					C193.41-40.27,160.94-23.88,168.86-3.73"/>
				<path id="Fill-65_1_" class="st7" d="M324.56,101.8c-7.61,0-46.41,1.79-116.41,5.37l-49.4,126.45
					c37.95-1.56,92.24-3.79,99.11-4.11c11.93-0.75,17.1-7.2,21.6-18.9c2.16-5.62,12.16-35.17,24-69.48
					c0.67-1.95,2.64-3.55,5.57-3.65c4.15-0.13,5.34-0.3,9.56-0.38c8.43-0.16,9.67-9.7,1.29-9.25c-8.38,0.45-24.88,0.7-31.46,0.55
					c-6.58-0.15-5.06-10.43,2.88-10.91c7.94-0.48,28.77-1.29,35.97-2.19C338.06,113.95,338.96,101.8,324.56,101.8"/>
				<path id="Fill-67_1_" class="st0" d="M171.77,108.61c-5.29,0.28-9.76,4-10.99,9.14L128.7,234.91c0,0,5.26-0.28,30.04-1.29
					c5.31-0.22,9.93-3.7,11.61-8.74l37.79-117.7C192.27,107.99,190.85,107.61,171.77,108.61"/>
				<path id="Fill-69_1_" class="st1" d="M210.22,112.59c-9.85,1.29-14.54,1.85-19.76,2.26c-1.16,3.71-3.25,6.84-6.26,9.4
					c-3.02,2.55-5.92,5.22-8.7,8c0.69,3.94,1.62,6.61,2.78,8c1.74,2.09,4.03,2.18,2.99,4.61c-1.04,2.44-5.21,1.32-9.95-0.43
					c-3.26-1.52-5.4-8.25-6.42-20.17c-0.13-1.53,0.44-3.06,1.54-4.14c9.13-8.92,14.36-13.92,15.67-15.01
					c4.86-1.73,24.24-7.21,24.24-7.21L210.22,112.59z"/>
				<path id="Fill-71_1_" class="st2" d="M234.66,43.82c6.62,4.02,22.03,52.55,22.69,57.08c0.66,4.52-2.33,4.18-7.72,5.37
					c-5.39,1.2-48.68,14.36-48.68,14.36l-5.91-19.62l36.26-9.98c0,0-7.15-14.96-12.26-29.33S229.57,40.73,234.66,43.82"/>
				<path id="Fill-73_1_" class="st4" d="M106.96,110.86c-6.78-15.19-28.83-17.16-35.35-12.44c-5.42,3.92-7.15,7.43-5.8,19.58
					c1.35,12.15,37.25,98.31,47.15,128.61l19.8-6.3c-7.8-56.4-10.23-69.21-13.42-86.12C116.14,137.27,113.74,126.06,106.96,110.86"
					/>
			</g>
		</g>
	</g>
</g>
</svg>
