<svg xmlns="http://www.w3.org/2000/svg" viewBox="0 0 521 396" width="521" height="396" preserveAspectRatio="xMidYMid meet" style="width: 100%; height: 100%; transform: translate3d(0px, 0px, 0px);"><defs><clipPath id="__lottie_element_203"><rect width="521" height="396" x="0" y="0"></rect></clipPath></defs><g clip-path="url(#__lottie_element_203)"><g transform="matrix(1,0,0,1,0,0)" opacity="1" style="display: block;"><g opacity="1" transform="matrix(1,0,0,1,367.8970031738281,311.3420104980469)"><path fill="rgb(222,179,179)" fill-opacity="1" d=" M30.43199920654297,-21.499000549316406 C30.43199920654297,-21.499000549316406 40.96500015258789,16.816999435424805 40.96500015258789,16.816999435424805 C42.84400177001953,23.64699935913086 38.742000579833984,30.34600067138672 32.33700180053711,30.910999298095703 C32.33700180053711,30.910999298095703 6.328000068664551,33.20399856567383 6.328000068664551,33.20399856567383 C5.24399995803833,33.29999923706055 4.14300012588501,33.229000091552734 3.059999942779541,32.987998962402344 C3.059999942779541,32.987998962402344 -40.349998474121094,23.405000686645508 -40.349998474121094,23.405000686645508 C-42.84000015258789,22.854999542236328 -42.84299850463867,18.95599937438965 -40.354000091552734,18.700000762939453 C-40.354000091552734,18.700000762939453 -20.270999908447266,16.641000747680664 -20.270999908447266,16.641000747680664 C-15.60099983215332,16.163000106811523 -12.508999824523926,11.442000389099121 -13.54699993133545,6.376999855041504 C-13.54699993133545,6.376999855041504 -21.68899917602539,-33.29999923706055 -21.68899917602539,-33.29999923706055"></path></g><g opacity="1" transform="matrix(1,0,0,1,376.6390075683594,210.26600646972656)"><path fill="rgb(255,255,255)" fill-opacity="1" d=" M99.46900177001953,93.9800033569336 C99.46900177001953,93.9800033569336 -116.90899658203125,62.90700149536133 -116.90899658203125,62.90700149536133 C-119.33999633789062,62.55699920654297 -121.09400177001953,59.79499816894531 -120.84100341796875,56.736000061035156 C-120.84100341796875,56.736000061035156 -108.70099639892578,-88.94999694824219 -108.70099639892578,-88.94999694824219 C-108.44599914550781,-92.00900268554688 -106.25399780273438,-94.4739990234375 -103.7979965209961,-94.45600128173828 C-103.7979965209961,-94.45600128173828 115.03199768066406,-92.79499816894531 115.03199768066406,-92.79499816894531 C118.51000213623047,-92.76799774169922 121.09400177001953,-89.77899932861328 120.78900146484375,-86.11799621582031 C120.78900146484375,-86.11799621582031 106.26000213623047,88.24500274658203 106.26000213623047,88.24500274658203 C105.95500183105469,91.90799713134766 102.90699768066406,94.4749984741211 99.46900177001953,93.9800033569336z"></path></g><g opacity="1" transform="matrix(1,0,0,1,375.62200927734375,209.46200561523438)"><path fill="rgb(255,255,255)" fill-opacity="1" d=" M100.85199737548828,87.74500274658203 C100.85199737548828,87.74500274658203 -115.24500274658203,57.827999114990234 -115.24500274658203,57.827999114990234 C-115.24500274658203,57.827999114990234 -103.11499786376953,-87.74500274658203 -103.11499786376953,-87.74500274658203 C-103.11499786376953,-87.74500274658203 115.24500274658203,-84.98600006103516 115.24500274658203,-84.98600006103516 C115.24500274658203,-84.98600006103516 100.85199737548828,87.74500274658203 100.85199737548828,87.74500274658203z"></path></g><g opacity="1" transform="matrix(1,0,0,1,370.8630065917969,173.29800415039062)"><path fill="rgb(255,223,223)" fill-opacity="1" d=" M55.75899887084961,8.21399974822998 C55.75899887084961,8.21399974822998 -56.93600082397461,1.8680000305175781 -56.93600082397461,1.8680000305175781 C-57.67599868774414,1.8270000219345093 -58.2140007019043,1.0709999799728394 -58.13800048828125,0.18199999630451202 C-58.13800048828125,0.18199999630451202 -57.56700134277344,-6.682000160217285 -57.56700134277344,-6.682000160217285 C-57.49399948120117,-7.572000026702881 -56.83599853515625,-8.263999938964844 -56.095001220703125,-8.229000091552734 C-56.095001220703125,-8.229000091552734 56.676998138427734,-2.822000026702881 56.676998138427734,-2.822000026702881 C57.5620002746582,-2.7799999713897705 58.2140007019043,-1.9539999961853027 58.132999420166016,-0.9810000061988831 C58.132999420166016,-0.9810000061988831 57.50699996948242,6.539000034332275 57.50699996948242,6.539000034332275 C57.42499923706055,7.513999938964844 56.641998291015625,8.263999938964844 55.75899887084961,8.21399974822998z"></path></g><g opacity="1" transform="matrix(1,0,0,1,364.364990234375,251.44500732421875)"><path fill="rgb(255,223,223)" fill-opacity="1" d=" M-55.78499984741211,-13.569999694824219 C-56.470001220703125,-13.569000244140625 -57.058998107910156,-12.937000274658203 -57.12900161743164,-12.095999717712402 C-57.12900161743164,-12.095999717712402 -57.999000549316406,-1.659000039100647 -57.999000549316406,-1.659000039100647 C-58.073001861572266,-0.7689999938011169 -57.53900146484375,0.023000000044703484 -56.80400085449219,0.11100000143051147 C-56.80400085449219,0.11100000143051147 55.30099868774414,13.560999870300293 55.30099868774414,13.560999870300293 C55.358001708984375,13.567999839782715 55.41699981689453,13.569999694824219 55.4739990234375,13.569999694824219 C56.279998779296875,13.569999694824219 56.9630012512207,12.897000312805176 57.03900146484375,11.987000465393066 C57.03900146484375,11.987000465393066 57.992000579833984,0.5529999732971191 57.992000579833984,0.5529999732971191 C58.073001861572266,-0.42100000381469727 57.42599868774414,-1.2879999876022339 56.54600143432617,-1.3839999437332153 C56.54600143432617,-1.3839999437332153 -55.665000915527344,-13.562000274658203 -55.665000915527344,-13.562000274658203 C-55.70399856567383,-13.565999984741211 -55.744998931884766,-13.569999694824219 -55.78499984741211,-13.569999694824219z M-55.051998138427734,-11.350000381469727 C-55.051998138427734,-11.350000381469727 55.840999603271484,0.6840000152587891 55.840999603271484,0.6840000152587891 C55.840999603271484,0.6840000152587891 54.94900131225586,11.371000289916992 54.94900131225586,11.371000289916992 C54.94900131225586,11.371000289916992 -55.83700180053711,-1.9210000038146973 -55.83700180053711,-1.9210000038146973 C-55.83700180053711,-1.9210000038146973 -55.051998138427734,-11.350000381469727 -55.051998138427734,-11.350000381469727z"></path></g><g opacity="1" transform="matrix(1,0,0,1,407.65399169921875,272.510986328125)"><path fill="rgb(59,49,170)" fill-opacity="1" d=" M8.17300033569336,6.135000228881836 C8.17300033569336,6.135000228881836 -9.157999992370605,3.869999885559082 -9.157999992370605,3.869999885559082 C-11.4399995803833,3.572999954223633 -13.109000205993652,1.2510000467300415 -12.895999908447266,-1.3140000104904175 C-12.895999908447266,-1.3140000104904175 -12.836000442504883,-2.0230000019073486 -12.836000442504883,-2.0230000019073486 C-12.623000144958496,-4.590000152587891 -10.604000091552734,-6.441999912261963 -8.321999549865723,-6.160999774932861 C-8.321999549865723,-6.160999774932861 9.020000457763672,-4.03000020980835 9.020000457763672,-4.03000020980835 C11.371999740600586,-3.742000102996826 13.109000205993652,-1.3849999904632568 12.890999794006348,1.2309999465942383 C12.890999794006348,1.2309999465942383 12.829999923706055,1.9550000429153442 12.829999923706055,1.9550000429153442 C12.612000465393066,4.572000026702881 10.52400016784668,6.441999912261963 8.17300033569336,6.135000228881836z"></path></g><g opacity="1" transform="matrix(1,0,0,1,367.3330078125,216.1199951171875)"><path fill="rgb(255,223,223)" fill-opacity="1" d=" M55.14099884033203,15.17199993133545 C55.14099884033203,15.17199993133545 -57.20199966430664,4.591000080108643 -57.20199966430664,4.591000080108643 C-57.93899917602539,4.521999835968018 -58.47600173950195,3.743000030517578 -58.4010009765625,2.8540000915527344 C-58.4010009765625,2.8540000915527344 -57.02199935913086,-13.692000389099121 -57.02199935913086,-13.692000389099121 C-56.948001861572266,-14.581999778747559 -56.29199981689453,-15.255000114440918 -55.553001403808594,-15.197999954223633 C-55.553001403808594,-15.197999954223633 56.94200134277344,-6.456999778747559 56.94200134277344,-6.456999778747559 C57.82500076293945,-6.388999938964844 58.47600173950195,-5.544000148773193 58.39500045776367,-4.568999767303467 C58.39500045776367,-4.568999767303467 56.882999420166016,13.557000160217285 56.882999420166016,13.557000160217285 C56.801998138427734,14.531999588012695 56.020999908447266,15.255000114440918 55.14099884033203,15.17199993133545z"></path></g><g opacity="1" transform="matrix(1,0,0,1,316.77398681640625,190.7530059814453)"><path fill="rgb(222,179,179)" fill-opacity="1" d=" M5.453999996185303,0.3610000014305115 C5.151000022888184,4 2.447000026702881,6.765999794006348 -0.5720000267028809,6.541999816894531 C-3.5769999027252197,6.318999767303467 -5.757999897003174,3.2149999141693115 -5.456999778747559,-0.39100000262260437 C-5.156000137329102,-3.996999979019165 -2.4860000610351562,-6.764999866485596 0.5199999809265137,-6.573999881744385 C3.5420000553131104,-6.38100004196167 5.757999897003174,-3.2760000228881836 5.453999996185303,0.3610000014305115z"></path></g><g opacity="1" transform="matrix(1,0,0,1,319.7409973144531,155.15199279785156)"><path fill="rgb(222,179,179)" fill-opacity="1" d=" M5.4679999351501465,0.20100000500679016 C5.164999961853027,3.8389999866485596 2.4549999237060547,6.677000045776367 -0.5720000267028809,6.540999889373779 C-3.5840001106262207,6.40500020980835 -5.770999908447266,3.374000072479248 -5.4710001945495605,-0.23199999332427979 C-5.171000003814697,-3.8380000591278076 -2.49399995803833,-6.677000045776367 0.5199999809265137,-6.574999809265137 C3.5490000247955322,-6.4710001945495605 5.770999908447266,-3.437999963760376 5.4679999351501465,0.20100000500679016z"></path></g><g opacity="1" transform="matrix(1,0,0,1,474.62200927734375,137.65199279785156)"><path fill="rgb(222,179,179)" fill-opacity="1" d=" M6.938000202178955,0.1340000033378601 C6.5970001220703125,4.230999946594238 3.188999891281128,7.4670000076293945 -0.6510000228881836,7.359000205993652 C-4.4710001945495605,7.252999782562256 -7.2779998779296875,3.88100004196167 -6.940999984741211,-0.17599999904632568 C-6.603000164031982,-4.23199987411499 -3.244999885559082,-7.4670000076293945 0.5789999961853027,-7.4019999504089355 C4.422999858856201,-7.336999893188477 7.2789998054504395,-3.9630000591278076 6.938000202178955,0.1340000033378601z"></path></g><g opacity="1" transform="matrix(1,0,0,1,230.54299926757812,195.19500732421875)"><path fill="rgb(255,238,238)" fill-opacity="1" d=" M-51.42100143432617,-26.945999145507812 C-21.65399932861328,-22.04400062561035 18.861000061035156,-13.368000030517578 45.70199966430664,-6.025000095367432 C70.45099639892578,0.7459999918937683 67.73999786376953,25.4950008392334 45.694000244140625,26.77199935913086 C23.104000091552734,28.077999114990234 -38.54800033569336,30.079999923706055 -38.54800033569336,30.079999923706055 C-38.54800033569336,30.079999923706055 -70.45099639892578,-30.079999923706055 -51.42100143432617,-26.945999145507812z"></path></g><g opacity="1" transform="matrix(1,0,0,1,127.38300323486328,260.4639892578125)"><path fill="rgb(255,239,239)" fill-opacity="1" d=" M-22.351999282836914,-96.84200286865234 C2.8519999980926514,-99.00499725341797 33.983001708984375,-95.25900268554688 51.737998962402344,-92.21399688720703 C74.05899810791016,-88.38600158691406 83.94000244140625,91.27100372314453 83.94000244140625,91.27100372314453 C83.94000244140625,91.27100372314453 -12.781999588012695,97.48500061035156 -12.781999588012695,97.48500061035156 C-12.781999588012695,97.48500061035156 -86.8290023803711,-61.53099822998047 -83.85199737548828,-73.43800354003906 C-80.8759994506836,-85.34500122070312 -47.55500030517578,-94.67900085449219 -22.351999282836914,-96.84200286865234z"></path></g><g opacity="1" transform="matrix(1,0,0,1,256.968994140625,230.21499633789062)"><path fill="rgb(255,238,238)" fill-opacity="1" d=" M2.697999954223633,5.64300012588501 C-8.3100004196167,14.201000213623047 -14.8100004196167,-3.677999973297119 -14.765999794006348,-7.057000160217285 C-14.718999862670898,-10.437000274658203 14.8100004196167,-14.201000213623047 14.8100004196167,-14.201000213623047 C14.8100004196167,-14.201000213623047 2.697999954223633,5.64300012588501 2.697999954223633,5.64300012588501z"></path></g><g opacity="1" transform="matrix(1,0,0,1,128.6739959716797,160.84500122070312)"><path fill="rgb(53,15,83)" fill-opacity="1" d=" M-26.481000900268555,-40.85499954223633 C-22.559999465942383,-19.475000381469727 -21.398000717163086,-7.02400016784668 -20.798999786376953,4.215000152587891 C-20.702999114990234,6.017000198364258 -19.92300033569336,7.7179999351501465 -18.593000411987305,8.939000129699707 C-6.368000030517578,20.165000915527344 26.481000900268555,40.85499954223633 26.481000900268555,40.85499954223633 C26.481000900268555,40.85499954223633 17.511999130249023,-2.36899995803833 12.449999809265137,-15.369000434875488 C7.38700008392334,-28.37299919128418 -26.481000900268555,-40.85499954223633 -26.481000900268555,-40.85499954223633z"></path></g><g opacity="1" transform="matrix(1,0,0,1,137.80499267578125,120.2030029296875)"><path fill="rgb(53,15,83)" fill-opacity="1" d=" M1.8049999475479126,50.86399841308594 C-14.312000274658203,48.08000183105469 -36.65399932861328,20.415000915527344 -34.92399978637695,-4.723999977111816 C-33.194000244140625,-29.864999771118164 -27.22100067138672,-43.71200180053711 -8.184000015258789,-46.75899887084961 C10.850000381469727,-49.80500030517578 36.65399932861328,-54.380001068115234 34.48400115966797,-13.069999694824219 C32.308998107910156,28.336000442504883 22.152999877929688,54.380001068115234 1.8049999475479126,50.86399841308594z"></path></g><g opacity="1" transform="matrix(1,0,0,1,239.6649932861328,218.75999450683594)"><path fill="rgb(53,15,83)" fill-opacity="1" d=" M29.30500030517578,-17.059999465942383 C29.30500030517578,-17.059999465942383 4.408999919891357,-13.763999938964844 -3.2920000553131104,-12.875 C-9.427000045776367,-12.168000221252441 -33.90399932861328,-5.242000102996826 -35.99700164794922,-4.724999904632568 C-38.09000015258789,-4.206999778747559 -36.595001220703125,-0.5289999842643738 -32.73699951171875,-0.5299999713897705 C-28.878999710083008,-0.5320000052452087 -16.305999755859375,-2.7149999141693115 -16.305999755859375,-2.7149999141693115 C-16.305999755859375,-2.7149999141693115 -14.406000137329102,12.598999977111816 -9.217000007629395,14.696000099182129 C-3.371000051498413,17.059999465942383 3.625,17.01300048828125 7.9720001220703125,16.256000518798828 C15.57699966430664,14.930000305175781 6.568999767303467,6.76200008392334 6.568999767303467,6.76200008392334 C6.568999767303467,6.76200008392334 37.48099899291992,-4.814000129699707 37.48099899291992,-4.814000129699707 C37.48099899291992,-4.814000129699707 38.09000015258789,-14.034000396728516 29.30500030517578,-17.059999465942383z"></path></g><g opacity="1" transform="matrix(1,0,0,1,273.3869934082031,213.60299682617188)"><path fill="rgb(255,239,239)" fill-opacity="1" d=" M-23.360000610351562,-10.425000190734863 C-1.5219999551773071,-8.107999801635742 -13.720000267028809,22.256999969482422 -13.720000267028809,22.256999969482422 C-13.720000267028809,22.256999969482422 8.347000122070312,10.182000160217285 14.854999542236328,5.189000129699707 C23.360000610351562,-1.3359999656677246 22.704999923706055,-22.256999969482422 5.306000232696533,-17.70800018310547 C-16.39699935913086,-12.031999588012695 -23.360000610351562,-10.425000190734863 -23.360000610351562,-10.425000190734863z"></path></g><g opacity="1" transform="matrix(1,0,0,1,139.53199768066406,235.53900146484375)"><path fill="rgb(53,15,83)" fill-opacity="1" d=" M-37.24700164794922,-4.526000022888184 C-37.24700164794922,-4.526000022888184 -0.2720000147819519,-14.711999893188477 5.894999980926514,-16.09000015258789 C12.060999870300293,-17.47100067138672 41.05500030517578,-19.582000732421875 43.2140007019043,-19.700000762939453 C45.37099838256836,-19.816999435424805 44.555999755859375,-15.397000312805176 40.749000549316406,-14.163999557495117 C36.94300079345703,-12.928999900817871 20.408000946044922,-10.531999588012695 20.408000946044922,-10.531999588012695 C20.408000946044922,-10.531999588012695 20.535999298095703,3.615999937057495 15.793999671936035,7.526000022888184 C10.449999809265137,11.930000305175781 5.96999979019165,15.126999855041504 -1.8960000276565552,17.541000366210938 C-9.309000015258789,19.816999435424805 -9.968999862670898,8.673999786376953 -9.968999862670898,8.673999786376953 C-9.968999862670898,8.673999786376953 -38.44200134277344,11.878999710083008 -38.44200134277344,11.878999710083008 C-38.44200134277344,11.878999710083008 -45.37099838256836,1.5299999713897705 -37.24700164794922,-4.526000022888184z"></path></g><g opacity="1" transform="matrix(1,0,0,1,57.30099868774414,230.63800048828125)"><path fill="rgb(255,238,238)" fill-opacity="1" d=" M53.72700119018555,-2.549999952316284 C53.72700119018555,-2.549999952316284 57.30099868774414,27.993000030517578 57.30099868774414,27.993000030517578 C57.30099868774414,27.993000030517578 -21.118999481201172,60.52799987792969 -40.83300018310547,57.983001708984375 C-65.04199981689453,54.856998443603516 -31.506000518798828,-20.200000762939453 -13.050000190734863,-46.47600173950195 C-3.181999921798706,-60.52799987792969 25.523000717163086,-57.10599899291992 19.56999969482422,-31.542999267578125 C16.389999389648438,-17.889999389648438 9.019000053405762,7.449999809265137 9.019000053405762,7.449999809265137 C9.019000053405762,7.449999809265137 53.72700119018555,-2.549999952316284 53.72700119018555,-2.549999952316284z"></path></g></g><g transform="matrix(1,0,0,1,0,0)" opacity="1" style="display: block;"><g opacity="1" transform="matrix(1,0,0,1,131.38999938964844,88.86299896240234)"><path fill="rgb(67,60,198)" fill-opacity="1" d=" M41.027000427246094,14.604999542236328 C40.737998962402344,-25.374000549316406 29.542999267578125,-35.72700119018555 21.766000747680664,-40.6619987487793 C13.98799991607666,-45.599998474121094 14.704000473022461,-34.375 11.220999717712402,-35.99100112915039 C7.736000061035156,-37.606998443603516 2.5880000591278076,-47.02000045776367 -3.3919999599456787,-47.76300048828125 C-9.371000289916992,-48.50400161743164 -5.513999938964844,-36.86000061035156 -9.187000274658203,-37.96900177001953 C-12.862000465393066,-39.077999114990234 -18.121000289916992,-46.5260009765625 -22.207000732421875,-45.58399963378906 C-26.29199981689453,-44.641998291015625 -18.20599937438965,-30.277000427246094 -22.459999084472656,-30.533000946044922 C-26.714000701904297,-30.790000915527344 -30.62299919128418,-37.54800033569336 -33.553001403808594,-35.71699905395508 C-36.483001708984375,-33.88399887084961 -28.858999252319336,-19.444000244140625 -31.118999481201172,-17.770000457763672 C-33.37799835205078,-16.094999313354492 -37.75299835205078,-20.28700065612793 -40.507999420166016,-16.485000610351562 C-43.263999938964844,-12.684000015258789 -34.07600021362305,9.998000144958496 -35.28099822998047,16.03700065612793 C-36.18899917602539,20.586000442504883 -40.11899948120117,20.20599937438965 -39.82899856567383,21.781999588012695 C-39.53900146484375,23.354999542236328 -35.641998291015625,23.729999542236328 -34.53300094604492,27.062999725341797 C-33.42300033569336,30.395999908447266 -41.3390007019043,30.547000885009766 -39.284000396728516,32.762001037597656 C-29.7810001373291,43.00299835205078 -23.312999725341797,42.10599899291992 -26.99799919128418,27.875999450683594 C-29.17099952697754,19.481000900268555 -24.597999572753906,16.642000198364258 -21.68199920654297,25.891000747680664 C-19.783000946044922,31.920000076293945 -21.01300048828125,47.79800033569336 -21.01300048828125,47.79800033569336 C-21.01300048828125,47.79800033569336 -12.895000457763672,45.25600051879883 -12.895000457763672,45.25600051879883 C-20.799999237060547,15.050999641418457 -3.0190000534057617,4.40500020980835 15.791000366210938,6.150000095367432 C33.72200012207031,7.813000202178955 41.027000427246094,14.604999542236328 41.027000427246094,14.604999542236328z"></path></g></g><g transform="matrix(1,0,0,1,0,0)" opacity="0.4" style="display: block;"><g opacity="1" transform="matrix(1,0,0,1,193.91900634765625,216.46800231933594)"><path fill="rgb(197,153,153)" fill-opacity="1" d=" M-41.6150016784668,-67.6050033569336 C-42.143001556396484,-53.82400131225586 -7.682000160217285,-13.38599967956543 -7.23799991607666,-1.6410000324249268 C-6.854000091552734,8.473999977111816 -41.22999954223633,52.474998474121094 -47.49100112915039,69.71299743652344 C-47.49100112915039,69.71299743652344 43.82099914550781,66.47599792480469 43.82099914550781,66.47599792480469 C42.36600112915039,53.5260009765625 5.703000068664551,9.63700008392334 6.689000129699707,-2.3239998817443848 C7.650000095367432,-13.98799991607666 44.37699890136719,-55.731998443603516 47.49100112915039,-69.71299743652344 C47.49100112915039,-69.71299743652344 -41.6150016784668,-67.6050033569336 -41.6150016784668,-67.6050033569336z"></path></g><g opacity="1" transform="matrix(1,0,0,1,195.62600708007812,147.51600646972656)"><path fill="rgb(255,238,238)" fill-opacity="1" d=" M-43.321998596191406,1.347000002861023 C-40.472999572753906,-3.9590001106262207 -14.493000030517578,-6.64900016784668 4.696000099182129,-7.349999904632568 C23.632999420166016,-8.041999816894531 47.270999908447266,-5.190000057220459 45.78300094604492,-0.7429999709129333 C43.983001708984375,4.638999938964844 12.59000015258789,6.521999835968018 -7.916999816894531,6.98799991607666 C-28.424999237060547,7.453000068664551 -45.849998474121094,6.052999973297119 -43.321998596191406,1.347000002861023z"></path></g><g opacity="1" transform="matrix(1,0,0,1,192.72500610351562,284.31298828125)"><path fill="rgb(148,104,104)" fill-opacity="1" d=" M-46.29600143432617,1.8619999885559082 C-43.3849983215332,-6.190000057220459 -17.385000228881836,-9.800000190734863 1.8029999732971191,-10.50100040435791 C20.739999771118164,-11.192000389099121 46.551998138427734,-8.086000442504883 45.01499938964844,-1.3209999799728394 C43.1510009765625,6.867000102996826 9.532999992370605,10.850000381469727 -10.970999717712402,11.166000366210938 C-31.475000381469727,11.482000350952148 -48.87799835205078,9.005000114440918 -46.29600143432617,1.8619999885559082z"></path></g></g><g transform="matrix(1,0,0,1,0,0)" opacity="1" style="display: block;"><g opacity="1" transform="matrix(1,0,0,1,196.3820037841797,190.37600708007812)"><path fill="rgb(97,91,224)" fill-opacity="1" d=" M25.308000564575195,-21.604000091552734 C21.89299964904785,-17.378000259399414 4.583000183105469,8.60200023651123 -0.4129999876022339,18.81800079345703 C-1.7769999504089355,21.604999542236328 -3.7190001010894775,20.35099983215332 -4.8420000076293945,17.420000076293945 C-8.128000259399414,8.847000122070312 -24.27199935913086,-17.270999908447266 -25.30699920654297,-19.136999130249023 C-25.30699920654297,-19.136999130249023 25.308000564575195,-21.604000091552734 25.308000564575195,-21.604000091552734z"></path></g><g opacity="1" transform="matrix(1,0,0,1,196.66299438476562,169.07000732421875)"><path fill="rgb(59,49,170)" fill-opacity="1" d=" M-25.589000701904297,2.1689999103546143 C-27.0939998626709,-1.4190000295639038 -12.402999877929688,-4.703000068664551 0.7670000195503235,-5.184999942779541 C13.633999824523926,-5.65500020980835 27.0939998626709,-3.5829999446868896 25.027000427246094,-0.2980000078678131 C22.868999481201172,3.132999897003174 5.079999923706055,4.6479997634887695 -6.244999885559082,4.861000061035156 C-17.570999145507812,5.076000213623047 -24.12700080871582,5.65500020980835 -25.589000701904297,2.1689999103546143z"></path></g><g opacity="1" transform="matrix(1,0,0,1,191.4969940185547,283.5169982910156)"><path fill="rgb(173,128,128)" fill-opacity="1" d=" M-36.04600143432617,1.3179999589920044 C-33.763999938964844,-3.1689999103546143 -13.013999938964844,-5.4029998779296875 2.309000015258789,-5.961999893188477 C17.433000564575195,-6.514999866485596 38.06800079345703,-5.025000095367432 36.875999450683594,-1.2630000114440918 C35.43299865722656,3.2909998893737793 8.598999977111816,5.796999931335449 -7.7779998779296875,6.156000137329102 C-24.1560001373291,6.513999938964844 -38.06800079345703,5.296999931335449 -36.04600143432617,1.3179999589920044z"></path></g><g opacity="1" transform="matrix(1,0,0,1,191.9720001220703,275.31298828125)"><path fill="rgb(173,128,128)" fill-opacity="1" d=" M-35.15599822998047,8.14799976348877 C-34.05799865722656,7.1529998779296875 -11.163999557495117,-3.200000047683716 -2.3550000190734863,-7.164000034332275 C-0.33899998664855957,-8.071000099182129 2.4019999504089355,-8.14900016784668 4.340000152587891,-7.35699987411499 C4.340000152587891,-7.35699987411499 35.15700149536133,5.2170000076293945 35.15700149536133,5.2170000076293945 C35.15700149536133,5.2170000076293945 -35.15599822998047,8.14799976348877 -35.15599822998047,8.14799976348877z"></path></g></g><g transform="matrix(1,0,0,1,0.882293701171875,3.05517578125)" opacity="1" style="display: block;"><g opacity="1" transform="matrix(1,0,0,1,193.83200073242188,246.92599487304688)"><path fill="rgb(173,128,128)" fill-opacity="1" d=" M2.1050000190734863,-0.07800000160932541 C2.0829999446868896,0.9700000286102295 1.1200000047683716,1.8550000190734863 -0.041999999433755875,1.8990000486373901 C-1.2050000429153442,1.940999984741211 -2.127000093460083,1.125 -2.1040000915527344,0.07599999755620956 C-2.0820000171661377,-0.9729999899864197 -1.1200000047683716,-1.8559999465942383 0.04100000113248825,-1.8990000486373901 C1.2039999961853027,-1.9420000314712524 2.127000093460083,-1.1260000467300415 2.1050000190734863,-0.07800000160932541z"></path></g></g></g></svg>