<svg xmlns="http://www.w3.org/2000/svg" viewBox="0 0 2000 1400" width="2000" height="1400" preserveAspectRatio="xMidYMid meet" style="width: 100%; height: 100%; transform: translate3d(0px, 0px, 0px);"><defs><clipPath id="__lottie_element_157"><rect width="2000" height="1400" x="0" y="0"></rect></clipPath><clipPath id="__lottie_element_162"><path d="M0,0 L300,0 L300,100 L0,100z"></path></clipPath><clipPath id="__lottie_element_166"><path d="M0,0 L300,0 L300,300 L0,300z"></path></clipPath><clipPath id="__lottie_element_170"><path d="M0,0 L300,0 L300,300 L0,300z"></path></clipPath><clipPath id="__lottie_element_174"><path d="M0,0 L300,0 L300,300 L0,300z"></path></clipPath><clipPath id="__lottie_element_178"><path d="M0,0 L300,0 L300,300 L0,300z"></path></clipPath><clipPath id="__lottie_element_317"><path d="M0,0 L300,0 L300,300 L0,300z"></path></clipPath><clipPath id="__lottie_element_321"><path d="M0,0 L300,0 L300,300 L0,300z"></path></clipPath><clipPath id="__lottie_element_331"><path d="M0,0 L300,0 L300,300 L0,300z"></path></clipPath><clipPath id="__lottie_element_335"><path d="M0,0 L300,0 L300,300 L0,300z"></path></clipPath></defs><g clip-path="url(#__lottie_element_157)"><g transform="matrix(100,0,0,100,-200,-500)" opacity="1" style="display: block;"><g opacity="1" transform="matrix(1,0,0,1,12,12)"><path fill="rgb(244,206,206)" fill-opacity="1" d=" M3,-7 C3,-7 -3,-7 -3,-7 C-6.859000205993652,-7 -10,-3.8589999675750732 -10,0 C-10,3.8589999675750732 -6.859000205993652,7 -3,7 C-3,7 3,7 3,7 C6.859000205993652,7 10,3.8589999675750732 10,0 C10,-3.8589999675750732 6.859000205993652,-7 3,-7z"></path></g></g><g clip-path="url(#__lottie_element_162)" transform="matrix(5,0,0,5,250,450)" opacity="1" style="display: block;"><g clip-path="url(#__lottie_element_166)" transform="matrix(0.20000000298023224,0,0,0.20000000298023224,60,20)" opacity="1" style="display: block;"><g clip-path="url(#__lottie_element_178)" transform="matrix(1,0,0,1,0,0)" opacity="1" style="display: block;"><g transform="matrix(1,0,0,1,379.67401123046875,181.81700134277344)" opacity="1" style="display: block;"><g opacity="1" transform="matrix(1,0,0,1,-230.21099853515625,-31.858999252319336)"><path fill="rgb(60,45,45)" fill-opacity="1" d=" M100,0 C100,0 100,0 100,0 C100,55.189998626708984 55.189998626708984,100 0,100 C0,100 0,100 0,100 C-55.189998626708984,100 -100,55.189998626708984 -100,0 C-100,0 -100,0 -100,0 C-100,-55.189998626708984 -55.189998626708984,-100 0,-100 C0,-100 0,-100 0,-100 C55.189998626708984,-100 100,-55.189998626708984 100,0z"></path><path stroke-linecap="butt" stroke-linejoin="miter" fill-opacity="0" stroke-miterlimit="4" stroke="rgb(81,81,81)" stroke-opacity="1" stroke-width="0" d=" M100,0 C100,0 100,0 100,0 C100,55.189998626708984 55.189998626708984,100 0,100 C0,100 0,100 0,100 C-55.189998626708984,100 -100,55.189998626708984 -100,0 C-100,0 -100,0 -100,0 C-100,-55.189998626708984 -55.189998626708984,-100 0,-100 C0,-100 0,-100 0,-100 C55.189998626708984,-100 100,-55.189998626708984 100,0z"></path></g></g><g style="display: none;" transform="matrix(1,0,0,1,379.67401123046875,181.81700134277344)" opacity="0.0004863755570627859"><g opacity="1" transform="matrix(1,0,0,1,-230.21099853515625,-31.858999252319336)"><path fill="rgb(215,181,180)" fill-opacity="1" d=" M100,0 C100,0 100,0 100,0 C100,55.189998626708984 55.189998626708984,100 0,100 C0,100 0,100 0,100 C-55.189998626708984,100 -100,55.189998626708984 -100,0 C-100,0 -100,0 -100,0 C-100,-55.189998626708984 -55.189998626708984,-100 0,-100 C0,-100 0,-100 0,-100 C55.189998626708984,-100 100,-55.189998626708984 100,0z"></path><path stroke-linecap="butt" stroke-linejoin="miter" fill-opacity="0" stroke-miterlimit="4" stroke="rgb(81,81,81)" stroke-opacity="1" stroke-width="0" d=" M100,0 C100,0 100,0 100,0 C100,55.189998626708984 55.189998626708984,100 0,100 C0,100 0,100 0,100 C-55.189998626708984,100 -100,55.189998626708984 -100,0 C-100,0 -100,0 -100,0 C-100,-55.189998626708984 -55.189998626708984,-100 0,-100 C0,-100 0,-100 0,-100 C55.189998626708984,-100 100,-55.189998626708984 100,0z"></path></g></g></g></g><g clip-path="url(#__lottie_element_170)" transform="matrix(0.20000000298023224,0,0,0.20000000298023224,120,20)" opacity="1" style="display: none;"><g transform="matrix(1,0,0,1,379.67401123046875,181.81700134277344)" opacity="1" style="display: block;"><g opacity="1" transform="matrix(1,0,0,1,-230.21099853515625,-31.858999252319336)"><path fill="rgb(60,45,45)" fill-opacity="1" d=" M100,0 C100,0 100,0 100,0 C100,55.189998626708984 55.189998626708984,100 0,100 C0,100 0,100 0,100 C-55.189998626708984,100 -100,55.189998626708984 -100,0 C-100,0 -100,0 -100,0 C-100,-55.189998626708984 -55.189998626708984,-100 0,-100 C0,-100 0,-100 0,-100 C55.189998626708984,-100 100,-55.189998626708984 100,0z"></path><path stroke-linecap="butt" stroke-linejoin="miter" fill-opacity="0" stroke-miterlimit="4" stroke="rgb(81,81,81)" stroke-opacity="1" stroke-width="0" d=" M100,0 C100,0 100,0 100,0 C100,55.189998626708984 55.189998626708984,100 0,100 C0,100 0,100 0,100 C-55.189998626708984,100 -100,55.189998626708984 -100,0 C-100,0 -100,0 -100,0 C-100,-55.189998626708984 -55.189998626708984,-100 0,-100 C0,-100 0,-100 0,-100 C55.189998626708984,-100 100,-55.189998626708984 100,0z"></path></g></g></g><g clip-path="url(#__lottie_element_317)" transform="matrix(0.20000000298023224,0,0,0.20000000298023224,120,20)" opacity="1" style="display: block;"><g clip-path="url(#__lottie_element_321)" transform="matrix(1,0,0,1,0,0)" opacity="1" style="display: block;"><g transform="matrix(1,0,0,1,379.67401123046875,181.81700134277344)" opacity="1" style="display: block;"><g opacity="1" transform="matrix(1,0,0,1,-230.21099853515625,-31.858999252319336)"><path fill="rgb(60,45,45)" fill-opacity="1" d=" M100,0 C100,0 100,0 100,0 C100,55.189998626708984 55.189998626708984,100 0,100 C0,100 0,100 0,100 C-55.189998626708984,100 -100,55.189998626708984 -100,0 C-100,0 -100,0 -100,0 C-100,-55.189998626708984 -55.189998626708984,-100 0,-100 C0,-100 0,-100 0,-100 C55.189998626708984,-100 100,-55.189998626708984 100,0z"></path><path stroke-linecap="butt" stroke-linejoin="miter" fill-opacity="0" stroke-miterlimit="4" stroke="rgb(81,81,81)" stroke-opacity="1" stroke-width="0" d=" M100,0 C100,0 100,0 100,0 C100,55.189998626708984 55.189998626708984,100 0,100 C0,100 0,100 0,100 C-55.189998626708984,100 -100,55.189998626708984 -100,0 C-100,0 -100,0 -100,0 C-100,-55.189998626708984 -55.189998626708984,-100 0,-100 C0,-100 0,-100 0,-100 C55.189998626708984,-100 100,-55.189998626708984 100,0z"></path></g></g><g transform="matrix(1,0,0,1,379.67401123046875,181.81700134277344)" opacity="0.0002447091510185828" style="display: none;"><g opacity="1" transform="matrix(1,0,0,1,-230.21099853515625,-31.858999252319336)"><path fill="rgb(215,181,180)" fill-opacity="1" d=" M100,0 C100,0 100,0 100,0 C100,55.189998626708984 55.189998626708984,100 0,100 C0,100 0,100 0,100 C-55.189998626708984,100 -100,55.189998626708984 -100,0 C-100,0 -100,0 -100,0 C-100,-55.189998626708984 -55.189998626708984,-100 0,-100 C0,-100 0,-100 0,-100 C55.189998626708984,-100 100,-55.189998626708984 100,0z"></path><path stroke-linecap="butt" stroke-linejoin="miter" fill-opacity="0" stroke-miterlimit="4" stroke="rgb(81,81,81)" stroke-opacity="1" stroke-width="0" d=" M100,0 C100,0 100,0 100,0 C100,55.189998626708984 55.189998626708984,100 0,100 C0,100 0,100 0,100 C-55.189998626708984,100 -100,55.189998626708984 -100,0 C-100,0 -100,0 -100,0 C-100,-55.189998626708984 -55.189998626708984,-100 0,-100 C0,-100 0,-100 0,-100 C55.189998626708984,-100 100,-55.189998626708984 100,0z"></path></g></g></g></g><g clip-path="url(#__lottie_element_174)" transform="matrix(0.20000000298023224,0,0,0.20000000298023224,180,20)" opacity="1" style="display: none;"><g transform="matrix(1,0,0,1,379.67401123046875,181.81700134277344)" opacity="1" style="display: block;"><g opacity="1" transform="matrix(1,0,0,1,-230.21099853515625,-31.858999252319336)"><path fill="rgb(60,45,45)" fill-opacity="1" d=" M100,0 C100,0 100,0 100,0 C100,55.189998626708984 55.189998626708984,100 0,100 C0,100 0,100 0,100 C-55.189998626708984,100 -100,55.189998626708984 -100,0 C-100,0 -100,0 -100,0 C-100,-55.189998626708984 -55.189998626708984,-100 0,-100 C0,-100 0,-100 0,-100 C55.189998626708984,-100 100,-55.189998626708984 100,0z"></path><path stroke-linecap="butt" stroke-linejoin="miter" fill-opacity="0" stroke-miterlimit="4" stroke="rgb(81,81,81)" stroke-opacity="1" stroke-width="0" d=" M100,0 C100,0 100,0 100,0 C100,55.189998626708984 55.189998626708984,100 0,100 C0,100 0,100 0,100 C-55.189998626708984,100 -100,55.189998626708984 -100,0 C-100,0 -100,0 -100,0 C-100,-55.189998626708984 -55.189998626708984,-100 0,-100 C0,-100 0,-100 0,-100 C55.189998626708984,-100 100,-55.189998626708984 100,0z"></path></g></g></g><g clip-path="url(#__lottie_element_331)" transform="matrix(0.20000000298023224,0,0,0.20000000298023224,180,20)" opacity="1" style="display: block;"><g clip-path="url(#__lottie_element_335)" transform="matrix(1,0,0,1,0,0)" opacity="1" style="display: block;"><g transform="matrix(1,0,0,1,379.67401123046875,181.81700134277344)" opacity="1" style="display: block;"><g opacity="1" transform="matrix(1,0,0,1,-230.21099853515625,-31.858999252319336)"><path fill="rgb(60,45,45)" fill-opacity="1" d=" M100,0 C100,0 100,0 100,0 C100,55.189998626708984 55.189998626708984,100 0,100 C0,100 0,100 0,100 C-55.189998626708984,100 -100,55.189998626708984 -100,0 C-100,0 -100,0 -100,0 C-100,-55.189998626708984 -55.189998626708984,-100 0,-100 C0,-100 0,-100 0,-100 C55.189998626708984,-100 100,-55.189998626708984 100,0z"></path><path stroke-linecap="butt" stroke-linejoin="miter" fill-opacity="0" stroke-miterlimit="4" stroke="rgb(81,81,81)" stroke-opacity="1" stroke-width="0" d=" M100,0 C100,0 100,0 100,0 C100,55.189998626708984 55.189998626708984,100 0,100 C0,100 0,100 0,100 C-55.189998626708984,100 -100,55.189998626708984 -100,0 C-100,0 -100,0 -100,0 C-100,-55.189998626708984 -55.189998626708984,-100 0,-100 C0,-100 0,-100 0,-100 C55.189998626708984,-100 100,-55.189998626708984 100,0z"></path></g></g><g transform="matrix(1,0,0,1,379.67401123046875,181.81700134277344)" opacity="0.0000849378624405972" style="display: none;"><g opacity="1" transform="matrix(1,0,0,1,-230.21099853515625,-31.858999252319336)"><path fill="rgb(215,181,180)" fill-opacity="1" d=" M100,0 C100,0 100,0 100,0 C100,55.189998626708984 55.189998626708984,100 0,100 C0,100 0,100 0,100 C-55.189998626708984,100 -100,55.189998626708984 -100,0 C-100,0 -100,0 -100,0 C-100,-55.189998626708984 -55.189998626708984,-100 0,-100 C0,-100 0,-100 0,-100 C55.189998626708984,-100 100,-55.189998626708984 100,0z"></path><path stroke-linecap="butt" stroke-linejoin="miter" fill-opacity="0" stroke-miterlimit="4" stroke="rgb(81,81,81)" stroke-opacity="1" stroke-width="0" d=" M100,0 C100,0 100,0 100,0 C100,55.189998626708984 55.189998626708984,100 0,100 C0,100 0,100 0,100 C-55.189998626708984,100 -100,55.189998626708984 -100,0 C-100,0 -100,0 -100,0 C-100,-55.189998626708984 -55.189998626708984,-100 0,-100 C0,-100 0,-100 0,-100 C55.189998626708984,-100 100,-55.189998626708984 100,0z"></path></g></g></g></g></g></g></svg>