<svg xmlns="http://www.w3.org/2000/svg" viewBox="0 0 498 420" width="498" height="420" preserveAspectRatio="xMidYMid meet" style="width: 100%; height: 100%; transform: translate3d(0px, 0px, 0px);"><defs><clipPath id="__lottie_element_219"><rect width="498" height="420" x="0" y="0"></rect></clipPath></defs><g clip-path="url(#__lottie_element_219)"><g transform="matrix(1,0,0,1,1.3159942626953125,25.270309448242188)" opacity="1" style="display: block;"><g opacity="1" transform="matrix(1,0,0,1,299.8330078125,118.56700134277344)"><path fill="rgb(255,255,255)" fill-opacity="1" d=" M103.31099700927734,114.21800231933594 C103.31099700927734,114.21800231933594 -112.89900207519531,105.53099822998047 -112.89900207519531,105.53099822998047 C-114.74099731445312,105.45600128173828 -116.20600128173828,103.8030014038086 -116.17400360107422,101.83699798583984 C-116.17400360107422,101.83699798583984 -112.89299774169922,-100.93800354003906 -112.89299774169922,-100.93800354003906 C-112.86000061035156,-102.98899841308594 -111.30799865722656,-104.71600341796875 -109.4229965209961,-104.7959976196289 C-109.4229965209961,-104.7959976196289 112.23600006103516,-114.21199798583984 112.23600006103516,-114.21199798583984 C114.46600341796875,-114.30599975585938 116.20600128173828,-112.56800079345703 116.11699676513672,-110.33000183105469 C116.11699676513672,-110.33000183105469 107.39900207519531,110.50700378417969 107.39900207519531,110.50700378417969 C107.31400299072266,112.6449966430664 105.48300170898438,114.30500030517578 103.31099700927734,114.21800231933594z"></path></g><g opacity="1" transform="matrix(1,0,0,1,243.50100708007812,79.04299926757812)"><path fill="rgb(179,156,247)" fill-opacity="1" d=" M0.9629999995231628,-10.404000282287598 C0.9629999995231628,-10.404000282287598 3.061000108718872,-3.4769999980926514 3.061000108718872,-3.4769999980926514 C3.061000108718872,-3.4769999980926514 9.9350004196167,-3.5480000972747803 9.9350004196167,-3.5480000972747803 C10.774999618530273,-3.556999921798706 11.107999801635742,-2.440999984741211 10.432000160217285,-1.8860000371932983 C10.432000160217285,-1.8860000371932983 4.829999923706055,2.7079999446868896 4.829999923706055,2.7079999446868896 C4.829999923706055,2.7079999446868896 6.664999961853027,9.539999961853027 6.664999961853027,9.539999961853027 C6.889999866485596,10.376999855041504 5.98199987411499,11.083000183105469 5.304999828338623,10.597999572753906 C5.304999828338623,10.597999572753906 -0.24300000071525574,6.617000102996826 -0.24300000071525574,6.617000102996826 C-0.24300000071525574,6.617000102996826 -5.946000099182129,10.73799991607666 -5.946000099182129,10.73799991607666 C-6.63700008392334,11.23799991607666 -7.505000114440918,10.555999755859375 -7.245999813079834,9.718000411987305 C-7.245999813079834,9.718000411987305 -5.126999855041504,2.861999988555908 -5.126999855041504,2.861999988555908 C-5.126999855041504,2.861999988555908 -10.465999603271484,-1.527999997138977 -10.465999603271484,-1.527999997138977 C-11.107999801635742,-2.055000066757202 -10.730999946594238,-3.174999952316284 -9.904999732971191,-3.196000099182129 C-9.904999732971191,-3.196000099182129 -3.0969998836517334,-3.367000102996826 -3.0969998836517334,-3.367000102996826 C-3.0969998836517334,-3.367000102996826 -0.6980000138282776,-10.369999885559082 -0.6980000138282776,-10.369999885559082 C-0.40799999237060547,-11.21500015258789 0.7110000252723694,-11.23799991607666 0.9629999995231628,-10.404000282287598z"></path></g><g opacity="1" transform="matrix(1,0,0,1,268.9230041503906,78.6240005493164)"><path fill="rgb(179,156,247)" fill-opacity="1" d=" M1.0010000467300415,-10.506999969482422 C1.0010000467300415,-10.506999969482422 3.122999906539917,-3.510999917984009 3.122999906539917,-3.510999917984009 C3.122999906539917,-3.510999917984009 10.133000373840332,-3.5850000381469727 10.133000373840332,-3.5850000381469727 C10.98799991607666,-3.5929999351501465 11.326000213623047,-2.4670000076293945 10.635000228881836,-1.906999945640564 C10.635000228881836,-1.906999945640564 4.910999774932861,2.7339999675750732 4.910999774932861,2.7339999675750732 C4.910999774932861,2.7339999675750732 6.767000198364258,9.631999969482422 6.767000198364258,9.631999969482422 C6.993000030517578,10.47700023651123 6.065000057220459,11.190999984741211 5.377999782562256,10.701000213623047 C5.377999782562256,10.701000213623047 -0.27000001072883606,6.682000160217285 -0.27000001072883606,6.682000160217285 C-0.27000001072883606,6.682000160217285 -6.09499979019165,10.843000411987305 -6.09499979019165,10.843000411987305 C-6.801000118255615,11.347999572753906 -7.684999942779541,10.65999984741211 -7.418000221252441,9.812999725341797 C-7.418000221252441,9.812999725341797 -5.241000175476074,2.890000104904175 -5.241000175476074,2.890000104904175 C-5.241000175476074,2.890000104904175 -10.673999786376953,-1.5410000085830688 -10.673999786376953,-1.5410000085830688 C-11.326000213623047,-2.072999954223633 -10.937999725341797,-3.2039999961853027 -10.097999572753906,-3.2260000705718994 C-10.097999572753906,-3.2260000705718994 -3.1549999713897705,-3.4000000953674316 -3.1549999713897705,-3.4000000953674316 C-3.1549999713897705,-3.4000000953674316 -0.6919999718666077,-10.472000122070312 -0.6919999718666077,-10.472000122070312 C-0.39500001072883606,-11.324999809265137 0.7450000047683716,-11.348999977111816 1.0010000467300415,-10.506999969482422z"></path></g><g opacity="1" transform="matrix(1,0,0,1,294.84600830078125,78.1969985961914)"><path fill="rgb(179,156,247)" fill-opacity="1" d=" M1.0399999618530273,-10.612000465393066 C1.0399999618530273,-10.612000465393066 3.187000036239624,-3.5480000972747803 3.187000036239624,-3.5480000972747803 C3.187000036239624,-3.5480000972747803 10.336999893188477,-3.622999906539917 10.336999893188477,-3.622999906539917 C11.210000038146973,-3.632999897003174 11.550999641418457,-2.49399995803833 10.845999717712402,-1.9279999732971191 C10.845999717712402,-1.9279999732971191 4.995999813079834,2.759000062942505 4.995999813079834,2.759000062942505 C4.995999813079834,2.759000062942505 6.870999813079834,9.72599983215332 6.870999813079834,9.72599983215332 C7.10099983215332,10.579000473022461 6.1519999504089355,11.300999641418457 5.452000141143799,10.805999755859375 C5.452000141143799,10.805999755859375 -0.296999990940094,6.747000217437744 -0.296999990940094,6.747000217437744 C-0.296999990940094,6.747000217437744 -6.247000217437744,10.951000213623047 -6.247000217437744,10.951000213623047 C-6.9679999351501465,11.461000442504883 -7.868000030517578,10.765999794006348 -7.593999862670898,9.91100025177002 C-7.593999862670898,9.91100025177002 -5.35699987411499,2.9189999103546143 -5.35699987411499,2.9189999103546143 C-5.35699987411499,2.9189999103546143 -10.88700008392334,-1.5549999475479126 -10.88700008392334,-1.5549999475479126 C-11.550999641418457,-2.0929999351501465 -11.152999877929688,-3.234999895095825 -10.295000076293945,-3.25600004196167 C-10.295000076293945,-3.25600004196167 -3.2149999141693115,-3.434000015258789 -3.2149999141693115,-3.434000015258789 C-3.2149999141693115,-3.434000015258789 -0.6880000233650208,-10.576000213623047 -0.6880000233650208,-10.576000213623047 C-0.38100001215934753,-11.437999725341797 0.7820000052452087,-11.461999893188477 1.0399999618530273,-10.612000465393066z"></path></g><g opacity="1" transform="matrix(1,0,0,1,321.2869873046875,77.76000213623047)"><path fill="rgb(179,156,247)" fill-opacity="1" d=" M1.0809999704360962,-10.718000411987305 C1.0809999704360962,-10.718000411987305 3.253999948501587,-3.5840001106262207 3.253999948501587,-3.5840001106262207 C3.253999948501587,-3.5840001106262207 10.545999526977539,-3.6610000133514404 10.545999526977539,-3.6610000133514404 C11.4350004196167,-3.6700000762939453 11.781999588012695,-2.5199999809265137 11.0600004196167,-1.9490000009536743 C11.0600004196167,-1.9490000009536743 5.081999778747559,2.7869999408721924 5.081999778747559,2.7869999408721924 C5.081999778747559,2.7869999408721924 6.9770002365112305,9.824000358581543 6.9770002365112305,9.824000358581543 C7.210999965667725,10.685999870300293 6.241000175476074,11.413999557495117 5.5269999504089355,10.914999961853027 C5.5269999504089355,10.914999961853027 -0.3269999921321869,6.816999912261963 -0.3269999921321869,6.816999912261963 C-0.3269999921321869,6.816999912261963 -6.406000137329102,11.062999725341797 -6.406000137329102,11.062999725341797 C-7.14300012588501,11.57699966430664 -8.059000015258789,10.875 -7.7769999504089355,10.01200008392334 C-7.7769999504089355,10.01200008392334 -5.479000091552734,2.950000047683716 -5.479000091552734,2.950000047683716 C-5.479000091552734,2.950000047683716 -11.107999801635742,-1.5679999589920044 -11.107999801635742,-1.5679999589920044 C-11.782999992370605,-2.1110000610351562 -11.37600040435791,-3.2639999389648438 -10.49899959564209,-3.2860000133514404 C-10.49899959564209,-3.2860000133514404 -3.2769999504089355,-3.4679999351501465 -3.2769999504089355,-3.4679999351501465 C-3.2769999504089355,-3.4679999351501465 -0.6819999814033508,-10.682000160217285 -0.6819999814033508,-10.682000160217285 C-0.36800000071525574,-11.552000045776367 0.8190000057220459,-11.57699966430664 1.0809999704360962,-10.718000411987305z"></path></g><g opacity="1" transform="matrix(1,0,0,1,348.25799560546875,77.31600189208984)"><path fill="rgb(179,156,247)" fill-opacity="1" d=" M1.125,-10.82699966430664 C1.125,-10.82699966430664 3.3239998817443848,-3.621000051498413 3.3239998817443848,-3.621000051498413 C3.3239998817443848,-3.621000051498413 10.765000343322754,-3.700000047683716 10.765000343322754,-3.700000047683716 C11.673999786376953,-3.7100000381469727 12.020999908447266,-2.5480000972747803 11.28499984741211,-1.9709999561309814 C11.28499984741211,-1.9709999561309814 5.175000190734863,2.813999891281128 5.175000190734863,2.813999891281128 C5.175000190734863,2.813999891281128 7.091000080108643,9.92199993133545 7.091000080108643,9.92199993133545 C7.324999809265137,10.791999816894531 6.335000038146973,11.527000427246094 5.60699987411499,11.02400016784668 C5.60699987411499,11.02400016784668 -0.3540000021457672,6.883999824523926 -0.3540000021457672,6.883999824523926 C-0.3540000021457672,6.883999824523926 -6.565999984741211,11.173999786376953 -6.565999984741211,11.173999786376953 C-7.318999767303467,11.694000244140625 -8.251999855041504,10.986000061035156 -7.9629998207092285,10.11400032043457 C-7.9629998207092285,10.11400032043457 -5.6020002365112305,2.9800000190734863 -5.6020002365112305,2.9800000190734863 C-5.6020002365112305,2.9800000190734863 -11.331000328063965,-1.5829999446868896 -11.331000328063965,-1.5829999446868896 C-12.020999908447266,-2.13100004196167 -11.60200023651123,-3.2960000038146973 -10.706999778747559,-3.318000078201294 C-10.706999778747559,-3.318000078201294 -3.3399999141693115,-3.502000093460083 -3.3399999141693115,-3.502000093460083 C-3.3399999141693115,-3.502000093460083 -0.671999990940094,-10.789999961853027 -0.671999990940094,-10.789999961853027 C-0.35199999809265137,-11.668999671936035 0.8600000143051147,-11.694000244140625 1.125,-10.82699966430664z"></path></g><g opacity="1" transform="matrix(1,0,0,1,313.67999267578125,110.5989990234375)"><path fill="rgb(241,235,255)" fill-opacity="1" d=" M78.41799926757812,3.062999963760376 C78.41799926757812,3.062999963760376 -78.99400329589844,3.5360000133514404 -78.99400329589844,3.5360000133514404 C-80.51799774169922,3.5409998893737793 -81.7239990234375,2.2360000610351562 -81.69000244140625,0.6209999918937683 C-81.69000244140625,0.6209999918937683 -81.68299865722656,0.25999999046325684 -81.68299865722656,0.25999999046325684 C-81.64800262451172,-1.3550000190734863 -80.38700103759766,-2.671999931335449 -78.86199951171875,-2.680000066757202 C-78.86199951171875,-2.680000066757202 78.66500091552734,-3.5309998989105225 78.66500091552734,-3.5309998989105225 C80.38200378417969,-3.5409998893737793 81.7239990234375,-2.1549999713897705 81.65899658203125,-0.43799999356269836 C81.65899658203125,-0.43799999356269836 81.6449966430664,-0.05400000140070915 81.6449966430664,-0.05400000140070915 C81.5790023803711,1.6619999408721924 80.13400268554688,3.058000087738037 78.41799926757812,3.062999963760376z"></path></g><g opacity="1" transform="matrix(1,0,0,1,310.9330139160156,110.61399841308594)"><path fill="rgb(223,211,252)" fill-opacity="1" d=" M75.68699645996094,3.063999891281128 C75.68699645996094,3.063999891281128 -76.24800109863281,3.5209999084472656 -76.24800109863281,3.5209999084472656 C-77.77100372314453,3.5250000953674316 -78.97699737548828,2.2209999561309814 -78.94300079345703,0.6069999933242798 C-78.94300079345703,0.6069999933242798 -78.93599700927734,0.2460000067949295 -78.93599700927734,0.2460000067949295 C-78.9020004272461,-1.3700000047683716 -77.63999938964844,-2.686000108718872 -76.11599731445312,-2.694000005722046 C-76.11599731445312,-2.694000005722046 75.93000030517578,-3.5169999599456787 75.93000030517578,-3.5169999599456787 C77.63999938964844,-3.5260000228881836 78.97699737548828,-2.1440000534057617 78.91500091552734,-0.4300000071525574 C78.91500091552734,-0.4300000071525574 78.89900207519531,-0.04699999839067459 78.89900207519531,-0.04699999839067459 C78.83499908447266,1.6660000085830688 77.39600372314453,3.059000015258789 75.68699645996094,3.063999891281128z"></path></g><g opacity="1" transform="matrix(1,0,0,1,313.0660095214844,131.48399353027344)"><path fill="rgb(241,235,255)" fill-opacity="1" d=" M78.23400115966797,3.4649999141693115 C78.23400115966797,3.4649999141693115 -78.80699920654297,2.7200000286102295 -78.80699920654297,2.7200000286102295 C-80.3270034790039,2.7130000591278076 -81.53099822998047,1.4040000438690186 -81.49700164794922,-0.20399999618530273 C-81.49700164794922,-0.20399999618530273 -81.48899841308594,-0.5630000233650208 -81.48899841308594,-0.5630000233650208 C-81.45500183105469,-2.171999931335449 -80.1969985961914,-3.4730000495910645 -78.67500305175781,-3.4700000286102295 C-78.67500305175781,-3.4700000286102295 78.47899627685547,-3.0999999046325684 78.47899627685547,-3.0999999046325684 C80.19300079345703,-3.0959999561309814 81.53099822998047,-1.7059999704360962 81.46600341796875,0.004000000189989805 C81.46600341796875,0.004000000189989805 81.4530029296875,0.38499999046325684 81.4530029296875,0.38499999046325684 C81.38800048828125,2.0950000286102295 79.94599914550781,3.4730000495910645 78.23400115966797,3.4649999141693115z"></path></g><g opacity="1" transform="matrix(1,0,0,1,312.4549865722656,152.08799743652344)"><path fill="rgb(241,235,255)" fill-opacity="1" d=" M78.052001953125,4.054999828338623 C78.052001953125,4.054999828338623 -78.62100219726562,2.1029999256134033 -78.62100219726562,2.1029999256134033 C-80.13700103759766,2.0840001106262207 -81.33899688720703,0.7710000276565552 -81.30500030517578,-0.8309999704360962 C-81.30500030517578,-0.8309999704360962 -81.2969970703125,-1.1890000104904175 -81.2969970703125,-1.1890000104904175 C-81.26399993896484,-2.7909998893737793 -80.00800323486328,-4.077000141143799 -78.48999786376953,-4.061999797821045 C-78.48999786376953,-4.061999797821045 78.2959976196289,-2.4809999465942383 78.2959976196289,-2.4809999465942383 C80.00499725341797,-2.4639999866485596 81.33999633789062,-1.0700000524520874 81.2760009765625,0.6330000162124634 C81.2760009765625,0.6330000162124634 81.26200103759766,1.0130000114440918 81.26200103759766,1.0130000114440918 C81.197998046875,2.7149999141693115 79.75900268554688,4.076000213623047 78.052001953125,4.054999828338623z"></path></g><g opacity="1" transform="matrix(1,0,0,1,311.84698486328125,172.60499572753906)"><path fill="rgb(241,235,255)" fill-opacity="1" d=" M77.86799621582031,4.640999794006348 C77.86799621582031,4.640999794006348 -78.43599700927734,1.4910000562667847 -78.43599700927734,1.4910000562667847 C-79.9489974975586,1.4609999656677246 -81.14900207519531,0.14300000667572021 -81.11499786376953,-1.4509999752044678 C-81.11499786376953,-1.4509999752044678 -81.10700225830078,-1.8079999685287476 -81.10700225830078,-1.8079999685287476 C-81.072998046875,-3.4030001163482666 -79.81900024414062,-4.675000190734863 -78.30500030517578,-4.6479997634887695 C-78.30500030517578,-4.6479997634887695 78.11199951171875,-1.8669999837875366 78.11199951171875,-1.8669999837875366 C79.81700134277344,-1.8370000123977661 81.14800262451172,-0.43799999356269836 81.08499908447266,1.2569999694824219 C81.08499908447266,1.2569999694824219 81.06999969482422,1.6360000371932983 81.06999969482422,1.6360000371932983 C81.00599670410156,3.3299999237060547 79.5719985961914,4.675000190734863 77.86799621582031,4.640999794006348z"></path></g><g opacity="1" transform="matrix(1,0,0,1,311.24200439453125,193.03500366210938)"><path fill="rgb(241,235,255)" fill-opacity="1" d=" M77.68699645996094,5.2210001945495605 C77.68699645996094,5.2210001945495605 -78.25199890136719,0.8849999904632568 -78.25199890136719,0.8849999904632568 C-79.76200103759766,0.8429999947547913 -80.95800018310547,-0.4779999852180481 -80.92400360107422,-2.066999912261963 C-80.92400360107422,-2.066999912261963 -80.91699981689453,-2.4230000972747803 -80.91699981689453,-2.4230000972747803 C-80.88400268554688,-4.011000156402588 -79.63300323486328,-5.26800012588501 -78.12200164794922,-5.229000091552734 C-78.12200164794922,-5.229000091552734 77.93000030517578,-1.2569999694824219 77.93000030517578,-1.2569999694824219 C79.62999725341797,-1.215000033378601 80.95800018310547,0.1889999955892563 80.8949966430664,1.8760000467300415 C80.8949966430664,1.8760000467300415 80.88099670410156,2.253000020980835 80.88099670410156,2.253000020980835 C80.81800079345703,3.940999984741211 79.38700103759766,5.26800012588501 77.68699645996094,5.2210001945495605z"></path></g><g opacity="1" transform="matrix(1,0,0,1,235.7100067138672,131.1179962158203)"><path fill="rgb(223,211,252)" fill-opacity="1" d=" M1.305999994277954,3.0999999046325684 C1.305999994277954,3.0999999046325684 -1.4509999752044678,3.0869998931884766 -1.4509999752044678,3.0869998931884766 C-2.9709999561309814,3.0789999961853027 -4.173999786376953,1.7699999809265137 -4.140999794006348,0.16200000047683716 C-4.140999794006348,0.16200000047683716 -4.132999897003174,-0.19699999690055847 -4.132999897003174,-0.19699999690055847 C-4.098999977111816,-1.8049999475479126 -2.8399999141693115,-3.1070001125335693 -1.319000005722046,-3.1040000915527344 C-1.319000005722046,-3.1040000915527344 1.4390000104904175,-3.0969998836517334 1.4390000104904175,-3.0969998836517334 C2.9660000801086426,-3.0929999351501465 4.175000190734863,-1.781999945640564 4.139999866485596,-0.1679999977350235 C4.139999866485596,-0.1679999977350235 4.131999969482422,0.19200000166893005 4.131999969482422,0.19200000166893005 C4.0970001220703125,1.805999994277954 2.8310000896453857,3.1070001125335693 1.305999994277954,3.0999999046325684z"></path></g><g opacity="1" transform="matrix(1,0,0,1,211.56900024414062,111.11199951171875)"><path fill="rgb(241,235,255)" fill-opacity="1" d=" M8.864999771118164,3.065000057220459 C8.864999771118164,3.065000057220459 -9.032999992370605,3.11899995803833 -9.032999992370605,3.11899995803833 C-10.609999656677246,3.124000072479248 -11.86299991607666,1.7549999952316284 -11.833000183105469,0.06300000101327896 C-11.803000450134277,-1.63100004196167 -10.50100040435791,-3.010999917984009 -8.92300033569336,-3.0190000534057617 C-8.92300033569336,-3.0190000534057617 8.987000465393066,-3.117000102996826 8.987000465393066,-3.117000102996826 C10.58899974822998,-3.125 11.862000465393066,-1.746000051498413 11.82699966430664,-0.03700000047683716 C11.793000221252441,1.6720000505447388 10.467000007629395,3.059999942779541 8.864999771118164,3.065000057220459z"></path></g><g opacity="1" transform="matrix(1,0,0,1,211.1929931640625,131.0399932861328)"><path fill="rgb(241,235,255)" fill-opacity="1" d=" M8.845999717712402,3.0969998836517334 C8.845999717712402,3.0969998836517334 -9.01200008392334,3.01200008392334 -9.01200008392334,3.01200008392334 C-10.586000442504883,3.005000114440918 -11.836999893188477,1.6330000162124634 -11.807000160217285,-0.05299999937415123 C-11.777000427246094,-1.7389999628067017 -10.47700023651123,-3.1050000190734863 -8.902000427246094,-3.1010000705718994 C-8.902000427246094,-3.1010000705718994 8.967000007629395,-3.059000015258789 8.967000007629395,-3.059000015258789 C10.565999984741211,-3.055000066757202 11.836000442504883,-1.6710000038146973 11.802000045776367,0.03099999949336052 C11.767000198364258,1.7330000400543213 10.444000244140625,3.1040000915527344 8.845999717712402,3.0969998836517334z"></path></g><g opacity="1" transform="matrix(1,0,0,1,210.81900024414062,150.86099243164062)"><path fill="rgb(241,235,255)" fill-opacity="1" d=" M8.826000213623047,3.1530001163482666 C8.826000213623047,3.1530001163482666 -8.991999626159668,2.931999921798706 -8.991999626159668,2.931999921798706 C-10.562999725341797,2.9119999408721924 -11.8100004196167,1.534000039100647 -11.781000137329102,-0.14499999582767487 C-11.75100040435791,-1.8250000476837158 -10.454000473022461,-3.1740000247955322 -8.883000373840332,-3.1579999923706055 C-8.883000373840332,-3.1579999923706055 8.947999954223633,-2.9779999256134033 8.947999954223633,-2.9779999256134033 C10.543000221252441,-2.9619998931884766 11.8100004196167,-1.5750000476837158 11.776000022888184,0.12099999934434891 C11.743000030517578,1.815999984741211 10.420999526977539,3.1730000972747803 8.826000213623047,3.1530001163482666z"></path></g><g opacity="1" transform="matrix(1,0,0,1,210.4459991455078,170.6020050048828)"><path fill="rgb(241,235,255)" fill-opacity="1" d=" M8.807000160217285,3.2090001106262207 C8.807000160217285,3.2090001106262207 -8.972000122070312,2.8510000705718994 -8.972000122070312,2.8510000705718994 C-10.539999961853027,2.819000005722046 -11.78499984741211,1.437999963760376 -11.755000114440918,-0.23399999737739563 C-11.72599983215332,-1.906999945640564 -10.432000160217285,-3.240999937057495 -8.86299991607666,-3.2130000591278076 C-8.86299991607666,-3.2130000591278076 8.928000450134277,-2.8970000743865967 8.928000450134277,-2.8970000743865967 C10.520000457763672,-2.86899995803833 11.78499984741211,-1.4769999980926514 11.75,0.210999995470047 C11.717000007629395,1.8990000486373901 10.39799976348877,3.240999937057495 8.807000160217285,3.2090001106262207z"></path></g><g opacity="1" transform="matrix(1,0,0,1,210.0749969482422,190.26199340820312)"><path fill="rgb(241,235,255)" fill-opacity="1" d=" M8.788000106811523,3.263000011444092 C8.788000106811523,3.263000011444092 -8.95300006866455,2.7699999809265137 -8.95300006866455,2.7699999809265137 C-10.515999794006348,2.7269999980926514 -11.758999824523926,1.340999960899353 -11.729999542236328,-0.3240000009536743 C-11.699999809265137,-1.9900000095367432 -10.409000396728516,-3.309000015258789 -8.843999862670898,-3.2690000534057617 C-8.843999862670898,-3.2690000534057617 8.909000396728516,-2.818000078201294 8.909000396728516,-2.818000078201294 C10.496999740600586,-2.7769999504089355 11.758999824523926,-1.38100004196167 11.725000381469727,0.30000001192092896 C11.690999984741211,1.9809999465942383 10.375,3.308000087738037 8.788000106811523,3.263000011444092z"></path></g><g opacity="1" transform="matrix(1,0,0,1,278.47601318359375,41.07600021362305)"><path fill="rgb(223,211,252)" fill-opacity="1" d=" M10.5,8.052000045776367 C10.5,8.052000045776367 6.626999855041504,8.157999992370605 6.626999855041504,8.157999992370605 C6.626999855041504,8.157999992370605 6.49399995803833,13.215999603271484 6.49399995803833,13.215999603271484 C6.49399995803833,13.215999603271484 1.3619999885559082,13.345999717712402 1.3619999885559082,13.345999717712402 C1.3619999885559082,13.345999717712402 1.4919999837875366,8.298999786376953 1.4919999837875366,8.298999786376953 C1.4919999837875366,8.298999786376953 -10.626999855041504,8.633000373840332 -10.626999855041504,8.633000373840332 C-10.626999855041504,8.633000373840332 -10.588000297546387,7.064000129699707 -10.588000297546387,7.064000129699707 C-10.588000297546387,7.064000129699707 4.170000076293945,-13.239999771118164 4.170000076293945,-13.239999771118164 C4.170000076293945,-13.239999771118164 7.190999984741211,-13.345999717712402 7.190999984741211,-13.345999717712402 C7.190999984741211,-13.345999717712402 6.750999927520752,3.4189999103546143 6.750999927520752,3.4189999103546143 C6.750999927520752,3.4189999103546143 10.626999855041504,3.305999994277954 10.626999855041504,3.305999994277954 C10.626999855041504,3.305999994277954 10.5,8.052000045776367 10.5,8.052000045776367z M1.6130000352859497,3.569000005722046 C1.6130000352859497,3.569000005722046 1.7940000295639038,-3.431999921798706 1.7940000295639038,-3.431999921798706 C1.7940000295639038,-3.431999921798706 -3.3489999771118164,3.7160000801086426 -3.3489999771118164,3.7160000801086426 C-3.3489999771118164,3.7160000801086426 1.6130000352859497,3.569000005722046 1.6130000352859497,3.569000005722046z"></path></g><g opacity="1" transform="matrix(1,0,0,1,295.5740051269531,51.1150016784668)"><path fill="rgb(223,211,252)" fill-opacity="1" d=" M-3.2750000953674316,0.07000000029802322 C-3.2239999771118164,-1.7979999780654907 -1.7079999446868896,-3.2200000286102295 0.04600000008940697,-3.2679998874664307 C1.840000033378601,-3.319000005722046 3.3269999027252197,-1.9769999980926514 3.2750000953674316,-0.10499999672174454 C3.2219998836517334,1.805999994277954 1.659999966621399,3.2269999980926514 -0.13300000131130219,3.2730000019073486 C-1.8860000371932983,3.318000078201294 -3.3259999752044678,1.9759999513626099 -3.2750000953674316,0.07000000029802322z"></path></g><g opacity="1" transform="matrix(1,0,0,1,312.8299865722656,40.124000549316406)"><path fill="rgb(223,211,252)" fill-opacity="1" d=" M9.697999954223633,-1.159999966621399 C9.458999633789062,6.814000129699707 5.564000129699707,13.678999900817871 -1.7109999656677246,13.86400032043457 C-5.0980000495910645,13.949999809265137 -8.387999534606934,12.364999771118164 -9.852999687194824,8.779999732971191 C-9.852999687194824,8.779999732971191 -5.625,6.297999858856201 -5.625,6.297999858856201 C-4.85099983215332,8.071999549865723 -3.3010001182556152,8.927000045776367 -1.6050000190734863,8.880999565124512 C1.6330000162124634,8.791999816894531 4.015999794006348,5.736999988555908 4.336999893188477,1.5479999780654907 C3.0299999713897705,2.8980000019073486 1.1449999809265137,3.8959999084472656 -1.3450000286102295,3.9679999351501465 C-6.585000038146973,4.120999813079834 -9.928000450134277,0.2630000114440918 -9.79699993133545,-4.392000198364258 C-9.654000282287598,-9.503999710083008 -5.769000053405762,-13.527000427246094 -0.003000000026077032,-13.732999801635742 C6.065000057220459,-13.949999809265137 9.928999900817871,-8.817999839782715 9.697999954223633,-1.159999966621399z M4.086999893188477,-4.71999979019165 C4.1570000648498535,-7.103000164031982 2.424999952316284,-8.769000053405762 -0.1080000028014183,-8.723999977111816 C-2.677000045776367,-8.63700008392334 -4.500999927520752,-6.896999835968018 -4.568999767303467,-4.520999908447266 C-4.636000156402588,-2.187999963760376 -2.9489998817443848,-0.5640000104904175 -0.503000020980835,-0.5989999771118164 C2.066999912261963,-0.6779999732971191 3.9800000190734863,-2.378000020980835 4.086999893188477,-4.71999979019165z"></path></g></g><g transform="matrix(1,0,0,1,-1.8690032958984375,4.6721038818359375)" opacity="1" style="display: block;"><g opacity="1" transform="matrix(1,0,0,1,383.7569885253906,210.04800415039062)"><path fill="rgb(255,238,238)" fill-opacity="1" d=" M97.98500061035156,87.5979995727539 C97.98500061035156,87.5979995727539 -106.84100341796875,74.91200256347656 -106.84100341796875,74.91200256347656 C-108.45700073242188,74.81300354003906 -109.73200225830078,73.38999938964844 -109.68900299072266,71.73400115966797 C-109.68900299072266,71.73400115966797 -105.66200256347656,-84.61499786376953 -105.66200256347656,-84.61499786376953 C-105.61900329589844,-86.32599639892578 -104.2490005493164,-87.71399688720703 -102.60299682617188,-87.71399688720703 C-102.60299682617188,-87.71399688720703 106.32499694824219,-87.68099975585938 106.32499694824219,-87.68099975585938 C108.24600219726562,-87.68000030517578 109.73200225830078,-86.17900085449219 109.64299774169922,-84.3270034790039 C109.64299774169922,-84.3270034790039 101.5469970703125,84.57499694824219 101.5469970703125,84.57499694824219 C101.46099853515625,86.36100006103516 99.86599731445312,87.71399688720703 97.98500061035156,87.5979995727539z"></path></g><g opacity="1" transform="matrix(1,0,0,1,305.1780090332031,166.5709991455078)"><path fill="rgb(255,202,48)" fill-opacity="1" d=" M1.0490000247955322,-10.473999977111816 C1.0490000247955322,-10.473999977111816 3.188999891281128,-3.4260001182556152 3.188999891281128,-3.4260001182556152 C3.188999891281128,-3.4260001182556152 10.335000038146973,-3.2639999389648438 10.335000038146973,-3.2639999389648438 C11.206999778747559,-3.24399995803833 11.54699993133545,-2.1089999675750732 10.840999603271484,-1.5740000009536743 C10.840999603271484,-1.5740000009536743 4.989999771118164,2.86299991607666 4.989999771118164,2.86299991607666 C4.989999771118164,2.86299991607666 6.857999801635742,9.805000305175781 6.857999801635742,9.805000305175781 C7.085999965667725,10.654999732971191 6.138000011444092,11.336000442504883 5.439000129699707,10.824000358581543 C5.439000129699707,10.824000358581543 -0.3050000071525574,6.625999927520752 -0.3050000071525574,6.625999927520752 C-0.3050000071525574,6.625999927520752 -6.257999897003174,10.581000328063965 -6.257999897003174,10.581000328063965 C-6.978000164031982,11.060999870300293 -7.875999927520752,10.345000267028809 -7.6020002365112305,9.508999824523926 C-7.6020002365112305,9.508999824523926 -5.359000205993652,2.677000045776367 -5.359000205993652,2.677000045776367 C-5.359000205993652,2.677000045776367 -10.883000373840332,-1.9240000247955322 -10.883000373840332,-1.9240000247955322 C-11.545999526977539,-2.4769999980926514 -11.147000312805176,-3.5899999141693115 -10.288999557495117,-3.5829999446868896 C-10.288999557495117,-3.5829999446868896 -3.2119998931884766,-3.5250000953674316 -3.2119998931884766,-3.5250000953674316 C-3.2119998931884766,-3.5250000953674316 -0.6779999732971191,-10.494999885559082 -0.6779999732971191,-10.494999885559082 C-0.3720000088214874,-11.336000442504883 0.7910000085830688,-11.322999954223633 1.0490000247955322,-10.473999977111816z"></path></g><g opacity="1" transform="matrix(1,0,0,1,331.60699462890625,167.01499938964844)"><path fill="rgb(255,202,48)" fill-opacity="1" d=" M1.0889999866485596,-10.57699966430664 C1.0889999866485596,-10.57699966430664 3.253999948501587,-3.4600000381469727 3.253999948501587,-3.4600000381469727 C3.253999948501587,-3.4600000381469727 10.543000221252441,-3.2950000762939453 10.543000221252441,-3.2950000762939453 C11.432999610900879,-3.2750000953674316 11.777000427246094,-2.128000020980835 11.055999755859375,-1.5870000123977661 C11.055999755859375,-1.5870000123977661 5.076000213623047,2.8919999599456787 5.076000213623047,2.8919999599456787 C5.076000213623047,2.8919999599456787 6.964000225067139,9.902999877929688 6.964000225067139,9.902999877929688 C7.195000171661377,10.76200008392334 6.22599983215332,11.449000358581543 5.513999938964844,10.932999610900879 C5.513999938964844,10.932999610900879 -0.33500000834465027,6.691999912261963 -0.33500000834465027,6.691999912261963 C-0.33500000834465027,6.691999912261963 -6.414000034332275,10.6850004196167 -6.414000034332275,10.6850004196167 C-7.151000022888184,11.168999671936035 -8.065999984741211,10.446000099182129 -7.783999919891357,9.602999687194824 C-7.783999919891357,9.602999687194824 -5.479000091552734,2.7039999961853027 -5.479000091552734,2.7039999961853027 C-5.479000091552734,2.7039999961853027 -11.10099983215332,-1.944000005722046 -11.10099983215332,-1.944000005722046 C-11.777000427246094,-2.503000020980835 -11.368000030517578,-3.628000020980835 -10.491999626159668,-3.621000051498413 C-10.491999626159668,-3.621000051498413 -3.2739999294281006,-3.561000108718872 -3.2739999294281006,-3.561000108718872 C-3.2739999294281006,-3.561000108718872 -0.671999990940094,-10.600000381469727 -0.671999990940094,-10.600000381469727 C-0.3580000102519989,-11.449000358581543 0.828000009059906,-11.434000015258789 1.0889999866485596,-10.57699966430664z"></path></g><g opacity="1" transform="matrix(1,0,0,1,358.5660095214844,167.46800231933594)"><path fill="rgb(255,202,48)" fill-opacity="1" d=" M1.13100004196167,-10.684000015258789 C1.13100004196167,-10.684000015258789 3.322000026702881,-3.49399995803833 3.322000026702881,-3.49399995803833 C3.322000026702881,-3.49399995803833 10.758999824523926,-3.3269999027252197 10.758999824523926,-3.3269999027252197 C11.666999816894531,-3.305999994277954 12.015000343322754,-2.1480000019073486 11.277000427246094,-1.6019999980926514 C11.277000427246094,-1.6019999980926514 5.164999961853027,2.9210000038146973 5.164999961853027,2.9210000038146973 C5.164999961853027,2.9210000038146973 7.072999954223633,10.003999710083008 7.072999954223633,10.003999710083008 C7.308000087738037,10.871000289916992 6.317999839782715,11.5649995803833 5.5920000076293945,11.043000221252441 C5.5920000076293945,11.043000221252441 -0.36399999260902405,6.757999897003174 -0.36399999260902405,6.757999897003174 C-0.36399999260902405,6.757999897003174 -6.576000213623047,10.789999961853027 -6.576000213623047,10.789999961853027 C-7.329999923706055,11.277999877929688 -8.26099967956543,10.54800033569336 -7.9730000495910645,9.696000099182129 C-7.9730000495910645,9.696000099182129 -5.603000164031982,2.7290000915527344 -5.603000164031982,2.7290000915527344 C-5.603000164031982,2.7290000915527344 -11.32699966430664,-1.965999960899353 -11.32699966430664,-1.965999960899353 C-12.015000343322754,-2.5299999713897705 -11.595000267028809,-3.6670000553131104 -10.701000213623047,-3.6600000858306885 C-10.701000213623047,-3.6600000858306885 -3.3380000591278076,-3.5980000495910645 -3.3380000591278076,-3.5980000495910645 C-3.3380000591278076,-3.5980000495910645 -0.6650000214576721,-10.706000328063965 -0.6650000214576721,-10.706000328063965 C-0.34299999475479126,-11.564000129699707 0.8669999837875366,-11.550000190734863 1.13100004196167,-10.684000015258789z"></path></g><g opacity="1" transform="matrix(1,0,0,1,386.0719909667969,167.92999267578125)"><path fill="rgb(255,202,48)" fill-opacity="1" d=" M1.1740000247955322,-10.791999816894531 C1.1740000247955322,-10.791999816894531 3.3929998874664307,-3.5299999713897705 3.3929998874664307,-3.5299999713897705 C3.3929998874664307,-3.5299999713897705 10.980999946594238,-3.3589999675750732 10.980999946594238,-3.3589999675750732 C11.906000137329102,-3.3380000591278076 12.258999824523926,-2.1679999828338623 11.505000114440918,-1.6169999837875366 C11.505000114440918,-1.6169999837875366 5.256999969482422,2.9509999752044678 5.256999969482422,2.9509999752044678 C5.256999969482422,2.9509999752044678 7.186999797821045,10.104000091552734 7.186999797821045,10.104000091552734 C7.422999858856201,10.980999946594238 6.409999847412109,11.682000160217285 5.671000003814697,11.154000282287598 C5.671000003814697,11.154000282287598 -0.39500001072883606,6.824999809265137 -0.39500001072883606,6.824999809265137 C-0.39500001072883606,6.824999809265137 -6.74399995803833,10.895999908447266 -6.74399995803833,10.895999908447266 C-7.513999938964844,11.388999938964844 -8.463000297546387,10.651000022888184 -8.164999961853027,9.791000366210938 C-8.164999961853027,9.791000366210938 -5.730999946594238,2.755000114440918 -5.730999946594238,2.755000114440918 C-5.730999946594238,2.755000114440918 -11.559000015258789,-1.9889999628067017 -11.559000015258789,-1.9889999628067017 C-12.260000228881836,-2.559000015258789 -11.82800006866455,-3.7070000171661377 -10.916999816894531,-3.6989998817443848 C-10.916999816894531,-3.6989998817443848 -3.4030001163482666,-3.634999990463257 -3.4030001163482666,-3.634999990463257 C-3.4030001163482666,-3.634999990463257 -0.6579999923706055,-10.8149995803833 -0.6579999923706055,-10.8149995803833 C-0.3269999921321869,-11.682000160217285 0.906000018119812,-11.666000366210938 1.1740000247955322,-10.791999816894531z"></path></g><g opacity="1" transform="matrix(1,0,0,1,414.1409912109375,168.4010009765625)"><path fill="rgb(255,202,48)" fill-opacity="1" d=" M1.2200000286102295,-10.902999877929688 C1.2200000286102295,-10.902999877929688 3.4649999141693115,-3.565999984741211 3.4649999141693115,-3.565999984741211 C3.4649999141693115,-3.565999984741211 11.210000038146973,-3.3929998874664307 11.210000038146973,-3.3929998874664307 C12.156000137329102,-3.371999979019165 12.51200008392334,-2.188999891281128 11.741000175476074,-1.6319999694824219 C11.741000175476074,-1.6319999694824219 5.3520002365112305,2.9809999465942383 5.3520002365112305,2.9809999465942383 C5.3520002365112305,2.9809999465942383 7.302000045776367,10.208000183105469 7.302000045776367,10.208000183105469 C7.539999961853027,11.093000411987305 6.506999969482422,11.800999641418457 5.754000186920166,11.267999649047852 C5.754000186920166,11.267999649047852 -0.4269999861717224,6.894999980926514 -0.4269999861717224,6.894999980926514 C-0.4269999861717224,6.894999980926514 -6.918000221252441,11.005000114440918 -6.918000221252441,11.005000114440918 C-7.704999923706055,11.503999710083008 -8.670999526977539,10.756999969482422 -8.364999771118164,9.888999938964844 C-8.364999771118164,9.888999938964844 -5.861999988555908,2.7809998989105225 -5.861999988555908,2.7809998989105225 C-5.861999988555908,2.7809998989105225 -11.798999786376953,-2.01200008392334 -11.798999786376953,-2.01200008392334 C-12.51099967956543,-2.5880000591278076 -12.069000244140625,-3.746999979019165 -11.137999534606934,-3.739000082015991 C-11.137999534606934,-3.739000082015991 -3.4700000286102295,-3.6740000247955322 -3.4700000286102295,-3.6740000247955322 C-3.4700000286102295,-3.6740000247955322 -0.6510000228881836,-10.925999641418457 -0.6510000228881836,-10.925999641418457 C-0.3109999895095825,-11.800999641418457 0.9490000009536743,-11.78600025177002 1.2200000286102295,-10.902999877929688z"></path></g><g opacity="1" transform="matrix(1,0,0,1,352.0260009765625,139.97000122070312)"><path fill="rgb(201,184,249)" fill-opacity="1" d=" M54.40999984741211,4.419000148773193 C54.40999984741211,4.419000148773193 -54.94200134277344,3.5290000438690186 -54.94200134277344,3.5290000438690186 C-56.35599899291992,3.5179998874664307 -57.46900177001953,2.3259999752044678 -57.42900085449219,0.8669999837875366 C-57.42900085449219,0.8669999837875366 -57.35599899291992,-1.7920000553131104 -57.35599899291992,-1.7920000553131104 C-57.316001892089844,-3.253000020980835 -56.137001037597656,-4.432000160217285 -54.72100067138672,-4.423999786376953 C-54.72100067138672,-4.423999786376953 54.73400115966797,-3.861999988555908 54.73400115966797,-3.861999988555908 C56.27000045776367,-3.8540000915527344 57.46900177001953,-2.611999988555908 57.40800094604492,-1.0889999866485596 C57.40800094604492,-1.0889999866485596 57.29999923706055,1.6859999895095825 57.29999923706055,1.6859999895095825 C57.23899841308594,3.2079999446868896 55.94499969482422,4.432000160217285 54.40999984741211,4.419000148773193z"></path></g><g opacity="1" transform="matrix(1,0,0,1,380.60400390625,200.45199584960938)"><path fill="rgb(222,179,179)" fill-opacity="1" d=" M84.52999877929688,5.130000114440918 C84.52999877929688,5.130000114440918 -85.10199737548828,0.0989999994635582 -85.10199737548828,0.0989999994635582 C-86.50800323486328,0.05700000002980232 -87.61399841308594,-1.1460000276565552 -87.5739974975586,-2.5899999141693115 C-87.5739974975586,-2.5899999141693115 -87.5739974975586,-2.5929999351501465 -87.5739974975586,-2.5929999351501465 C-87.53399658203125,-4.0370001792907715 -86.36399841308594,-5.177000045776367 -84.95600128173828,-5.138000011444092 C-84.95600128173828,-5.138000011444092 84.78299713134766,-0.43799999356269836 84.78299713134766,-0.43799999356269836 C86.37799835205078,-0.39399999380111694 87.61399841308594,0.8889999985694885 87.54399871826172,2.427999973297119 C87.54399871826172,2.427999973297119 87.54299926757812,2.430999994277954 87.54299926757812,2.430999994277954 C87.47200012207031,3.9690001010894775 86.1240005493164,5.177000045776367 84.52999877929688,5.130000114440918z"></path></g><g opacity="1" transform="matrix(1,0,0,1,379.9599914550781,217.91099548339844)"><path fill="rgb(255,223,223)" fill-opacity="1" d=" M84.35800170898438,5.6539998054504395 C84.35800170898438,5.6539998054504395 -84.9260025024414,-0.44699999690055847 -84.9260025024414,-0.44699999690055847 C-86.3290023803711,-0.4970000088214874 -87.43499755859375,-1.7039999961853027 -87.39600372314453,-3.1429998874664307 C-87.39600372314453,-3.1429998874664307 -87.3949966430664,-3.1449999809265137 -87.3949966430664,-3.1449999809265137 C-87.35600280761719,-4.584000110626221 -86.18499755859375,-5.7129998207092285 -84.78099822998047,-5.664999961853027 C-84.78099822998047,-5.664999961853027 84.60900115966797,0.10700000077486038 84.60900115966797,0.10700000077486038 C86.19999694824219,0.16200000047683716 87.43499755859375,1.4479999542236328 87.36599731445312,2.9800000190734863 C87.36599731445312,2.9800000190734863 87.36499786376953,2.9839999675750732 87.36499786376953,2.9839999675750732 C87.2959976196289,4.515999794006348 85.947998046875,5.711999893188477 84.35800170898438,5.6539998054504395z"></path></g><g opacity="1" transform="matrix(1,0,0,1,379.3179931640625,235.30599975585938)"><path fill="rgb(255,223,223)" fill-opacity="1" d=" M84.18599700927734,6.177000045776367 C84.18599700927734,6.177000045776367 -84.75299835205078,-0.9869999885559082 -84.75299835205078,-0.9869999885559082 C-86.15399932861328,-1.0470000505447388 -87.25499725341797,-2.256999969482422 -87.21600341796875,-3.690000057220459 C-87.21600341796875,-3.690000057220459 -87.21600341796875,-3.693000078201294 -87.21600341796875,-3.693000078201294 C-87.1760025024414,-5.126999855041504 -86.00900268554688,-6.24399995803833 -84.60800170898438,-6.186999797821045 C-84.60800170898438,-6.186999797821045 84.43599700927734,0.6499999761581421 84.43599700927734,0.6499999761581421 C86.02400207519531,0.7139999866485596 87.25499725341797,2.005000114440918 87.18599700927734,3.5309998989105225 C87.18599700927734,3.5309998989105225 87.18599700927734,3.5350000858306885 87.18599700927734,3.5350000858306885 C87.11599731445312,5.061999797821045 85.77300262451172,6.24399995803833 84.18599700927734,6.177000045776367z"></path></g><g opacity="1" transform="matrix(1,0,0,1,378.6780090332031,252.63800048828125)"><path fill="rgb(255,223,223)" fill-opacity="1" d=" M84.01499938964844,6.693999767303467 C84.01499938964844,6.693999767303467 -84.5790023803711,-1.524999976158142 -84.5790023803711,-1.524999976158142 C-85.97699737548828,-1.593000054359436 -87.0780029296875,-2.805999994277954 -87.03900146484375,-4.235000133514404 C-87.03900146484375,-4.235000133514404 -87.03900146484375,-4.23799991607666 -87.03900146484375,-4.23799991607666 C-86.9990005493164,-5.665999889373779 -85.83399963378906,-6.771999835968018 -84.43499755859375,-6.705999851226807 C-84.43499755859375,-6.705999851226807 84.26499938964844,1.187999963760376 84.26499938964844,1.187999963760376 C85.8489990234375,1.2619999647140503 87.0780029296875,2.555999994277954 87.00900268554688,4.078000068664551 C87.00900268554688,4.078000068664551 87.00900268554688,4.080999851226807 87.00900268554688,4.080999851226807 C86.94000244140625,5.60099983215332 85.5979995727539,6.771999835968018 84.01499938964844,6.693999767303467z"></path></g><g opacity="1" transform="matrix(1,0,0,1,378.0419921875,269.9070129394531)"><path fill="rgb(255,223,223)" fill-opacity="1" d=" M83.84400177001953,7.209000110626221 C83.84400177001953,7.209000110626221 -84.40799713134766,-2.059000015258789 -84.40799713134766,-2.059000015258789 C-85.8030014038086,-2.134999990463257 -86.9010009765625,-3.3510000705718994 -86.86199951171875,-4.7729997634887695 C-86.86199951171875,-4.7729997634887695 -86.86199951171875,-4.7769999504089355 -86.86199951171875,-4.7769999504089355 C-86.8219985961914,-6.201000213623047 -85.66000366210938,-7.296000003814697 -84.26300048828125,-7.2220001220703125 C-84.26300048828125,-7.2220001220703125 84.09200286865234,1.7230000495910645 84.09200286865234,1.7230000495910645 C85.6729965209961,1.8070000410079956 86.9010009765625,3.1050000190734863 86.83100128173828,4.619999885559082 C86.83100128173828,4.619999885559082 86.83100128173828,4.623000144958496 86.83100128173828,4.623000144958496 C86.76200103759766,6.138999938964844 85.42400360107422,7.296000003814697 83.84400177001953,7.209000110626221z"></path></g><g opacity="1" transform="matrix(1,0,0,1,449.0469970703125,140.4759979248047)"><path fill="rgb(197,153,153)" fill-opacity="1" d=" M5.031000137329102,2.009000062942505 C4.9019999504089355,4.934000015258789 2.4000000953674316,6.676000118255615 -0.3880000114440918,6.651000022888184 C-2.374000072479248,6.632999897003174 -4.3520002365112305,5.515999794006348 -5.142000198364258,3.930999994277954 C-5.142000198364258,3.930999994277954 -2.999000072479248,2.5899999141693115 -2.999000072479248,2.5899999141693115 C-2.5880000591278076,3.513000011444092 -1.4490000009536743,4.202000141143799 -0.4059999883174896,4.210999965667725 C1.1330000162124634,4.2230000495910645 2.239000082015991,3.309999942779541 2.2980000972747803,1.968000054359436 C2.3529999256134033,0.6869999766349792 1.3680000305175781,-0.2409999966621399 -0.0689999982714653,-0.25099998712539673 C-1.1150000095367432,-0.257999986410141 -2.2190001010894775,0.2160000056028366 -3.069000005722046,0.9100000262260437 C-3.069000005722046,0.9100000262260437 -4.620999813079834,-0.08100000023841858 -4.620999813079834,-0.08100000023841858 C-4.620999813079834,-0.08100000023841858 -3.1519999504089355,-6.676000118255615 -3.1519999504089355,-6.676000118255615 C-3.1519999504089355,-6.676000118255615 4.482999801635742,-6.64300012588501 4.482999801635742,-6.64300012588501 C4.482999801635742,-6.64300012588501 4.375999927520752,-4.195000171661377 4.375999927520752,-4.195000171661377 C4.375999927520752,-4.195000171661377 -1.0440000295639038,-4.2220001220703125 -1.0440000295639038,-4.2220001220703125 C-1.0440000295639038,-4.2220001220703125 -1.6649999618530273,-1.7020000219345093 -1.6649999618530273,-1.7020000219345093 C-1.031000018119812,-2.1389999389648438 -0.1379999965429306,-2.4140000343322754 0.8050000071525574,-2.4079999923706055 C3.4130001068115234,-2.3940000534057617 5.142000198364258,-0.5180000066757202 5.031000137329102,2.009000062942505z"></path></g><g opacity="1" transform="matrix(1,0,0,1,457.5429992675781,145.59100341796875)"><path fill="rgb(197,153,153)" fill-opacity="1" d=" M-1.7309999465942383,-0.026000000536441803 C-1.690999984741211,-0.9480000138282776 -0.8769999742507935,-1.6230000257492065 0.04899999871850014,-1.6160000562667847 C0.9980000257492065,-1.6080000400543213 1.7730000019073486,-0.9200000166893005 1.7319999933242798,0.003000000026077032 C1.690000057220459,0.9470000267028809 0.8550000190734863,1.6230000257492065 -0.09300000220537186,1.6150000095367432 C-1.0199999809265137,1.6059999465942383 -1.7730000019073486,0.9160000085830688 -1.7309999465942383,-0.026000000536441803z"></path></g><g opacity="1" transform="matrix(1,0,0,1,466.47198486328125,140.51499938964844)"><path fill="rgb(197,153,153)" fill-opacity="1" d=" M-5.047999858856201,-0.00800000037997961 C-4.877999782562256,-3.809000015258789 -3.6470000743865967,-6.803999900817871 0.3160000145435333,-6.7870001792907715 C4.269999980926514,-6.770999908447266 5.215000152587891,-3.75600004196167 5.040999889373779,0.057999998331069946 C4.86899995803833,3.811000108718872 3.6500000953674316,6.803999900817871 -0.296999990940094,6.769000053405762 C-4.252999782562256,6.732999801635742 -5.215000152587891,3.7309999465942383 -5.047999858856201,-0.00800000037997961z M2.2720000743865967,0.03999999910593033 C2.382999897003174,-2.4000000953674316 1.9509999752044678,-4.317999839782715 0.20499999821186066,-4.327000141143799 C-1.559999942779541,-4.335999965667725 -2.184999942779541,-2.4260001182556152 -2.2939999103546143,0.009999999776482582 C-2.4019999504089355,2.4040000438690186 -1.9490000009536743,4.300000190734863 -0.18700000643730164,4.314000129699707 C1.5579999685287476,4.328999996185303 2.1640000343322754,2.437999963760376 2.2720000743865967,0.03999999910593033z"></path></g></g><g transform="matrix(1,0,0,1,-2.6829986572265625,18.870223999023438)" opacity="1" style="display: block;"><g opacity="1" transform="matrix(1,0,0,1,105.0260009765625,169.23699951171875)"><path fill="rgb(241,235,255)" fill-opacity="1" d=" M91.68399810791016,88.99700164794922 C91.68399810791016,88.99700164794922 -95.13500213623047,79.04199981689453 -95.13500213623047,79.04199981689453 C-96.60700225830078,78.96399688720703 -97.802001953125,77.53800201416016 -97.80500030517578,75.85700225830078 C-97.80500030517578,75.85700225830078 -98.05899810791016,-82.76899719238281 -98.05899810791016,-82.76899719238281 C-98.06199645996094,-84.50700378417969 -96.85199737548828,-85.93499755859375 -95.3550033569336,-85.95899963378906 C-95.3550033569336,-85.95899963378906 94.9209976196289,-89.06099700927734 94.9209976196289,-89.06099700927734 C96.66999816894531,-89.08899688720703 98.06199645996094,-87.58599853515625 98.0270004272461,-85.7040023803711 C98.0270004272461,-85.7040023803711 94.85199737548828,85.8759994506836 94.85199737548828,85.8759994506836 C94.81900024414062,87.69200134277344 93.39900207519531,89.08799743652344 91.68399810791016,88.99700164794922z"></path></g><g opacity="1" transform="matrix(1,0,0,1,56.71099853515625,114.58899688720703)"><path fill="rgb(179,156,247)" fill-opacity="1" d=" M0.7049999833106995,-9.571999549865723 C0.7049999833106995,-9.571999549865723 2.625,-3.1449999809265137 2.625,-3.1449999809265137 C2.625,-3.1449999809265137 8.553000450134277,-3.122999906539917 8.553000450134277,-3.122999906539917 C9.276000022888184,-3.121000051498413 9.581000328063965,-2.0850000381469727 9.006999969482422,-1.5820000171661377 C9.006999969482422,-1.5820000171661377 4.248000144958496,2.5920000076293945 4.248000144958496,2.5920000076293945 C4.248000144958496,2.5920000076293945 5.939000129699707,8.928000450134277 5.939000129699707,8.928000450134277 C6.145999908447266,9.704000473022461 5.374000072479248,10.345999717712402 4.783999919891357,9.888999938964844 C4.783999919891357,9.888999938964844 -0.06599999964237213,6.140999794006348 -0.06599999964237213,6.140999794006348 C-0.06599999964237213,6.140999794006348 -4.921999931335449,9.878999710083008 -4.921999931335449,9.878999710083008 C-5.51200008392334,10.331999778747559 -6.271999835968018,9.692000389099121 -6.061999797821045,8.920000076293945 C-6.061999797821045,8.920000076293945 -4.340000152587891,2.6089999675750732 -4.340000152587891,2.6089999675750732 C-4.340000152587891,2.6089999675750732 -9.019000053405762,-1.5149999856948853 -9.019000053405762,-1.5149999856948853 C-9.581000328063965,-2.010999917984009 -9.27299976348877,-3.0409998893737793 -8.5600004196167,-3.049999952316284 C-8.5600004196167,-3.049999952316284 -2.687000036239624,-3.121999979019165 -2.687000036239624,-3.121999979019165 C-2.687000036239624,-3.121999979019165 -0.7269999980926514,-9.562000274658203 -0.7269999980926514,-9.562000274658203 C-0.4909999966621399,-10.33899974822998 0.4740000069141388,-10.345999717712402 0.7049999833106995,-9.571999549865723z"></path></g><g opacity="1" transform="matrix(1,0,0,1,78.62200164794922,114.52200317382812)"><path fill="rgb(179,156,247)" fill-opacity="1" d=" M0.734000027179718,-9.659000396728516 C0.734000027179718,-9.659000396728516 2.6740000247955322,-3.1740000247955322 2.6740000247955322,-3.1740000247955322 C2.6740000247955322,-3.1740000247955322 8.710000038146973,-3.1519999504089355 8.710000038146973,-3.1519999504089355 C9.446999549865723,-3.1500000953674316 9.755000114440918,-2.1050000190734863 9.170000076293945,-1.5959999561309814 C9.170000076293945,-1.5959999561309814 4.314000129699707,2.615000009536743 4.314000129699707,2.615000009536743 C4.314000129699707,2.615000009536743 6.021999835968018,9.008999824523926 6.021999835968018,9.008999824523926 C6.230999946594238,9.791999816894531 5.442999839782715,10.4399995803833 4.8429999351501465,9.979000091552734 C4.8429999351501465,9.979000091552734 -0.08699999749660492,6.197000026702881 -0.08699999749660492,6.197000026702881 C-0.08699999749660492,6.197000026702881 -5.039000034332275,9.968000411987305 -5.039000034332275,9.968000411987305 C-5.639999866485596,10.425999641418457 -6.413000106811523,9.779000282287598 -6.197000026702881,9.00100040435791 C-6.197000026702881,9.00100040435791 -4.431000232696533,2.632999897003174 -4.431000232696533,2.632999897003174 C-4.431000232696533,2.632999897003174 -9.184000015258789,-1.5290000438690186 -9.184000015258789,-1.5290000438690186 C-9.755000114440918,-2.0290000438690186 -9.4399995803833,-3.068000078201294 -8.71399974822998,-3.0769999027252197 C-8.71399974822998,-3.0769999027252197 -2.7339999675750732,-3.1500000953674316 -2.7339999675750732,-3.1500000953674316 C-2.7339999675750732,-3.1500000953674316 -0.7239999771118164,-9.64900016784668 -0.7239999771118164,-9.64900016784668 C-0.4819999933242798,-10.432999610900879 0.5,-10.4399995803833 0.734000027179718,-9.659000396728516z"></path></g><g opacity="1" transform="matrix(1,0,0,1,100.93299865722656,114.45500183105469)"><path fill="rgb(179,156,247)" fill-opacity="1" d=" M0.7649999856948853,-9.748000144958496 C0.7649999856948853,-9.748000144958496 2.7260000705718994,-3.203000068664551 2.7260000705718994,-3.203000068664551 C2.7260000705718994,-3.203000068664551 8.871999740600586,-3.181999921798706 8.871999740600586,-3.181999921798706 C9.621999740600586,-3.178999900817871 9.9350004196167,-2.122999906539917 9.336999893188477,-1.6109999418258667 C9.336999893188477,-1.6109999418258667 4.382999897003174,2.640000104904175 4.382999897003174,2.640000104904175 C4.382999897003174,2.640000104904175 6.10699987411499,9.092000007629395 6.10699987411499,9.092000007629395 C6.317999839782715,9.881999969482422 5.514999866485596,10.53600025177002 4.90500020980835,10.071000099182129 C4.90500020980835,10.071000099182129 -0.10700000077486038,6.254000186920166 -0.10700000077486038,6.254000186920166 C-0.10700000077486038,6.254000186920166 -5.159999847412109,10.0600004196167 -5.159999847412109,10.0600004196167 C-5.7729997634887695,10.522000312805176 -6.558000087738037,9.869999885559082 -6.335999965667725,9.083999633789062 C-6.335999965667725,9.083999633789062 -4.5229997634887695,2.6570000648498535 -4.5229997634887695,2.6570000648498535 C-4.5229997634887695,2.6570000648498535 -9.354000091552734,-1.5420000553131104 -9.354000091552734,-1.5420000553131104 C-9.9350004196167,-2.0460000038146973 -9.611000061035156,-3.0959999561309814 -8.871999740600586,-3.1050000190734863 C-8.871999740600586,-3.1050000190734863 -2.7809998989105225,-3.178999900817871 -2.7809998989105225,-3.178999900817871 C-2.7809998989105225,-3.178999900817871 -0.7210000157356262,-9.73799991607666 -0.7210000157356262,-9.73799991607666 C-0.47200000286102295,-10.529000282287598 0.5289999842643738,-10.53600025177002 0.7649999856948853,-9.748000144958496z"></path></g><g opacity="1" transform="matrix(1,0,0,1,123.65599822998047,114.38600158691406)"><path fill="rgb(179,156,247)" fill-opacity="1" d=" M0.7960000038146973,-9.838000297546387 C0.7960000038146973,-9.838000297546387 2.7769999504089355,-3.2320001125335693 2.7769999504089355,-3.2320001125335693 C2.7769999504089355,-3.2320001125335693 9.038999557495117,-3.2100000381469727 9.038999557495117,-3.2100000381469727 C9.803000450134277,-3.2079999446868896 10.118000030517578,-2.1429998874664307 9.508000373840332,-1.6260000467300415 C9.508000373840332,-1.6260000467300415 4.452000141143799,2.6630001068115234 4.452000141143799,2.6630001068115234 C4.452000141143799,2.6630001068115234 6.193999767303467,9.175000190734863 6.193999767303467,9.175000190734863 C6.4070000648498535,9.972999572753906 5.586999893188477,10.631999969482422 4.966000080108643,10.163000106811523 C4.966000080108643,10.163000106811523 -0.1289999932050705,6.310999870300293 -0.1289999932050705,6.310999870300293 C-0.1289999932050705,6.310999870300293 -5.283999919891357,10.152000427246094 -5.283999919891357,10.152000427246094 C-5.908999919891357,10.618000030517578 -6.706999778747559,9.960000038146973 -6.479000091552734,9.166999816894531 C-6.479000091552734,9.166999816894531 -4.618000030517578,2.683000087738037 -4.618000030517578,2.683000087738037 C-4.618000030517578,2.683000087738037 -9.529000282287598,-1.5570000410079956 -9.529000282287598,-1.5570000410079956 C-10.119000434875488,-2.065999984741211 -9.786999702453613,-3.122999906539917 -9.03499984741211,-3.131999969482422 C-9.03499984741211,-3.131999969482422 -2.8310000896453857,-3.2079999446868896 -2.8310000896453857,-3.2079999446868896 C-2.8310000896453857,-3.2079999446868896 -0.7170000076293945,-9.826000213623047 -0.7170000076293945,-9.826000213623047 C-0.460999995470047,-10.625 0.5569999814033508,-10.633000373840332 0.7960000038146973,-9.838000297546387z"></path></g><g opacity="1" transform="matrix(1,0,0,1,146.802001953125,114.31500244140625)"><path fill="rgb(179,156,247)" fill-opacity="1" d=" M0.828000009059906,-9.930000305175781 C0.828000009059906,-9.930000305175781 2.8320000171661377,-3.26200008392334 2.8320000171661377,-3.26200008392334 C2.8320000171661377,-3.26200008392334 9.211000442504883,-3.242000102996826 9.211000442504883,-3.242000102996826 C9.989999771118164,-3.239000082015991 10.307999610900879,-2.1640000343322754 9.6850004196167,-1.6410000324249268 C9.6850004196167,-1.6410000324249268 4.525000095367432,2.687999963760376 4.525000095367432,2.687999963760376 C4.525000095367432,2.687999963760376 6.283999919891357,9.260000228881836 6.283999919891357,9.260000228881836 C6.5,10.065999984741211 5.6620001792907715,10.730999946594238 5.0320000648498535,10.256999969482422 C5.0320000648498535,10.256999969482422 -0.1509999930858612,6.369999885559082 -0.1509999930858612,6.369999885559082 C-0.1509999930858612,6.369999885559082 -5.409999847412109,10.246999740600586 -5.409999847412109,10.246999740600586 C-6.047999858856201,10.715999603271484 -6.860000133514404,10.052000045776367 -6.625999927520752,9.251999855041504 C-6.625999927520752,9.251999855041504 -4.715000152587891,2.7060000896453857 -4.715000152587891,2.7060000896453857 C-4.715000152587891,2.7060000896453857 -9.708000183105469,-1.5709999799728394 -9.708000183105469,-1.5709999799728394 C-10.307999610900879,-2.0850000381469727 -9.967000007629395,-3.1530001163482666 -9.199999809265137,-3.1619999408721924 C-9.199999809265137,-3.1619999408721924 -2.881999969482422,-3.23799991607666 -2.881999969482422,-3.23799991607666 C-2.881999969482422,-3.23799991607666 -0.7129999995231628,-9.918999671936035 -0.7129999995231628,-9.918999671936035 C-0.45100000500679016,-10.725000381469727 0.5870000123977661,-10.732000350952148 0.828000009059906,-9.930000305175781z"></path></g><g opacity="1" transform="matrix(1,0,0,1,117.53299713134766,144.7830047607422)"><path fill="rgb(201,184,249)" fill-opacity="1" d=" M67.4729995727539,3.572999954223633 C67.4729995727539,3.572999954223633 -67.83799743652344,2.1679999828338623 -67.83799743652344,2.1679999828338623 C-69.15299987792969,2.1549999713897705 -70.21499633789062,0.9340000152587891 -70.21199798583984,-0.5590000152587891 C-70.21199798583984,-0.5590000152587891 -70.21099853515625,-0.8930000066757202 -70.21099853515625,-0.8930000066757202 C-70.20700073242188,-2.385999917984009 -69.13800048828125,-3.5889999866485596 -67.8219985961914,-3.578000068664551 C-67.8219985961914,-3.578000068664551 67.57499694824219,-2.494999885559082 67.57499694824219,-2.494999885559082 C69.04499816894531,-2.4830000400543213 70.21499633789062,-1.1920000314712524 70.18800354003906,0.3880000114440918 C70.18800354003906,0.3880000114440918 70.18199920654297,0.7409999966621399 70.18199920654297,0.7409999966621399 C70.15599822998047,2.321000099182129 68.94200134277344,3.5889999866485596 67.4729995727539,3.572999954223633z"></path></g><g opacity="1" transform="matrix(1,0,0,1,117.34200286865234,163.86900329589844)"><path fill="rgb(223,211,252)" fill-opacity="1" d=" M67.33599853515625,4.079999923706055 C67.33599853515625,4.079999923706055 -67.69999694824219,1.6390000581741333 -67.69999694824219,1.6390000581741333 C-69.01200103759766,1.6150000095367432 -70.0719985961914,0.39100000262260437 -70.06800079345703,-1.0959999561309814 C-70.06800079345703,-1.0959999561309814 -70.06800079345703,-1.4279999732971191 -70.06800079345703,-1.4279999732971191 C-70.06400299072266,-2.9159998893737793 -68.99700164794922,-4.10699987411499 -67.68399810791016,-4.085999965667725 C-67.68399810791016,-4.085999965667725 67.43800354003906,-1.9639999866485596 67.43800354003906,-1.9639999866485596 C68.90399932861328,-1.940999984741211 70.0719985961914,-0.6460000276565552 70.04499816894531,0.9279999732971191 C70.04499816894531,0.9279999732971191 70.04000091552734,1.281000018119812 70.04000091552734,1.281000018119812 C70.01300048828125,2.8540000915527344 68.802001953125,4.105999946594238 67.33599853515625,4.079999923706055z"></path></g><g opacity="1" transform="matrix(1,0,0,1,117.1520004272461,182.8820037841797)"><path fill="rgb(223,211,252)" fill-opacity="1" d=" M67.1989974975586,4.581999778747559 C67.1989974975586,4.581999778747559 -67.56099700927734,1.1130000352859497 -67.56099700927734,1.1130000352859497 C-68.87100219726562,1.0800000429153442 -69.9280014038086,-0.14900000393390656 -69.92500305175781,-1.63100004196167 C-69.92500305175781,-1.63100004196167 -69.92400360107422,-1.9620000123977661 -69.92400360107422,-1.9620000123977661 C-69.91999816894531,-3.444000005722046 -68.8550033569336,-4.620999813079834 -67.54399871826172,-4.590000152587891 C-67.54399871826172,-4.590000152587891 67.29900360107422,-1.437000036239624 67.29900360107422,-1.437000036239624 C68.76200103759766,-1.402999997138977 69.9280014038086,-0.10300000011920929 69.9020004272461,1.4639999866485596 C69.9020004272461,1.4639999866485596 69.89600372314453,1.812999963760376 69.89600372314453,1.812999963760376 C69.86900329589844,3.380000114440918 68.66100311279297,4.619999885559082 67.1989974975586,4.581999778747559z"></path></g><g opacity="1" transform="matrix(1,0,0,1,52.04199981689453,162.69000244140625)"><path fill="rgb(201,184,249)" fill-opacity="1" d=" M2.2190001010894775,2.9010000228881836 C2.2190001010894775,2.9010000228881836 -2.253000020980835,2.819999933242798 -2.253000020980835,2.819999933242798 C-3.6470000743865967,2.7950000762939453 -4.771999835968018,1.496000051498413 -4.76800012588501,-0.08299999684095383 C-4.763999938964844,-1.6619999408721924 -3.631999969482422,-2.927000045776367 -2.236999988555908,-2.9049999713897705 C-2.236999988555908,-2.9049999713897705 2.23799991607666,-2.8329999446868896 2.23799991607666,-2.8329999446868896 C3.6389999389648438,-2.811000108718872 4.771999835968018,-1.5089999437332153 4.767000198364258,0.07699999958276749 C4.761000156402588,1.6619999408721924 3.619999885559082,2.9260001182556152 2.2190001010894775,2.9010000228881836z"></path></g><g opacity="1" transform="matrix(1,0,0,1,116.96199798583984,201.82000732421875)"><path fill="rgb(223,211,252)" fill-opacity="1" d=" M67.06199645996094,5.080999851226807 C67.06199645996094,5.080999851226807 -67.4229965209961,0.5910000205039978 -67.4229965209961,0.5910000205039978 C-68.7300033569336,0.5479999780654907 -69.78700256347656,-0.6840000152587891 -69.78299713134766,-2.1600000858306885 C-69.78299713134766,-2.1600000858306885 -69.78099822998047,-2.489000082015991 -69.78099822998047,-2.489000082015991 C-69.7770004272461,-3.9660000801086426 -68.71399688720703,-5.130000114440918 -67.40599822998047,-5.090000152587891 C-67.40599822998047,-5.090000152587891 67.16300201416016,-0.9139999747276306 67.16300201416016,-0.9139999747276306 C68.62300109863281,-0.8679999709129333 69.78600311279297,0.4350000023841858 69.75900268554688,1.9950000047683716 C69.75900268554688,1.9950000047683716 69.75299835205078,2.3440001010894775 69.75299835205078,2.3440001010894775 C69.72699737548828,3.9049999713897705 68.52100372314453,5.130000114440918 67.06199645996094,5.080999851226807z"></path></g><g opacity="1" transform="matrix(1,0,0,1,116.77400207519531,220.68299865722656)"><path fill="rgb(223,211,252)" fill-opacity="1" d=" M66.9260025024414,5.576000213623047 C66.9260025024414,5.576000213623047 -67.28500366210938,0.0729999989271164 -67.28500366210938,0.0729999989271164 C-68.59100341796875,0.019999999552965164 -69.64399719238281,-1.215000033378601 -69.64099884033203,-2.684999942779541 C-69.64099884033203,-2.684999942779541 -69.63999938964844,-3.0139999389648438 -69.63999938964844,-3.0139999389648438 C-69.63600158691406,-4.485000133514404 -68.57499694824219,-5.636000156402588 -67.26899719238281,-5.585999965667725 C-67.26899719238281,-5.585999965667725 67.0260009765625,-0.39500001072883606 67.0260009765625,-0.39500001072883606 C68.48300170898438,-0.33899998664855957 69.64399719238281,0.9679999947547913 69.61799621582031,2.5230000019073486 C69.61799621582031,2.5230000019073486 69.61199951171875,2.869999885559082 69.61199951171875,2.869999885559082 C69.58499908447266,4.425000190734863 68.38200378417969,5.636000156402588 66.9260025024414,5.576000213623047z"></path></g><g opacity="1" transform="matrix(1,0,0,1,50.685001373291016,217.9770050048828)"><path fill="rgb(201,184,249)" fill-opacity="1" d=" M1.1699999570846558,2.875999927520752 C1.1699999570846558,2.875999927520752 -1.1970000267028809,2.7790000438690186 -1.1970000267028809,2.7790000438690186 C-2.502000093460083,2.7269999980926514 -3.555999994277954,1.4910000562667847 -3.552999973297119,0.023000000044703484 C-3.552999973297119,0.023000000044703484 -3.552000045776367,-0.3089999854564667 -3.552000045776367,-0.3089999854564667 C-3.5480000972747803,-1.7790000438690186 -2.486999988555908,-2.930000066757202 -1.180999994277954,-2.880000114440918 C-1.180999994277954,-2.880000114440918 1.187000036239624,-2.7880001068115234 1.187000036239624,-2.7880001068115234 C2.496999979019165,-2.736999988555908 3.555999994277954,-1.5 3.5510001182556152,-0.02500000037252903 C3.5510001182556152,-0.02500000037252903 3.549999952316284,0.3050000071525574 3.549999952316284,0.3050000071525574 C3.5450000762939453,1.7790000438690186 2.4790000915527344,2.930000066757202 1.1699999570846558,2.875999927520752z"></path></g><g opacity="1" transform="matrix(1,0,0,1,29.67099952697754,143.9040069580078)"><path fill="rgb(223,211,252)" fill-opacity="1" d=" M7.714000225067139,2.9179999828338623 C7.714000225067139,2.9179999828338623 -7.757999897003174,2.756999969482422 -7.757999897003174,2.756999969482422 C-9.121999740600586,2.743000030517578 -10.227999687194824,1.4620000123977661 -10.229000091552734,-0.10400000214576721 C-10.229000091552734,-1.6720000505447388 -9.123000144958496,-2.934000015258789 -7.757999897003174,-2.9230000972747803 C-7.757999897003174,-2.9230000972747803 7.7230000495910645,-2.7990000247955322 7.7230000495910645,-2.7990000247955322 C9.107999801635742,-2.7880001068115234 10.227999687194824,-1.496999979019165 10.225000381469727,0.08399999886751175 C10.222000122070312,1.6640000343322754 9.097999572753906,2.933000087738037 7.714000225067139,2.9179999828338623z"></path></g><g opacity="1" transform="matrix(1,0,0,1,29.658000946044922,162.31900024414062)"><path fill="rgb(223,211,252)" fill-opacity="1" d=" M7.698999881744385,2.9670000076293945 C7.698999881744385,2.9670000076293945 -7.743000030517578,2.687999963760376 -7.743000030517578,2.687999963760376 C-9.104999542236328,2.6630001068115234 -10.208000183105469,1.378000020980835 -10.208999633789062,-0.18199999630451202 C-10.208999633789062,-1.74399995803833 -9.105999946594238,-2.992000102996826 -7.74399995803833,-2.9709999561309814 C-7.74399995803833,-2.9709999561309814 7.708000183105469,-2.7279999256134033 7.708000183105469,-2.7279999256134033 C9.09000015258789,-2.7070000171661377 10.208999633789062,-1.4119999408721924 10.206000328063965,0.16200000047683716 C10.20300006866455,1.7369999885559082 9.079999923706055,2.992000102996826 7.698999881744385,2.9670000076293945z"></path></g><g opacity="1" transform="matrix(1,0,0,1,29.643999099731445,180.66400146484375)"><path fill="rgb(223,211,252)" fill-opacity="1" d=" M7.684999942779541,3.015000104904175 C7.684999942779541,3.015000104904175 -7.728000164031982,2.61899995803833 -7.728000164031982,2.61899995803833 C-9.086999893188477,2.5829999446868896 -10.189000129699707,1.2949999570846558 -10.189000129699707,-0.25999999046325684 C-10.1899995803833,-1.815999984741211 -9.088000297546387,-3.0510001182556152 -7.729000091552734,-3.0190000534057617 C-7.729000091552734,-3.0190000534057617 7.692999839782715,-2.6579999923706055 7.692999839782715,-2.6579999923706055 C9.072999954223633,-2.625999927520752 10.1899995803833,-1.3279999494552612 10.187000274658203,0.2409999966621399 C10.184000015258789,1.8079999685287476 9.062999725341797,3.0510001182556152 7.684999942779541,3.015000104904175z"></path></g><g opacity="1" transform="matrix(1,0,0,1,29.631000518798828,198.93899536132812)"><path fill="rgb(223,211,252)" fill-opacity="1" d=" M7.670000076293945,3.062999963760376 C7.670000076293945,3.062999963760376 -7.7129998207092285,2.5490000247955322 -7.7129998207092285,2.5490000247955322 C-9.069999694824219,2.503999948501587 -10.168999671936035,1.2120000123977661 -10.170000076293945,-0.3370000123977661 C-10.170000076293945,-1.8860000371932983 -9.071000099182129,-3.1089999675750732 -7.714000225067139,-3.066999912261963 C-7.714000225067139,-3.066999912261963 7.678999900817871,-2.5889999866485596 7.678999900817871,-2.5889999866485596 C9.055000305175781,-2.5460000038146973 10.170000076293945,-1.2450000047683716 10.168000221252441,0.3179999887943268 C10.164999961853027,1.8799999952316284 9.045999526977539,3.1089999675750732 7.670000076293945,3.062999963760376z"></path></g><g opacity="1" transform="matrix(1,0,0,1,29.617000579833984,217.14599609375)"><path fill="rgb(223,211,252)" fill-opacity="1" d=" M7.656000137329102,3.109999895095825 C7.656000137329102,3.109999895095825 -7.697999954223633,2.4800000190734863 -7.697999954223633,2.4800000190734863 C-9.053000450134277,2.4240000247955322 -10.149999618530273,1.1299999952316284 -10.149999618530273,-0.4129999876022339 C-10.151000022888184,-1.9570000171661377 -9.053999900817871,-3.1670000553131104 -7.698999881744385,-3.115000009536743 C-7.698999881744385,-3.115000009536743 7.664000034332275,-2.5209999084472656 7.664000034332275,-2.5209999084472656 C9.038000106811523,-2.4679999351501465 10.151000022888184,-1.1610000133514404 10.14799976348877,0.39500001072883606 C10.145999908447266,1.9520000219345093 9.029000282287598,3.1659998893737793 7.656000137329102,3.109999895095825z"></path></g></g><g transform="matrix(1,0,0,1,0,22)" opacity="1" style="display: block;"><g opacity="1" transform="matrix(1,0,0,1,117.66999816894531,241.23599243164062)"><path fill="rgb(88,66,66)" fill-opacity="1" d=" M-4.124000072479248,-40 C-13.472000122070312,-39.3129997253418 -34.388999938964844,-29.607999801635742 -22.326000213623047,6.607999801635742 C-10.262999534606934,42.82400131225586 34.38800048828125,-42.82500076293945 -4.124000072479248,-40z"></path></g><g opacity="1" transform="matrix(1,0,0,1,174.07200622558594,152.4010009765625)"><path fill="rgb(143,120,236)" fill-opacity="1" d=" M-5.130000114440918,25.93899917602539 C-21.69300079345703,3.8380000591278076 -40.24700164794922,-32.23899841308594 -17.474000930786133,-42.17300033569336 C3.5260000228881836,-51.33399963378906 31.21299934387207,-43.60599899291992 35.83000183105469,-8.484000205993652 C40.24700164794922,25.118000030517578 33.28799819946289,47.832000732421875 21.799999237060547,50.07899856567383 C15.381999969482422,51.334999084472656 0.0729999989271164,31.648000717163086 -5.130000114440918,25.93899917602539z"></path></g><g opacity="1" transform="matrix(1,0,0,1,188.822998046875,314.0740051269531)"><path fill="rgb(255,239,239)" fill-opacity="1" d=" M7.60099983215332,-29.26799964904785 C7.60099983215332,-29.26799964904785 11.348999977111816,29.26799964904785 11.348999977111816,29.26799964904785 C11.348999977111816,29.26799964904785 -11.348999977111816,24.989999771118164 -11.348999977111816,24.989999771118164 C-11.348999977111816,24.989999771118164 7.60099983215332,-29.26799964904785 7.60099983215332,-29.26799964904785z"></path></g><g opacity="1" transform="matrix(1,0,0,1,204.1009979248047,352.4119873046875)"><path fill="rgb(96,92,223)" fill-opacity="1" d=" M-21.367000579833984,-18.43899917602539 C-21.367000579833984,-18.43899917602539 -5.271999835968018,-18.375 2.1449999809265137,-18.499000549316406 C9.560999870300293,-18.62299919128418 19.20400047302246,-6.804999828338623 21.200000762939453,-3.4030001163482666 C23.19499969482422,0 21.864999771118164,13.967000007629395 21.200000762939453,16.29400062561035 C20.53499984741211,18.62299919128418 16.92300033569336,18.2450008392334 14.105999946594238,14.298999786376953 C10.760000228881836,9.614999771118164 -0.1940000057220459,-3.8239998817443848 -1.8559999465942383,-5.6529998779296875 C-3.5190000534057617,-7.48199987411499 -23.19499969482422,-4.1570000648498535 -23.19499969482422,-4.1570000648498535 C-23.19499969482422,-4.1570000648498535 -21.367000579833984,-18.43899917602539 -21.367000579833984,-18.43899917602539z"></path></g><g opacity="1" transform="matrix(1,0,0,1,182.9250030517578,329.3330078125)"><path fill="rgb(255,222,222)" fill-opacity="1" d=" M13.49899959564209,16.97100067138672 C13.49899959564209,16.97100067138672 1.246999979019165,-18.922000885009766 1.246999979019165,-18.922000885009766 C1.246999979019165,-18.922000885009766 -13.5,1.0329999923706055 -12.6850004196167,0.9620000123977661 C-11.869999885559082,0.8930000066757202 -2.0190000534057617,18.922000885009766 -2.0190000534057617,18.922000885009766 C-2.0190000534057617,18.922000885009766 13.49899959564209,16.97100067138672 13.49899959564209,16.97100067138672z"></path></g><g opacity="1" transform="matrix(1,0,0,1,278.9939880371094,216.14199829101562)"><path fill="rgb(96,92,223)" fill-opacity="1" d=" M-18.04199981689453,19.976999282836914 C-18.04199981689453,19.976999282836914 -7.065000057220459,-4.297999858856201 -4.553999900817871,-8.998000144958496 C-2.0420000553131104,-13.697999954223633 12.609000205993652,-33.93000030517578 13.72599983215332,-35.41899871826172 C14.842000007629395,-36.90700149536133 17.26099967956543,-34.47800064086914 15.958000183105469,-31.413999557495117 C14.654999732971191,-28.349000930786133 7.073999881744385,-16.302000045776367 7.073999881744385,-16.302000045776367 C7.073999881744385,-16.302000045776367 18.599000930786133,-9.628999710083008 18.517000198364258,-4.800000190734863 C18.42300033569336,0.6420000195503235 18.447999954223633,4.4730000495910645 14.541999816894531,9.869000434875488 C10.635000228881836,15.262999534606934 6.051000118255615,10.1850004196167 6.051000118255615,10.1850004196167 C6.051000118255615,10.1850004196167 1.6790000200271606,14.395000457763672 -0.367000013589859,18.117000579833984 C-2.4140000343322754,21.836999893188477 -9.29800033569336,36.90700149536133 -9.29800033569336,36.90700149536133 C-9.29800033569336,36.90700149536133 -18.600000381469727,27.976999282836914 -18.04199981689453,19.976999282836914z"></path></g><g opacity="1" transform="matrix(1,0,0,1,167.77099609375,195.22500610351562)"><path fill="rgb(96,92,223)" fill-opacity="1" d=" M-20.895000457763672,8.777000427246094 C-16.87700080871582,4.35099983215332 -10.510000228881836,-6.382999897003174 -17.73200035095215,-19.014999389648438 C-17.73200035095215,-19.014999389648438 16.47599983215332,-29.650999069213867 20.895999908447266,4.040999889373779 C13.081999778747559,8.690999984741211 6.672999858856201,12.083000183105469 1.7079999446868896,28.349000930786133 C-15.595000267028809,29.652000427246094 -20.895000457763672,8.777000427246094 -20.895000457763672,8.777000427246094z"></path></g><g opacity="1" transform="matrix(1,0,0,1,156.24400329589844,282.52801513671875)"><path fill="rgb(118,85,85)" fill-opacity="1" d=" M60.05699920654297,-47.19900131225586 C44.946998596191406,-70.3740005493164 -6.373000144958496,-82.60600280761719 -42.698001861572266,-81.29100036621094 C-57.20000076293945,-80.76499938964844 -59.44200134277344,-48.51100158691406 -62.233001708984375,-21.719999313354492 C-65.02300262451172,5.068999767303467 -62.233001708984375,82.60700225830078 -62.233001708984375,82.60700225830078 C-62.233001708984375,82.60700225830078 23.40999984741211,82.60700225830078 23.40999984741211,82.60700225830078 C25.952999114990234,26.836000442504883 65.02300262451172,-39.58300018310547 60.05699920654297,-47.19900131225586z"></path></g><g opacity="1" transform="matrix(1,0,0,1,223.02699279785156,276.0790100097656)"><path fill="rgb(88,66,66)" fill-opacity="1" d=" M-9.182999610900879,-43.784000396728516 C0.47200000286102295,-36.167999267578125 22.05699920654297,6.068999767303467 29.84000015258789,23.85300064086914 C37.62300109863281,41.637001037597656 27.035999298095703,58.27899932861328 9.984000205993652,43.66899871826172 C-7.068999767303467,29.059999465942383 -21.211000442504883,8.583999633789062 -29.41699981689453,-4.086999893188477 C-37.62300109863281,-16.757999420166016 -27.558000564575195,-58.27899932861328 -9.182999610900879,-43.784000396728516z"></path></g><g opacity="1" transform="matrix(1,0,0,1,159.97900390625,205.7740020751953)"><path fill="rgb(255,239,239)" fill-opacity="1" d=" M31.350000381469727,10.270000457763672 C31.350000381469727,10.270000457763672 17.195999145507812,-1.434999942779541 -3.7339999675750732,-5.8520002365112305 C-24.665000915527344,-10.270000457763672 -31.350000381469727,-4.3520002365112305 -31.350000381469727,-4.3520002365112305 C-31.350000381469727,-4.3520002365112305 -19.707000732421875,-3.135999917984009 0,1.3890000581741333 C19.707000732421875,5.915999889373779 31.350000381469727,10.270000457763672 31.350000381469727,10.270000457763672z"></path></g><g opacity="1" transform="matrix(1,0,0,1,161.85299682617188,139.2740020751953)"><path fill="rgb(55,32,133)" fill-opacity="1" d=" M45.66899871826172,-6.146999835968018 C45.457000732421875,-6.9679999351501465 45.22600173950195,-7.763000011444092 44.98500061035156,-8.543999671936035 C44.98500061035156,-8.543999671936035 44.99300003051758,-8.543000221252441 44.99300003051758,-8.543000221252441 C40.696998596191406,-23.777000427246094 44.513999938964844,-34.41400146484375 39.81999969482422,-38.29499816894531 C35.125999450683594,-42.17599868774414 31.304000854492188,-35.518001556396484 25.57200050354004,-38.28200149536133 C19.84000015258789,-41.047000885009766 21.069000244140625,-47.31100082397461 14.395000457763672,-47.37200164794922 C1.9270000457763672,-47.48500061035156 -2.9230000972747803,-35.970001220703125 -9.232999801635742,-34.415000915527344 C-15.543999671936035,-32.86000061035156 -22.447999954223633,-42.77399826049805 -29.886999130249023,-38.28200149536133 C-37.32699966430664,-33.79100036621094 -29.514999389648438,-24.32900047302246 -32.305999755859375,-19.305999755859375 C-35.09700012207031,-14.281999588012695 -45.66899871826172,-7.956999778747559 -44.553001403808594,-0.14300000667572021 C-43.4370002746582,7.671000003814697 -26.934999465942383,29.996999740600586 -4.541999816894531,41.72999954223633 C-4.11299991607666,41.95500183105469 -3.684999942779541,42.09700012207031 -3.256999969482422,42.16999816894531 C-2.7990000247955322,42.387001037597656 -2.3410000801086426,42.60200119018555 -1.8730000257492065,42.81399917602539 C8.437999725341797,47.48500061035156 20.7810001373291,39.4739990234375 22.083999633789062,33.14799880981445 C23.38599967956543,26.822999954223633 15.937999725341797,21.764999389648438 18.594999313354492,16.683000564575195 C23.898000717163086,6.543000221252441 29.760000228881836,28.975000381469727 29.760000228881836,28.975000381469727 C29.760000228881836,28.975000381469727 34.77799987792969,25.333999633789062 35.06100082397461,19.566999435424805 C35.42399978637695,12.125 31.152999877929688,9.14799976348877 30.222999572753906,3.753000020980835 C29.292999267578125,-1.6430000066757202 35.08700180053711,-6.703999996185303 45.66899871826172,-6.146999835968018z"></path></g><g opacity="1" transform="matrix(1,0,0,1,253.2209930419922,277.7170104980469)"><path fill="rgb(88,66,66)" fill-opacity="1" d=" M0.007000000216066837,42.90299987792969 C11.262999534606934,16.590999603271484 27.767000198364258,-32.53900146484375 27.767000198364258,-32.53900146484375 C27.767000198364258,-32.53900146484375 25.115999221801758,-43.284000396728516 21.069000244140625,-48.73899841308594 C17.865999221801758,-53.05799865722656 12.696999549865723,-54.084999084472656 12.696999549865723,-54.084999084472656 C12.696999549865723,-54.084999084472656 -14.524999618530273,4.577000141143799 -21.145999908447266,22.158000946044922 C-27.767000198364258,39.73899841308594 -4.776000022888184,54.084999084472656 0.007000000216066837,42.90299987792969z"></path></g></g></g></svg>