<svg width="136" height="45" viewBox="0 0 200 66" fill="none" preserveAspectRatio="none" xmlns="http://www.w3.org/2000/svg">
<path fill-rule="evenodd" clip-rule="evenodd" d="M139.183 2.32413C140.024 0.373594 142.287 -0.525761 144.237 0.315372C146.188 1.1565 147.087 3.4196 146.246 5.37014L131.821 38.8213C130.98 40.7718 128.717 41.6712 126.766 40.8301C126.273 40.6175 125.847 40.314 125.5 39.9478C125.194 39.6326 124.937 39.2592 124.747 38.8346L109.901 5.56799C109.036 3.62821 109.906 1.35395 111.846 0.488292C113.786 -0.37737 116.06 0.493371 116.926 2.43315L128.221 27.7435L139.183 2.32413ZM87.1795 20.5128C87.1795 27.5934 81.4395 33.3333 74.3589 33.3333C67.2784 33.3333 61.5384 27.5934 61.5384 20.5128C61.5384 13.4322 67.2784 7.69231 74.3589 7.69231C81.4395 7.69231 87.1795 13.4322 87.1795 20.5128ZM94.8718 20.5128C94.8718 31.8417 85.6879 41.0256 74.3589 41.0256C63.03 41.0256 53.8461 31.8417 53.8461 20.5128C53.8461 9.1839 63.03 6.76847e-09 74.3589 6.76847e-09C85.6879 6.76847e-09 94.8718 9.1839 94.8718 20.5128ZM3.84615 6.76847e-09C1.72198 6.76847e-09 0 1.76112 0 3.93357V24.9126C0 27.085 1.72198 28.8461 3.84615 28.8461C5.97032 28.8461 7.69231 27.085 7.69231 24.9126V14.0303L30.3142 39.8363C31.7365 41.4587 34.1844 41.6389 35.7817 40.2386C36.0587 39.9958 36.2919 39.7215 36.4808 39.4253C36.882 38.818 37.1156 38.0902 37.1156 37.3078V3.97448C37.1156 1.85031 35.3936 0.12833 33.2695 0.12833C31.1453 0.12833 29.4233 1.85031 29.4233 3.97448V27.1507L6.81597 1.36137C6.38384 0.868418 5.85704 0.508609 5.28818 0.285815C4.84286 0.101497 4.3561 6.76847e-09 3.84615 6.76847e-09ZM3.84615 41.0256C5.97032 41.0256 7.69231 39.3036 7.69231 37.1795C7.69231 35.0553 5.97032 33.3333 3.84615 33.3333C1.72198 33.3333 0 35.0553 0 37.1795C0 39.3036 1.72198 41.0256 3.84615 41.0256ZM182.259 0.384902L182.247 0.379121C180.331 -0.539469 178.034 0.268508 177.116 2.18379L161.125 35.5244C160.206 37.4397 161.014 39.737 162.93 40.6556C164.845 41.5742 167.142 40.7662 168.061 38.8509L180.555 12.8012L186.03 24.5534C186.928 26.4789 189.216 27.3125 191.141 26.4153C193.067 25.5182 193.9 23.2301 193.003 21.3046L184.124 2.24841C183.725 1.39315 183.052 0.753314 182.259 0.384902ZM200 37.1598C200 39.284 198.278 41.006 196.154 41.006C194.03 41.006 192.308 39.284 192.308 37.1598C192.308 35.0356 194.03 33.3137 196.154 33.3137C198.278 33.3137 200 35.0356 200 37.1598Z" fill="#4A20B7"/>
<path d="M4.624 57.8001V65.0001H3.376V57.8001H1V56.6001H7V57.8001H4.624Z" fill="#4A20B7"/>
<path d="M19.0581 65.0001V56.6001H24.2661V57.7761H20.3061V60.0801H22.8621V61.2561H20.3061V63.8241H24.5301V65.0001H19.0581Z" fill="#4A20B7"/>
<path d="M36.7052 65.0001V56.6001H37.9532V63.8001H42.0572V65.0001H36.7052Z" fill="#4A20B7"/>
<path d="M53.8717 65.0001V56.6001H59.0797V57.7761H55.1197V60.0801H57.6757V61.2561H55.1197V63.8241H59.3437V65.0001H53.8717Z" fill="#4A20B7"/>
<path d="M79.0067 65.0001H77.7587V60.4041C77.7587 59.7961 77.7787 59.3441 77.8187 59.0481C77.6347 59.5921 77.4627 60.0561 77.3027 60.4401L75.2747 65.1441L73.2347 60.4041C73.0187 59.9161 72.8427 59.4641 72.7067 59.0481C72.7467 59.3441 72.7667 59.7961 72.7667 60.4041V65.0001H71.5187V56.6001H72.7787L75.0347 61.8441C75.1147 62.0361 75.1907 62.2561 75.2627 62.5041C75.3187 62.3281 75.3987 62.1081 75.5027 61.8441L77.7467 56.6001H79.0067V65.0001Z" fill="#4A20B7"/>
<path d="M91.6033 65.0001V56.6001H96.8113V57.7761H92.8513V60.0801H95.4073V61.2561H92.8513V63.8241H97.0753V65.0001H91.6033Z" fill="#4A20B7"/>
<path d="M109.25 56.6001H111.602C112.306 56.6001 112.922 56.7201 113.45 56.9601C113.986 57.2001 114.406 57.5241 114.71 57.9321C115.014 58.3401 115.238 58.7841 115.382 59.2641C115.534 59.7441 115.61 60.2561 115.61 60.8001C115.61 61.3201 115.538 61.8161 115.394 62.2881C115.258 62.7521 115.042 63.1961 114.746 63.6201C114.45 64.0361 114.026 64.3721 113.474 64.6281C112.93 64.8761 112.29 65.0001 111.554 65.0001H109.25V56.6001ZM111.758 63.8241C112.214 63.8241 112.614 63.7361 112.958 63.5601C113.302 63.3761 113.57 63.1361 113.762 62.8401C113.954 62.5361 114.094 62.2161 114.182 61.8801C114.27 61.5361 114.314 61.1761 114.314 60.8001C114.314 59.9601 114.11 59.2481 113.702 58.6641C113.294 58.0721 112.69 57.7761 111.89 57.7761H110.498V63.8241H111.758Z" fill="#4A20B7"/>
<path d="M127.965 65.0001V56.6001H129.213V65.0001H127.965Z" fill="#4A20B7"/>
<path d="M145.064 65.1441C144.56 65.1441 144.105 65.0601 143.697 64.8921C143.297 64.7241 142.965 64.5001 142.701 64.2201C142.445 63.9401 142.228 63.6081 142.052 63.2241C141.876 62.8401 141.752 62.4481 141.68 62.0481C141.608 61.6481 141.572 61.2321 141.572 60.8001C141.572 60.2881 141.636 59.7881 141.764 59.3001C141.892 58.8121 142.084 58.3521 142.34 57.9201C142.604 57.4801 142.968 57.1281 143.432 56.8641C143.904 56.5921 144.448 56.4561 145.064 56.4561C145.8 56.4561 146.412 56.6201 146.9 56.9481C147.388 57.2681 147.729 57.6601 147.921 58.1241L146.781 58.6521C146.565 58.3081 146.325 58.0561 146.061 57.8961C145.805 57.7361 145.472 57.6561 145.064 57.6561C144.664 57.6561 144.316 57.7521 144.02 57.9441C143.724 58.1361 143.497 58.3921 143.337 58.7121C143.177 59.0321 143.057 59.3681 142.977 59.7201C142.905 60.0641 142.868 60.4241 142.868 60.8001C142.868 61.6321 143.056 62.3641 143.432 62.9961C143.808 63.6281 144.352 63.9441 145.064 63.9441C145.768 63.9441 146.336 63.5841 146.768 62.8641L147.932 63.3081C147.404 64.5321 146.448 65.1441 145.064 65.1441Z" fill="#4A20B7"/>
<path d="M160.177 65.0001V56.6001H161.425V65.0001H160.177Z" fill="#4A20B7"/>
<path d="M180.445 65.0001H179.269L175.633 59.3001C175.521 59.1241 175.409 58.9161 175.297 58.6761C175.321 59.0601 175.333 59.2681 175.333 59.3001V65.0001H174.085V56.6001H175.345L178.885 62.2041C178.973 62.3481 179.089 62.5641 179.233 62.8521C179.209 62.6121 179.197 62.4001 179.197 62.2161V56.6001H180.445V65.0001Z" fill="#4A20B7"/>
<path d="M193.044 65.0001V56.6001H198.252V57.7761H194.292V60.0801H196.848V61.2561H194.292V63.8241H198.516V65.0001H193.044Z" fill="#4A20B7"/>
</svg>
