<svg width="136" height="45" viewBox="0 0 200 66" fill="none" preserveAspectRatio="none" xmlns="http://www.w3.org/2000/svg">
<path fill-rule="evenodd" clip-rule="evenodd" d="M139.183 2.32413C140.024 0.373594 142.287 -0.525761 144.237 0.315372C146.188 1.1565 147.087 3.4196 146.246 5.37014L131.821 38.8213C130.98 40.7718 128.717 41.6712 126.766 40.8301C126.273 40.6175 125.847 40.314 125.5 39.9478C125.194 39.6326 124.937 39.2592 124.747 38.8346L109.901 5.56799C109.036 3.62821 109.906 1.35395 111.846 0.488292C113.786 -0.37737 116.06 0.493371 116.926 2.43315L128.221 27.7435L139.183 2.32413ZM87.1795 20.5128C87.1795 27.5934 81.4395 33.3333 74.3589 33.3333C67.2784 33.3333 61.5384 27.5934 61.5384 20.5128C61.5384 13.4322 67.2784 7.69231 74.3589 7.69231C81.4395 7.69231 87.1795 13.4322 87.1795 20.5128ZM94.8718 20.5128C94.8718 31.8417 85.6879 41.0256 74.3589 41.0256C63.03 41.0256 53.8461 31.8417 53.8461 20.5128C53.8461 9.1839 63.03 6.76847e-09 74.3589 6.76847e-09C85.6879 6.76847e-09 94.8718 9.1839 94.8718 20.5128ZM3.84615 6.76847e-09C1.72198 6.76847e-09 0 1.76112 0 3.93357V24.9126C0 27.085 1.72198 28.8461 3.84615 28.8461C5.97032 28.8461 7.69231 27.085 7.69231 24.9126V14.0303L30.3142 39.8363C31.7365 41.4587 34.1844 41.6389 35.7817 40.2386C36.0587 39.9958 36.2919 39.7215 36.4808 39.4253C36.882 38.818 37.1156 38.0902 37.1156 37.3078V3.97448C37.1156 1.85031 35.3936 0.12833 33.2695 0.12833C31.1453 0.12833 29.4233 1.85031 29.4233 3.97448V27.1507L6.81597 1.36137C6.38384 0.868418 5.85704 0.508609 5.28818 0.285815C4.84286 0.101497 4.3561 6.76847e-09 3.84615 6.76847e-09ZM3.84615 41.0256C5.97032 41.0256 7.69231 39.3036 7.69231 37.1795C7.69231 35.0553 5.97032 33.3333 3.84615 33.3333C1.72198 33.3333 0 35.0553 0 37.1795C0 39.3036 1.72198 41.0256 3.84615 41.0256ZM182.259 0.384902L182.247 0.379121C180.331 -0.539469 178.034 0.268508 177.116 2.18379L161.125 35.5244C160.206 37.4397 161.014 39.737 162.93 40.6556C164.845 41.5742 167.142 40.7662 168.061 38.8509L180.555 12.8012L186.03 24.5534C186.928 26.4789 189.216 27.3125 191.141 26.4153C193.067 25.5182 193.9 23.2301 193.003 21.3046L184.124 2.24841C183.725 1.39315 183.052 0.753314 182.259 0.384902ZM200 37.1598C200 39.284 198.278 41.006 196.154 41.006C194.03 41.006 192.308 39.284 192.308 37.1598C192.308 35.0356 194.03 33.3137 196.154 33.3137C198.278 33.3137 200 35.0356 200 37.1598Z" fill="#fff"/>
<path d="M5.35 56.83V63H4.48V56.83H2.53V56H7.3V56.83H5.35ZM20.6101 63V56H24.7701V56.82H21.4801V58.97H23.6501V59.79H21.4801V62.17H24.9901V63H20.6101ZM38.3964 63V56H39.2664V62.16H42.7064V63H38.3964ZM55.7823 63V56H59.9423V56.82H56.6523V58.97H58.8223V59.79H56.6523V62.17H60.1623V63H55.7823ZM79.6487 63H78.7787V58.7C78.7787 58.4267 78.7853 58.17 78.7987 57.93C78.732 58.1167 78.6287 58.38 78.4887 58.72L76.5687 63.12L74.7087 58.7C74.5487 58.3133 74.4487 58.06 74.4087 57.94C74.4287 58.12 74.4387 58.3733 74.4387 58.7V63H73.5687V56H74.3887L76.4187 60.71L76.5987 61.18C76.6253 61.1 76.6853 60.9433 76.7787 60.71L78.8187 56H79.6487V63ZM93.396 63V56H97.556V56.82H94.266V58.97H96.436V59.79H94.266V62.17H97.776V63H93.396ZM111.182 56H113.092C113.666 56 114.169 56.1 114.602 56.3C115.036 56.5 115.376 56.77 115.622 57.11C115.869 57.45 116.049 57.82 116.162 58.22C116.282 58.62 116.342 59.0467 116.342 59.5C116.342 59.9333 116.286 60.3467 116.172 60.74C116.066 61.1267 115.892 61.4967 115.652 61.85C115.419 62.1967 115.079 62.4767 114.632 62.69C114.186 62.8967 113.659 63 113.052 63H111.182V56ZM113.162 62.19C113.576 62.19 113.936 62.1133 114.242 61.96C114.556 61.8 114.796 61.5867 114.962 61.32C115.129 61.0467 115.249 60.76 115.322 60.46C115.402 60.16 115.442 59.84 115.442 59.5C115.442 59.02 115.372 58.5833 115.232 58.19C115.092 57.7967 114.852 57.4667 114.512 57.2C114.172 56.9333 113.759 56.8 113.272 56.8H112.052V62.19H113.162ZM129.819 63V56H130.689V63H129.819ZM147.07 63.12C146.563 63.12 146.117 63.0167 145.73 62.81C145.343 62.6033 145.04 62.3233 144.82 61.97C144.6 61.6167 144.437 61.2333 144.33 60.82C144.223 60.4067 144.17 59.9667 144.17 59.5C144.17 59.04 144.223 58.6033 144.33 58.19C144.443 57.77 144.61 57.3867 144.83 57.04C145.057 56.6867 145.36 56.4067 145.74 56.2C146.127 55.9867 146.57 55.88 147.07 55.88C148.163 55.88 148.917 56.3 149.33 57.14L148.55 57.54C148.363 57.26 148.157 57.05 147.93 56.91C147.71 56.7633 147.423 56.69 147.07 56.69C146.597 56.69 146.203 56.84 145.89 57.14C145.577 57.44 145.36 57.7933 145.24 58.2C145.127 58.6 145.07 59.0333 145.07 59.5C145.07 60.2667 145.24 60.9267 145.58 61.48C145.92 62.0267 146.417 62.3 147.07 62.3C147.723 62.3 148.23 62.0033 148.59 61.41L149.39 61.71C149.197 62.1367 148.907 62.48 148.52 62.74C148.133 62.9933 147.65 63.12 147.07 63.12ZM162.764 63V56H163.634V63H162.764ZM182.536 63H181.696L178.546 58C178.426 57.8067 178.332 57.6433 178.266 57.51C178.279 57.71 178.286 57.8733 178.286 58V63H177.416V56H178.296L181.396 60.98C181.502 61.1533 181.599 61.3267 181.686 61.5C181.672 61.26 181.666 61.09 181.666 60.99V56H182.536V63ZM196.296 63V56H200.456V56.82H197.166V58.97H199.336V59.79H197.166V62.17H200.676V63H196.296Z" fill="#fff"/>
</svg>
