<svg width="312" height="65" viewBox="0 0 312 65" fill="none" xmlns="http://www.w3.org/2000/svg">
<path fill-rule="evenodd" clip-rule="evenodd" d="M225.011 0.49198C221.968 -0.820187 218.437 0.582806 217.125 3.62565L200.025 43.2798L182.404 3.79571C181.054 0.769659 177.506 -0.588698 174.48 0.761736C171.454 2.11217 170.096 5.66002 171.446 8.68607L194.606 60.582C194.901 61.244 195.302 61.8262 195.779 62.3177C196.321 62.8894 196.986 63.3631 197.755 63.6949C200.798 65.0071 204.329 63.6041 205.641 60.5613L228.144 8.37742C229.456 5.33458 228.053 1.80415 225.011 0.49198Z" fill="#3C32AA"/>
<path fill-rule="evenodd" clip-rule="evenodd" d="M116 52C127.046 52 136 43.0457 136 32C136 20.9543 127.046 12 116 12C104.954 12 96 20.9543 96 32C96 43.0457 104.954 52 116 52ZM116 64C133.673 64 148 49.6731 148 32C148 14.3269 133.673 0 116 0C98.3269 0 84 14.3269 84 32C84 49.6731 98.3269 64 116 64Z" fill="#3C32AA"/>
<path fill-rule="evenodd" clip-rule="evenodd" d="M6 0C2.68629 0 0 2.74734 0 6.13636V38.8636C0 42.2527 2.68629 45 6 45C9.31371 45 12 42.2527 12 38.8636V21.8873L47.2902 62.1446C49.5089 64.6756 53.3276 64.9567 55.8194 62.7723C56.2515 62.3936 56.6152 61.9656 56.9099 61.5037C57.5359 60.5562 57.9004 59.4208 57.9004 58.2002V6.2002C57.9004 2.88649 55.2141 0.200195 51.9004 0.200195C48.5867 0.200195 45.9004 2.88649 45.9004 6.2002V42.3551L10.6329 2.12373C9.95879 1.35474 9.13699 0.793437 8.24958 0.445877C7.55487 0.158337 6.79552 0 6 0ZM6 64C9.31371 64 12 61.3137 12 58C12 54.6863 9.31371 52 6 52C2.68629 52 0 54.6863 0 58C0 61.3137 2.68629 64 6 64Z" fill="#3C32AA"/>
<path fill-rule="evenodd" clip-rule="evenodd" d="M284.305 0.591429L284.324 0.600496C285.562 1.17523 286.612 2.17335 287.233 3.50753L301.085 33.2352C302.484 36.2389 301.184 39.8084 298.18 41.2079C295.177 42.6074 291.607 41.307 290.208 38.3034L281.665 19.9699L262.175 60.6074C260.742 63.5953 257.158 64.8557 254.17 63.4227C251.183 61.9897 249.922 58.4059 251.355 55.4181L276.3 3.40671C277.733 0.418873 281.317 -0.841571 284.305 0.591429ZM306 63.9693C309.314 63.9693 312 61.283 312 57.9693C312 54.6556 309.314 51.9693 306 51.9693C302.686 51.9693 300 54.6556 300 57.9693C300 61.283 302.686 63.9693 306 63.9693Z" fill="#3C32AA"/>
</svg>
