<svg width="880" height="365" viewBox="0 0 880 365" fill="none" xmlns="http://www.w3.org/2000/svg">
<path d="M349.223 144.078C359.321 158.283 369.852 234.928 369.948 247.116C370.044 259.303 361.459 272.392 350.832 270.903C336.663 268.921 315.698 209.543 314.352 183.643C313.008 157.743 339.412 130.305 349.223 144.078Z" fill="#B39CF7"/>
<path d="M261.965 133.295C272.7 112.294 272.447 101.211 265.902 85.2646C265.902 85.2646 283.807 76.5586 289.919 82.5506C296.031 88.5426 310.932 103.192 310.932 103.192L307.641 188.831L261.965 133.295Z" fill="#433CC6"/>
<path d="M267.092 121.575C267.092 121.575 219.673 140.331 207.989 148.724C194.925 158.102 164.594 364.105 164.594 364.105H286.075C286.075 364.105 356.585 152.771 349.224 144.077C341.863 135.384 310.054 127.111 310.054 127.111C310.054 127.111 310.907 146.155 291.514 145.446C265.998 144.51 267.092 121.575 267.092 121.575Z" fill="#B39CF7"/>
<path d="M226.528 262.653C133.457 263.853 119.66 360.503 119.66 360.503" stroke="#350F53" stroke-width="21.614"/>
<path d="M271.726 14.2508C296.822 2.99977 321.054 7.48977 331.452 44.9538C341.622 81.6498 332.316 110.937 318.651 114.238C307.351 116.976 288.104 115.319 268.34 88.6858C248.575 62.0528 244.493 26.4388 271.726 14.2508Z" fill="#615BE0"/>
<path d="M207.112 149.013C189.005 156.77 150.676 232.502 142.343 256.242C136.411 273.052 149.644 286.825 161.555 284.483C176.493 281.553 185.138 262.654 191.91 248.244C198.683 233.835 250.724 130.329 207.112 149.013Z" fill="#B39CF7"/>
<path d="M286.471 36.2598C297.734 30.9278 302.081 44.0528 320.861 38.6608C339.64 33.2698 331.668 1.52179 297.302 0.128786C262.936 -1.26422 252.405 8.83479 252.405 21.1418C252.405 32.0698 229.591 33.0778 237.804 54.2358C244.468 71.4778 265.95 83.3298 269.024 94.4368C281.116 79.1868 261.351 77.1938 260.342 66.4108C259.574 58.0058 275.22 55.3278 279.314 73.7958L287.9 70.8058C287.9 70.8058 277.633 40.5098 286.471 36.2598Z" fill="#350F53"/>
<path d="M297.942 55.573C300.289 51.4 305.429 49.837 309.423 52.083C313.418 54.329 314.753 59.533 312.406 63.707C310.06 67.88 304.919 69.443 300.925 67.197C296.931 64.95 295.595 59.746 297.942 55.573Z" stroke="#3B31AA" stroke-width="2.402"/>
<path d="M323.425 51.5466C325.772 47.3736 330.912 45.8106 334.906 48.0566C338.901 50.3026 340.236 55.5066 337.889 59.6806C335.543 63.8536 330.402 65.4166 326.408 63.1706C322.413 60.9236 321.078 55.7196 323.425 51.5466Z" stroke="#3B31AA" stroke-width="2.402"/>
<path d="M353.211 177.639C352.094 176.198 343.604 166.832 336.075 163.23C329.17 159.868 328.523 182.01 329.075 181.577C329.627 181.145 353.211 177.639 353.211 177.639Z" fill="#615BE0"/>
<path d="M288.898 177H366.346C370.106 177 373.155 180.048 373.155 183.809V340.376C373.155 344.136 370.106 347.184 366.346 347.184H288.898C275.13 347.184 261.925 341.713 252.191 331.976C242.459 322.238 236.993 309.032 237 295.263V228.885C237.006 200.228 260.241 177 288.898 177Z" fill="#3B31AA"/>
<path d="M314.821 160.107C307.22 164.538 296.364 178.311 294.191 182.345C291.79 186.836 296.174 188.158 298.779 185.06C301.18 182.262 305.575 177.855 305.575 177.855C303.171 181.78 301.052 185.874 299.236 190.103C298.034 192.853 300.808 195.854 304.038 193.056C303.414 195.626 306.523 199.6 312.178 193.176C312.178 196.358 315.085 196.78 318.327 194.379C323.623 190.547 336.698 178.275 340.324 173.148C347.589 162.989 320.405 156.853 314.821 160.107Z" fill="#615BE0"/>
<path d="M277.19 320.951C284.034 324.073 301.337 344.294 303.523 347.548C305.924 351.15 301.361 353.372 298.888 350.958C296.643 348.772 296.751 348.617 296.751 348.617C297.651 351.126 293.689 354.236 289.942 349.697C289.678 352.098 285.836 352.735 282.653 350.178C281.801 351.978 272.183 350.178 270.273 349.253C264.342 346.503 267.776 346.623 264.27 342.564C257.245 334.472 272.159 318.645 277.19 320.951Z" fill="#615BE0"/>
<path d="M232.809 300.753C232.809 300.753 247.711 310.539 248.996 310.924C250.28 311.308 270.681 306.121 274.151 306.049C277.621 305.977 298.275 307.97 300.208 308.102C302.142 308.234 301.409 314.394 296.33 314.526C291.25 314.658 283.024 314.598 280.839 315.114C278.653 315.631 275.303 318.116 278.882 321.923C282.244 325.525 282.761 353.143 270.826 349.456C261.736 346.647 255.78 344.485 251.121 340.271C247.518 337.04 247.458 333.126 242.643 330.568C233.446 325.681 219.072 317.684 219.72 317.18C220.368 316.676 232.809 300.753 232.809 300.753Z" fill="#615BE0"/>
<path d="M223.131 228.624H236.747V296.695H223.131C219.371 296.695 216.322 293.647 216.322 289.888V235.433C216.322 231.673 219.371 228.624 223.131 228.624Z" fill="#372085"/>
<path d="M372.891 186.681H393.315V338.638H372.891V186.681Z" fill="#372085"/>
<path d="M142.343 256.241C154.879 227.614 246.137 309.327 246.137 309.327L228.186 334.35C228.186 334.35 159.562 289.406 150.544 282.321C141.527 275.237 139.833 261.956 142.343 256.241Z" fill="#B39CF7"/>
<path d="M445.123 243.593H386.549V229.401H445.123C449.043 229.401 452.221 232.576 452.221 236.496C452.221 240.416 449.043 243.593 445.123 243.593Z" fill="#372085"/>
<path d="M445.123 295.918H386.549V281.724H445.123C449.043 281.724 452.221 284.901 452.221 288.821C452.221 292.74 449.043 295.918 445.123 295.918Z" fill="#372085"/>
<path d="M650.865 128.011C640.142 107.01 640.394 95.9277 646.938 79.9807C646.938 79.9807 629.022 71.2867 622.923 77.2667C616.823 83.2457 601.909 97.9077 601.909 97.9077L605.199 183.559L650.865 128.011Z" fill="#765555"/>
<path d="M567.015 136.572C558.699 145.346 539.927 194.96 528.578 228.622C523.542 243.562 524.328 285.25 535.027 285.25C549.316 285.25 589.53 208.942 594.452 183.474C599.376 158.006 578.639 124.312 567.015 136.572Z" fill="#F4CECE"/>
<path d="M645.738 116.304C645.738 116.304 685.927 117.829 696.026 128.072C700.144 132.25 699.112 172.283 696.686 205.377C693.348 251.006 710.495 361.476 710.495 361.476H588.786C588.786 361.476 559.607 145.339 566.98 136.657C574.352 127.975 602.739 121.887 602.739 121.887C602.739 121.887 604.384 156.602 621.038 151.33C645.042 143.681 645.738 116.304 645.738 116.304Z" fill="#FFEEEE"/>
<path d="M553.002 179.8C553.002 179.8 562.356 171.611 568.107 169.486C573.859 167.36 577.077 179.8 577.077 179.8H553.002Z" fill="#AD8080"/>
<path d="M641.116 8.96695C616.008 -2.28405 591.776 2.21896 581.39 39.671C571.208 76.366 580.525 105.713 594.178 108.967C605.489 111.693 624.725 110.035 644.49 83.403C664.255 56.77 668.338 21.155 641.116 8.96695Z" fill="#946868"/>
<path d="M606.259 347.184H528.81C525.05 347.184 522 344.136 522 340.376V183.808C522 182.002 522.718 180.271 523.995 178.994C525.272 177.717 527.004 177 528.81 177H606.259C620.027 177 633.231 182.471 642.964 192.208C652.697 201.947 658.162 215.153 658.155 228.921V295.299C658.15 323.956 634.916 347.184 606.259 347.184Z" fill="#765555"/>
<path d="M623.679 330.04C619.933 334.507 609.847 347.186 608.07 349.66C606.113 352.422 609.643 354.211 611.672 352.386C613.437 350.729 613.353 350.609 613.353 350.609C612.62 352.542 615.634 355.016 618.624 351.558C618.781 353.407 622.094 353.263 625.109 352.759C628.558 352.053 631.893 350.868 635.015 349.24C639.362 346.646 639.541 344.677 640.658 340.654C642.82 332.621 626.442 326.75 623.679 330.04Z" fill="#AD8080"/>
<path d="M648.056 301.161C648.056 301.161 640.852 312.965 640.095 313.661C639.338 314.357 623.285 317.54 620.883 318.597C618.481 319.653 606.894 328.383 605.597 329.103C604.3 329.823 608.155 332.273 611.793 330.664C615.431 329.056 618.169 328.083 619.814 327.506C621.879 326.773 625.11 328.274 622.552 331.421C619.61 335.023 623.584 354.619 634.992 349.192C640.948 346.092 645.667 341.051 648.368 334.903C649.785 331.469 648.56 328.695 651.082 325.297C655.885 318.812 663.306 308.486 662.681 308.306C662.057 308.126 648.056 301.161 648.056 301.161Z" fill="#AD8080"/>
<path d="M668.432 262.653C771.938 258.51 758.49 360.503 758.49 360.503" stroke="#3B2C2C" stroke-width="21.614"/>
<path d="M671.831 296.694H658.214V228.624H671.831C675.591 228.624 678.64 231.673 678.64 235.432V289.887C678.64 293.647 675.591 296.694 671.831 296.694Z" fill="#584242"/>
<path d="M586.012 26.9067C586.012 26.9067 601.851 -12.2503 644.634 5.52073C693.95 25.9337 646.939 79.9687 646.939 79.9687C646.939 79.9687 640.936 71.5637 644.262 67.4567C648.632 62.0407 658.01 50.6457 648.236 49.2647C640.599 48.1727 635.892 59.6157 635.892 59.6157C635.892 59.6157 637.825 37.6057 622.276 31.4937C605.513 24.9017 586.012 26.9067 586.012 26.9067Z" fill="#350F53"/>
<path d="M698.62 223.256C715.947 237.509 678.207 294.978 661.132 325.537L641.835 310.504C655.655 280.677 662.391 260.516 672.154 237.257C678.554 222.02 688.989 215.319 698.62 223.256Z" fill="#F4CECE"/>
<path d="M698.992 130.928C711.588 146.07 706.52 212.412 703.207 237.376C700.805 255.003 672.598 262.387 672.057 239.405C671.313 208.005 668.637 94.4495 698.992 130.928Z" fill="#F4CECE"/>
<path d="M596.207 191.808C596.362 186.621 596.459 180.221 595.918 177.927C595.378 175.634 592.003 168.321 590.298 167.649C589.281 167.258 588.157 167.258 587.141 167.649C587.141 167.649 585.146 165.379 583.009 165.512C580.872 165.643 572.503 167.252 568.107 169.51C563.713 171.767 565.311 175.634 567.172 179.897C569.033 184.16 574.377 194.991 575.577 196.707C576.778 198.424 579.947 199.505 580.824 197.512C581.241 199.23 582.673 200.514 584.426 200.742C585.787 200.905 587.071 200.079 587.488 198.773C587.488 198.773 589.409 200.442 591.091 199.241C591.907 198.676 592.291 196.431 592.027 193.237C592.519 196.167 596.074 195.794 596.207 191.808Z" fill="#AD8080"/>
<path d="M658.43 24.5538C693.708 -9.65524 752.798 11.9098 689.313 89.2388H668.384C668.384 89.2388 712.44 20.4348 659.234 35.3368L658.43 24.5538Z" fill="#360F53"/>
<path d="M756.077 66.832C774.197 65.067 772.395 83.079 756.077 84.844C739.759 86.609 737.958 68.585 756.077 66.832Z" stroke="#946868" stroke-width="2.402"/>
<path d="M777.779 125.622C798.793 124.049 842.62 121.408 864.835 121.408C882.137 121.408 880.781 130.137 866.168 133.163C847.159 137.078 796.39 144.078 777.779 144.078C759.167 144.078 756.778 127.207 777.779 125.622Z" stroke="#946868" stroke-width="2.402"/>
<path d="M817.191 170.915C833.473 169.57 848.411 169.57 865.593 169.57C882.777 169.57 882.813 177.651 867.455 178.984C852.097 180.317 831.612 182.01 817.191 182.01C802.77 182.01 800.896 172.248 817.191 170.915Z" stroke="#946868" stroke-width="2.402"/>
<path d="M112.498 97.9407C91.4843 96.1397 36.8493 93.1377 14.6353 93.1377C-2.66875 93.1377 -1.31075 103.08 13.3033 106.514C32.3113 110.981 93.8863 118.954 112.498 118.954C131.11 118.954 133.511 99.7417 112.498 97.9407Z" stroke="#350F53" stroke-width="2.402"/>
<path d="M34.7617 131.742C51.4407 131.922 66.5097 133.736 83.9207 135.814C101.332 137.891 99.9147 149.826 84.1607 149.755C68.4077 149.682 47.7067 147.197 33.1177 145.456C18.5287 143.715 18.1067 131.562 34.7617 131.742Z" stroke="#350F53" stroke-width="2.402"/>
<path fill-rule="evenodd" clip-rule="evenodd" d="M345.82 246.191L345.817 246.189C344.862 245.731 343.717 246.134 343.26 247.088L335.291 263.702C334.833 264.657 335.236 265.802 336.191 266.259C337.145 266.717 338.29 266.314 338.747 265.36L344.973 252.379L347.702 258.235C348.149 259.195 349.289 259.61 350.249 259.163C351.208 258.716 351.623 257.576 351.176 256.616L346.752 247.12C346.553 246.693 346.217 246.374 345.82 246.191ZM354.663 264.517C354.663 265.576 353.805 266.434 352.747 266.434C351.688 266.434 350.83 265.576 350.83 264.517C350.83 263.459 351.688 262.601 352.747 262.601C353.805 262.601 354.663 263.459 354.663 264.517ZM256.917 246C255.858 246 255 246.878 255 247.96V258.414C255 259.497 255.858 260.375 256.917 260.375C257.975 260.375 258.833 259.497 258.833 258.414V252.992L270.106 265.851C270.815 266.66 272.034 266.749 272.83 266.052C272.97 265.929 273.088 265.791 273.182 265.641C273.38 265.339 273.495 264.979 273.495 264.591V247.98C273.495 246.922 272.637 246.064 271.579 246.064C270.52 246.064 269.662 246.922 269.662 247.98V259.53L258.396 246.679C258.183 246.435 257.924 246.257 257.643 246.146C257.419 246.052 257.174 246 256.917 246ZM256.917 266.444C257.975 266.444 258.833 265.586 258.833 264.527C258.833 263.469 257.975 262.611 256.917 262.611C255.858 262.611 255 263.469 255 264.527C255 265.586 255.858 266.444 256.917 266.444ZM298.443 256.222C298.443 259.75 295.583 262.611 292.054 262.611C288.526 262.611 285.666 259.75 285.666 256.222C285.666 252.694 288.526 249.833 292.054 249.833C295.583 249.833 298.443 252.694 298.443 256.222ZM302.276 256.222C302.276 261.867 297.7 266.444 292.054 266.444C286.409 266.444 281.832 261.867 281.832 256.222C281.832 250.577 286.409 246 292.054 246C297.7 246 302.276 250.577 302.276 256.222ZM324.357 247.158C324.777 246.186 325.904 245.738 326.876 246.157C327.848 246.576 328.296 247.704 327.877 248.676L320.689 265.345C320.27 266.317 319.142 266.766 318.17 266.346C317.921 266.239 317.706 266.085 317.531 265.899C317.382 265.743 317.257 265.56 317.164 265.352L309.766 248.775C309.335 247.808 309.769 246.675 310.735 246.243C311.702 245.812 312.835 246.246 313.266 247.212L318.895 259.825L324.357 247.158Z" fill="#F4CECE"/>
<path d="M257.666 274.319V277.394H257.232V274.319H256.261V273.906H258.638V274.319H257.666Z" fill="#F4CECE"/>
<path d="M265.27 277.394V273.906H267.343V274.314H265.704V275.386H266.785V275.794H265.704V276.98H267.453V277.394H265.27Z" fill="#F4CECE"/>
<path d="M274.134 277.394V273.906H274.567V276.975H276.281V277.394H274.134Z" fill="#F4CECE"/>
<path d="M282.797 277.394V273.906H284.87V274.314H283.231V275.386H284.312V275.794H283.231V276.98H284.98V277.394H282.797Z" fill="#F4CECE"/>
<path d="M294.69 277.394H294.257V275.251C294.257 275.115 294.26 274.987 294.267 274.867C294.233 274.961 294.182 275.092 294.112 275.261L293.155 277.454L292.229 275.251C292.149 275.059 292.099 274.932 292.079 274.872C292.089 274.962 292.094 275.088 292.094 275.251V277.394H291.66V273.906H292.069L293.081 276.253L293.17 276.487C293.184 276.447 293.214 276.369 293.26 276.253L294.277 273.906H294.69V277.394Z" fill="#F4CECE"/>
<path d="M301.541 277.394V273.906H303.614V274.314H301.974V275.386H303.056V275.794H301.974V276.98H303.723V277.394H301.541Z" fill="#F4CECE"/>
<path d="M310.404 273.906H311.356C311.641 273.906 311.892 273.956 312.108 274.055C312.324 274.155 312.494 274.289 312.616 274.459C312.739 274.628 312.829 274.813 312.886 275.012C312.945 275.211 312.975 275.424 312.975 275.65C312.975 275.866 312.947 276.072 312.891 276.268C312.837 276.46 312.751 276.645 312.631 276.821C312.515 276.994 312.346 277.133 312.123 277.239C311.901 277.342 311.638 277.394 311.336 277.394H310.404V273.906ZM311.391 276.99C311.597 276.99 311.776 276.952 311.929 276.876C312.085 276.796 312.205 276.69 312.288 276.557C312.371 276.421 312.43 276.278 312.467 276.128C312.507 275.979 312.527 275.819 312.527 275.65C312.527 275.411 312.492 275.193 312.422 274.997C312.352 274.801 312.233 274.637 312.063 274.504C311.894 274.371 311.688 274.304 311.445 274.304H310.838V276.99H311.391Z" fill="#F4CECE"/>
<path d="M319.691 277.394V273.906H320.124V277.394H319.691Z" fill="#F4CECE"/>
<path d="M328.287 277.454C328.035 277.454 327.812 277.402 327.62 277.299C327.427 277.196 327.276 277.057 327.166 276.881C327.056 276.705 326.975 276.514 326.922 276.308C326.869 276.102 326.842 275.882 326.842 275.65C326.842 275.421 326.869 275.203 326.922 274.997C326.978 274.788 327.061 274.597 327.171 274.424C327.284 274.248 327.435 274.108 327.625 274.005C327.817 273.899 328.038 273.846 328.287 273.846C328.832 273.846 329.208 274.055 329.413 274.474L329.025 274.673C328.932 274.534 328.829 274.429 328.716 274.359C328.606 274.286 328.463 274.25 328.287 274.25C328.051 274.25 327.855 274.324 327.699 274.474C327.543 274.623 327.435 274.799 327.375 275.002C327.319 275.201 327.291 275.417 327.291 275.65C327.291 276.032 327.375 276.361 327.545 276.637C327.714 276.909 327.962 277.045 328.287 277.045C328.613 277.045 328.865 276.897 329.045 276.602L329.443 276.751C329.347 276.964 329.203 277.135 329.01 277.264C328.817 277.391 328.576 277.454 328.287 277.454Z" fill="#F4CECE"/>
<path d="M336.108 277.394V273.906H336.542V277.394H336.108Z" fill="#F4CECE"/>
<path d="M345.96 277.394H345.542L343.972 274.902C343.912 274.806 343.866 274.725 343.833 274.658C343.839 274.758 343.843 274.839 343.843 274.902V277.394H343.409V273.906H343.848L345.392 276.387C345.446 276.474 345.494 276.56 345.537 276.646C345.53 276.527 345.527 276.442 345.527 276.392V273.906H345.96V277.394Z" fill="#F4CECE"/>
<path d="M352.817 277.394V273.906H354.89V274.314H353.251V275.386H354.332V275.794H353.251V276.98H355V277.394H352.817Z" fill="#F4CECE"/>
<path d="M555 248H571.823V252.502H560.015V259.571H570.362V264.033H560.015V270.707H572.218V275.209H555V248Z" fill="#F4CECE"/>
<path d="M598.607 248V275.209H593.513V263.954H582.614V275.209H577.599V248H582.614V259.413H593.513V248H598.607Z" fill="#F4CECE"/>
<path d="M610.458 252.502V261.032H615.908C616.566 261.032 617.132 260.913 617.606 260.676C618.106 260.413 618.514 260.084 618.83 259.689C619.146 259.268 619.37 258.807 619.501 258.307C619.659 257.807 619.738 257.306 619.738 256.806C619.738 256.306 619.659 255.806 619.501 255.306C619.37 254.805 619.146 254.345 618.83 253.923C618.541 253.502 618.159 253.16 617.685 252.897C617.237 252.633 616.698 252.502 616.066 252.502H610.458ZM625.03 275.209H618.949L612.551 265.533H610.458V275.209H605.404V248H616.303C617.803 248 619.093 248.25 620.173 248.75C621.278 249.251 622.187 249.922 622.898 250.764C623.608 251.58 624.135 252.515 624.477 253.568C624.819 254.621 624.991 255.701 624.991 256.806C624.991 257.78 624.859 258.741 624.596 259.689C624.332 260.61 623.911 261.466 623.332 262.256C622.779 263.019 622.068 263.677 621.199 264.23C620.331 264.783 619.291 265.152 618.08 265.336L625.03 275.209Z" fill="#F4CECE"/>
</svg>
