<svg xmlns="http://www.w3.org/2000/svg" viewBox="0 0 326 450" width="326" height="450" preserveAspectRatio="xMidYMid meet" style="width: 100%; height: 100%; transform: translate3d(0px, 0px, 0px);"><defs><clipPath id="__lottie_element_193"><rect width="326" height="450" x="0" y="0"></rect></clipPath></defs><g clip-path="url(#__lottie_element_193)"><g transform="matrix(1,0,0,1,0,12)" opacity="1" style="display: block;"><g opacity="1" transform="matrix(1,0,0,1,263.84100341796875,409)"><path fill="rgb(222,179,179)" fill-opacity="1" d=" M-33.527000427246094,-6.2779998779296875 C-17.55900001525879,-7.673999786376953 15.73900032043457,-10 32.61399841308594,-10 C49.48899841308594,-10 48.57699966430664,3.993000030517578 34.43899917602539,5.388999938964844 C20.301000595092773,6.784999847412109 -19.384000778198242,10 -33.54499816894531,10 C-47.70500183105469,10 -49.48899841308594,-4.909999847412109 -33.527000427246094,-6.2779998779296875z"></path></g><g opacity="1" transform="matrix(1,0,0,1,65.86599731445312,417.5)"><path fill="rgb(222,179,179)" fill-opacity="1" d=" M-28.31100082397461,-5.336999893188477 C-14.82800006866455,-6.5229997634887695 13.291000366210938,-8.5 27.541000366210938,-8.5 C41.79100036621094,-8.5 41.020999908447266,3.3940000534057617 29.082000732421875,4.579999923706055 C17.14299964904785,5.767000198364258 -16.3700008392334,8.5 -28.32699966430664,8.5 C-40.28499984741211,8.5 -41.790000915527344,-4.173999786376953 -28.31100082397461,-5.336999893188477z"></path></g><g opacity="1" transform="matrix(1,0,0,1,101.0009994506836,384.9830017089844)"><path fill="rgb(97,91,224)" fill-opacity="1" d=" M17.726999282836914,15.378000259399414 C12.602999687194824,13.743000030517578 10.562000274658203,14.14799976348877 8.494000434875488,8.210000038146973 C6.214000225067139,1.5980000495910645 2.760999917984009,-6.565999984741211 4.080999851226807,-16.67099952697754 C4.080999851226807,-16.67099952697754 -9.085000038146973,-27.82699966430664 -9.085000038146973,-27.82699966430664 C-9.085000038146973,-27.82699966430664 -22.934999465942383,-15.090999603271484 -25.704999923706055,-11.526000022888184 C-20.32200050354004,-16.937999725341797 -10.932000160217285,26.95800018310547 3.8410000801086426,27.826000213623047 C9.067999839782715,27.548999786376953 14.23799991607666,26.600000381469727 19.222999572753906,25 C25.704999923706055,22.9689998626709 22.841999053955078,17.02199935913086 17.726999282836914,15.378000259399414z"></path></g><g opacity="1" transform="matrix(1,0,0,1,87.9739990234375,390.48699951171875)"><path fill="rgb(53,15,83)" fill-opacity="1" d=" M-12.704999923706055,-17.030000686645508 C-16.804000854492188,-11.784000396728516 -0.8410000205039978,14.149999618530273 4.486999988555908,18.98900032043457 C7.422999858856201,21.676000595092773 12.029999732971191,22.44300079345703 16.804000854492188,22.295000076293945 C2.0769999027252197,21.45400047302246 -7.322000026702881,-22.441999435424805 -12.704999923706055,-17.030000686645508z"></path></g><g opacity="1" transform="matrix(1,0,0,1,94.21399688720703,377.41900634765625)"><path fill="rgb(53,15,83)" fill-opacity="1" d=" M-3.065000057220459,-3.8980000019073486 C-7.9770002365112305,0.3409999907016754 -2.6589999198913574,9.031999588012695 2.6589999198913574,3.2790000438690186 C7.9770002365112305,-2.4749999046325684 2.871999979019165,-9.032999992370605 -3.065000057220459,-3.8980000019073486z"></path></g><g opacity="1" transform="matrix(1,0,0,1,223.26300048828125,59.78499984741211)"><path fill="rgb(144,120,237)" fill-opacity="1" d=" M-12.07699966430664,17.2189998626709 C-12.07699966430664,17.2189998626709 -8.973999977111816,13.10099983215332 -8.973999977111816,13.10099983215332 C-1.5880000591278076,11.899999618530273 4.017000198364258,11.383000373840332 10.829999923706055,3.6710000038146973 C14.190999984741211,-0.6050000190734863 16.572999954223633,-2.885999917984009 17.292999267578125,-8.168999671936035 C18.013999938964844,-13.451000213623047 14.015999794006348,-17.2189998626709 9.980999946594238,-14.458000183105469 C7.931000232696533,-13.053999900817871 0.5170000195503235,-5.998000144958496 -2.6689999103546143,-8.048999786376953 C-9.324999809265137,-12.343000411987305 -7.099999904632568,2.7839999198913574 -18.013999938964844,8.243000030517578 C-18.013999938964844,8.243000030517578 -12.048999786376953,17.2189998626709 -12.048999786376953,17.2189998626709"></path></g><g opacity="1" transform="matrix(1,0,0,1,229.76800537109375,45.659000396728516)"><path fill="rgb(255,255,255)" fill-opacity="1" d=" M-10.298999786376953,17.500999450683594 C-10.298999786376953,17.500999450683594 -6.827000141143799,-17.06800079345703 -6.827000141143799,-17.06800079345703 C-6.824999809265137,-18.18600082397461 -6.0320000648498535,-19.145000457763672 -4.934999942779541,-19.35700035095215 C-4.934999942779541,-19.35700035095215 8.157999992370605,-20.34600067138672 8.157999992370605,-20.34600067138672 C9.42300033569336,-20.43899917602539 10.446999549865723,-19.04400062561035 10.300000190734863,-17.42799949645996 C10.300000190734863,-17.42799949645996 6.974999904632568,18.1200008392334 6.974999904632568,18.1200008392334 C6.999000072479248,19.29400062561035 6.129000186920166,20.29599952697754 4.9629998207092285,20.437999725341797 C4.9629998207092285,20.437999725341797 -8.267999649047852,20.437999725341797 -8.267999649047852,20.437999725341797 C-9.505000114440918,20.437999725341797 -10.446000099182129,19.062000274658203 -10.298999786376953,17.500999450683594z"></path></g><g opacity="1" transform="matrix(1,0,0,1,198.8979949951172,88.58599853515625)"><path fill="rgb(55,32,133)" fill-opacity="1" d=" M-15.871000289916992,-3.3529999256134033 C-9.758999824523926,-7.896999835968018 -1.597000002861023,-14.223999977111816 6.288000106811523,-20.55900001525879 C6.288000106811523,-20.55900001525879 15.871999740600586,-6.151000022888184 15.871999740600586,-6.151000022888184 C4.8480000495910645,3.6019999980926514 -4.247000217437744,13.244000434875488 -11.586999893188477,20.55900001525879 C-11.586999893188477,20.55900001525879 -15.871000289916992,-3.3529999256134033 -15.871000289916992,-3.3529999256134033z"></path></g><g opacity="1" transform="matrix(1,0,0,1,138.24600219726562,307.3949890136719)"><path fill="rgb(53,15,83)" fill-opacity="1" d=" M4.359000205993652,-49.983001708984375 C6.307000160217285,-36.35100173950195 7.802000045776367,-20.624000549316406 7.802000045776367,-20.624000549316406 C1.50600004196167,-14.182000160217285 -4.435999870300293,-7.406000137329102 -9.99899959564209,-0.3230000138282776 C-18.79800033569336,10.9350004196167 -46.43199920654297,49.834999084472656 -46.43199920654297,49.834999084472656 C-46.43199920654297,49.834999084472656 -30.4689998626709,63.34700012207031 -30.4689998626709,63.34700012207031 C-30.4689998626709,63.34700012207031 43.551998138427734,-8.755000114440918 44.992000579833984,-13.668999671936035 C46.43199920654297,-18.582000732421875 44.58599853515625,-49.1150016784668 44.512001037597656,-63.34700012207031 C44.512001037597656,-63.34700012207031 4.359000205993652,-49.983001708984375 4.359000205993652,-49.983001708984375z"></path></g><g opacity="1" transform="matrix(1,0,0,1,295.6629943847656,370.0400085449219)"><path fill="rgb(97,91,224)" fill-opacity="1" d=" M-30.326000213623047,-0.3970000147819519 C-30.326000213623047,-0.3970000147819519 -20.75200080871582,22.211999893188477 -17.066999435424805,24.05900001525879 C-13.383999824523926,25.9060001373291 17.094999313354492,3.7960000038146973 22.339000701904297,-2.6600000858306885 C27.58300018310547,-9.114999771118164 30.325000762939453,-20.36400032043457 26.954999923706055,-23.134000778198242 C23.584999084472656,-25.9060001373291 19.27400016784668,-19.135000228881836 12.829000473022461,-15.746999740600586 C9.13599967956543,-13.835000038146973 -8.463000297546387,-8.6899995803833 -17.058000564575195,-12.37600040435791"></path></g><g opacity="1" transform="matrix(1,0,0,1,227.40899658203125,303.0220031738281)"><path fill="rgb(53,15,83)" fill-opacity="1" d=" M-51.72200012207031,-56.4900016784668 C-30.836999893188477,-16.055999755859375 35.104000091552734,69.83499908447266 35.104000091552734,69.83499908447266 C35.104000091552734,69.83499908447266 51.72200012207031,54.790000915527344 51.72200012207031,54.790000915527344 C51.72200012207031,54.790000915527344 9.251999855041504,-37.7400016784668 -6.7210001945495605,-69.83399963378906 C-6.7210001945495605,-69.83399963378906 -51.72200012207031,-56.4900016784668 -51.72200012207031,-56.4900016784668z"></path></g><g opacity="1" transform="matrix(1,0,0,1,281.8190002441406,377.0639953613281)"><path fill="rgb(53,15,83)" fill-opacity="1" d=" M-4.708000183105469,1.4359999895095825 C-2.4549999237060547,8.187000274658203 6.960999965667725,4.909999847412109 4.910999774932861,-1.6390000581741333 C2.8610000610351562,-8.187000274658203 -6.960999965667725,-5.324999809265137 -4.708000183105469,1.4359999895095825z"></path></g><g opacity="1" transform="matrix(1,0,0,1,163,187.43899536132812)"><path fill="rgb(255,223,223)" fill-opacity="1" d=" M93.1510009765625,-93.17400360107422 C177.17100524902344,-119.08899688720703 187.3820037841797,8.11400032043457 108.52400207519531,32.6150016784668 C83.59400177001953,40.34600067138672 -35.362998962402344,76.06900024414062 -81.4260025024414,90.35600280761719 C-174.0970001220703,119.08899688720703 -196.1999969482422,-11.954999923706055 -103.76000213623047,-38.30400085449219 C-65.1760025024414,-49.30400085449219 72.69100189208984,-86.86599731445312 93.1510009765625,-93.17400360107422z"></path></g><g opacity="1" transform="matrix(1,0,0,1,169.13999938964844,184.96499633789062)"><path fill="rgb(222,179,179)" fill-opacity="1" d=" M61.176998138427734,39.308998107910156 C64.83899688720703,38.21200180053711 67.17900085449219,34.63600158691406 66.71700286865234,30.84000015258789 C66.71700286865234,30.84000015258789 55.332000732421875,-63.52899932861328 55.332000732421875,-63.52899932861328 C55.058998107910156,-65.7969970703125 53.8129997253418,-67.83399963378906 51.91699981689453,-69.10900115966797 C50.02199935913086,-70.38400268554688 47.66600036621094,-70.77100372314453 45.46200180053711,-70.16899871826172 C45.46200180053711,-70.16899871826172 -60.86399841308594,-41.816001892089844 -60.86399841308594,-41.816001892089844 C-64.69000244140625,-40.82400131225586 -67.17900085449219,-37.13800048828125 -66.6719970703125,-33.21699905395508 C-66.6719970703125,-33.21699905395508 -54.25299835205078,63.5890007019043 -54.25299835205078,63.5890007019043 C-53.959999084472656,65.86299896240234 -52.689998626708984,67.89399719238281 -50.775001525878906,69.1520004272461 C-48.861000061035156,70.41100311279297 -46.492000579833984,70.77100372314453 -44.29100036621094,70.13800048828125 C-44.29100036621094,70.13800048828125 61.176998138427734,39.308998107910156 61.176998138427734,39.308998107910156z"></path></g><g opacity="1" transform="matrix(1,0,0,1,197.88699340820312,239.32000732421875)"><path fill="rgb(179,156,247)" fill-opacity="1" d=" M-13.22599983215332,7.0920000076293945 C-13.22599983215332,7.0920000076293945 -6.448999881744385,14.720999717712402 -3.5309998989105225,13.954000473022461 C-0.6140000224113464,13.187999725341797 12.303000450134277,6.085999965667725 12.765000343322754,4.23799991607666 C13.22700023651123,2.3919999599456787 5.377999782562256,-14.722000122070312 5.377999782562256,-14.722000122070312 C5.377999782562256,-14.722000122070312 -8.53600025177002,-14.371000289916992 -8.53600025177002,-14.371000289916992 C-8.53600025177002,-14.371000289916992 -10.687000274658203,-6.124000072479248 -9.255000114440918,-2.6419999599456787 C-8.13700008392334,-0.0949999988079071 -6.8480000495910645,2.374000072479248 -5.395999908447266,4.745999813079834 C-5.395999908447266,4.745999813079834 -13.22599983215332,7.0920000076293945 -13.22599983215332,7.0920000076293945z"></path></g><g opacity="1" transform="matrix(1,0,0,1,153.62899780273438,150.4080047607422)"><path fill="rgb(59,49,170)" fill-opacity="1" d=" M29.277000427246094,-69.39600372314453 C25.417999267578125,-75.07599639892578 12.057000160217285,-71.91600036621094 3.5169999599456787,-76.17400360107422 C-3.250999927520752,-66.13500213623047 -37.55099868774414,-61.83100128173828 -32.07600021362305,-76.3499984741211 C-39.064998626708984,-72.86799621582031 -48.797000885009766,-69.44200134277344 -49.183998107910156,-62.79199981689453 C-49.67399978637695,-54.268001556396484 -39.130001068115234,-16.614999771118164 -39.130001068115234,-16.614999771118164 C-39.130001068115234,-16.614999771118164 6.675000190734863,-29.257999420166016 6.675000190734863,-29.257999420166016 C6.675000190734863,-29.257999420166016 32.13100051879883,76.3499984741211 32.13100051879883,76.3499984741211 C32.13100051879883,76.3499984741211 49.67300033569336,74.20800018310547 49.67300033569336,74.20800018310547 C49.67300033569336,74.20800018310547 34.79800033569336,-61.27799987792969 29.277000427246094,-69.39600372314453z"></path></g><g opacity="1" transform="matrix(1,0,0,1,136.81100463867188,44.70800018310547)"><path fill="rgb(179,156,247)" fill-opacity="1" d=" M20.336000442504883,29.517000198364258 C20.336000442504883,29.517000198364258 20.336000442504883,29.517000198364258 20.336000442504883,29.517000198364258 C16.64299964904785,27.670000076293945 13.871999740600586,24.46500015258789 13.12399959564209,18.545000076293945 C29.08799934387207,15.67300033569336 23.780000686645508,-6.473999977111816 18.04599952697754,-24.46500015258789 C14.666999816894531,-35.05799865722656 4.824999809265137,-43.86000061035156 -8.378000259399414,-40.16600036621094 C-28.69099998474121,-34.560001373291016 -29.089000701904297,-19.08099937438965 -20.381999969482422,-7.1020002365112305 C-7.964000225067139,9.890999794006348 -2.4779999256134033,18.554000854492188 -9.302000045776367,25.51799964904785 C-11.090999603271484,27.093000411987305 -13.107999801635742,28.388999938964844 -15.28499984741211,29.360000610351562 C-20.73200035095215,43.86000061035156 13.595999717712402,39.555999755859375 20.336000442504883,29.517000198364258z"></path></g><g opacity="1" transform="matrix(1,0,0,1,270.2909851074219,159.16799926757812)"><path fill="rgb(255,238,238)" fill-opacity="1" d=" M28.673999786376953,-31.645999908447266 C24.05699920654297,-12.130999565124512 15.505999565124512,23.232999801635742 9.440999984741211,41.07600021362305 C-1.2790000438690186,72.61499786376953 -35.96699905395508,57.95899963378906 -29.790000915527344,30.492000579833984 C-25.884000778198242,13.10099983215332 -18.110000610351562,-28.496000289916992 -11.527000427246094,-46.41299819946289 C-1.906000018119812,-72.61399841308594 35.96799850463867,-62.520999908447266 28.673999786376953,-31.645999908447266z"></path></g><g opacity="1" transform="matrix(1,0,0,1,67.7760009765625,216.80799865722656)"><path fill="rgb(255,238,238)" fill-opacity="1" d=" M28.67300033569336,-31.645999908447266 C24.055999755859375,-12.130999565124512 15.505999565124512,23.222000122070312 9.440999984741211,41.066001892089844 C-1.2790000438690186,72.61499786376953 -35.96699905395508,57.95800018310547 -29.790000915527344,30.490999221801758 C-25.885000228881836,13.100000381469727 -18.111000061035156,-28.496999740600586 -11.527000427246094,-46.41400146484375 C-1.906999945640564,-72.61499786376953 35.96699905395508,-62.529998779296875 28.67300033569336,-31.645999908447266z"></path></g><g opacity="1" transform="matrix(1,0,0,1,168.41000366210938,183.697998046875)"><path fill="rgb(197,153,153)" fill-opacity="1" d=" M-119.56600189208984,70.06500244140625 C-119.56600189208984,66.96299743652344 -116.00199890136719,66.03900146484375 -116.00199890136719,69.03099822998047 C-116.00199890136719,72.02300262451172 -119.56600189208984,72.9469985961914 -119.56600189208984,70.06500244140625z M-95.08000183105469,63.15700149536133 C-95.08000183105469,60.082000732421875 -91.50700378417969,59.15800094604492 -91.50700378417969,62.12300109863281 C-91.50700378417969,65.08799743652344 -95.08000183105469,66.02999877929688 -95.08000183105469,63.15700149536133z M-70.5479965209961,56.2400016784668 C-70.5479965209961,53.21099853515625 -66.9749984741211,52.27799987792969 -66.9749984741211,55.21500015258789 C-66.9749984741211,58.152000427246094 -70.5479965209961,59.11199951171875 -70.5479965209961,56.2400016784668z M-46.01599884033203,49.332000732421875 C-46.01599884033203,46.33000183105469 -42.44300079345703,45.433998107910156 -42.44300079345703,48.30699920654297 C-42.44300079345703,51.17900085449219 -46.01599884033203,52.19499969482422 -46.01599884033203,49.332000732421875z M-122.48400115966797,46.191001892089844 C-122.48400115966797,43.0890007019043 -118.91000366210938,42.165000915527344 -118.91000366210938,45.15700149536133 C-118.91000366210938,48.14899826049805 -122.48400115966797,49.073001861572266 -122.48400115966797,46.191001892089844z M-21.493000030517578,42.41400146484375 C-21.493000030517578,39.45899963378906 -17.910999298095703,38.53499984741211 -17.910999298095703,41.39799880981445 C-17.910999298095703,44.262001037597656 -21.493000030517578,45.2869987487793 -21.493000030517578,42.41400146484375z M-97.95099639892578,39.28300094604492 C-97.95099639892578,36.20800018310547 -94.37899780273438,35.284000396728516 -94.37899780273438,38.249000549316406 C-94.37899780273438,41.2140007019043 -97.95099639892578,42.15599822998047 -97.95099639892578,39.28300094604492z M3.0380001068115234,35.50600051879883 C3.0380001068115234,32.577999114990234 6.619999885559082,31.607999801635742 6.619999885559082,34.48099899291992 C6.619999885559082,37.35300064086914 3.0380001068115234,38.36899948120117 3.0380001068115234,35.50600051879883z M-73.4010009765625,32.36600112915039 C-73.4010009765625,29.382999420166016 -69.8280029296875,28.40399932861328 -69.8280029296875,31.340999603271484 C-69.8280029296875,34.27799987792969 -73.4010009765625,35.237998962402344 -73.4010009765625,32.36600112915039z M-48.88800048828125,25.45800018310547 C-48.88800048828125,22.45599937438965 -45.314998626708984,21.559999465942383 -45.314998626708984,24.43199920654297 C-45.314998626708984,27.30500030517578 -48.88800048828125,28.320999145507812 -48.88800048828125,25.45800018310547z M-125.88999938964844,23.749000549316406 C-125.88999938964844,20.645999908447266 -122.32599639892578,19.722999572753906 -122.32599639892578,22.71500015258789 C-122.32599639892578,25.707000732421875 -125.88999938964844,26.621000289916992 -125.88999938964844,23.749000549316406z M52.10200119018555,21.680999755859375 C52.10200119018555,18.82699966430664 55.694000244140625,17.802000045776367 55.694000244140625,20.663999557495117 C55.694000244140625,23.527999877929688 52.10200119018555,24.534000396728516 52.10200119018555,21.680999755859375z M-24.364999771118164,18.540000915527344 C-24.364999771118164,15.585000038146973 -20.781999588012695,14.66100025177002 -20.781999588012695,17.52400016784668 C-20.781999588012695,20.38800048828125 -24.364999771118164,21.41200065612793 -24.364999771118164,18.540000915527344z M-101.35900115966797,16.832000732421875 C-101.35900115966797,13.765000343322754 -97.78500366210938,12.842000007629395 -97.78500366210938,15.807000160217285 C-97.78500366210938,18.770999908447266 -101.35900115966797,19.71299934387207 -101.35900115966797,16.832000732421875z M76.625,14.772000312805176 C76.625,11.954999923706055 80.22599792480469,10.8100004196167 80.22599792480469,13.755999565124512 C80.22599792480469,16.545000076293945 76.625,17.625999450683594 76.625,14.772000312805176z M0.16699999570846558,11.631999969482422 C0.16699999570846558,8.704000473022461 3.749000072479248,7.735000133514404 3.749000072479248,10.607000350952148 C3.749000072479248,13.479000091552734 0.16699999570846558,14.494999885559082 0.16699999570846558,11.631999969482422z M-76.82599639892578,9.923999786376953 C-76.82599639892578,6.894000053405762 -73.25399780273438,5.960999965667725 -73.25399780273438,8.89799976348877 C-73.25399780273438,11.835000038146973 -76.82599639892578,12.795999526977539 -76.82599639892578,9.923999786376953z M101.15599822998047,7.855000019073486 C101.15599822998047,5.074999809265137 104.79399871826172,3.8929998874664307 104.75800323486328,6.8480000495910645 C104.75800323486328,9.609999656677246 101.15599822998047,10.708000183105469 101.15599822998047,7.855000019073486z M-52.30400085449219,3.015000104904175 C-52.30400085449219,0.014000000432133675 -48.72100067138672,-0.9010000228881836 -48.72100067138672,1.9809999465942383 C-48.72100067138672,4.86299991607666 -52.30400085449219,5.877999782562256 -52.30400085449219,3.015000104904175z M125.68900299072266,0.9470000267028809 C125.68900299072266,-1.7970000505447388 129.28799438476562,-3.0250000953674316 129.28799438476562,-0.05999999865889549 C129.28799438476562,2.6740000247955322 125.68900299072266,3.7909998893737793 125.68900299072266,0.9470000267028809z M-129.28799438476562,0.1340000033378601 C-129.28799438476562,-2.941999912261963 -125.71499633789062,-3.8929998874664307 -125.71499633789062,-0.9010000228881836 C-125.71499633789062,2.0920000076293945 -129.28799438476562,3.015000104904175 -129.28799438476562,0.1340000033378601z M49.23099899291992,-2.193000078201294 C49.23099899291992,-5.038000106811523 52.823001861572266,-6.072000026702881 52.823001861572266,-3.2100000381469727 C52.823001861572266,-0.34599998593330383 49.23099899291992,0.6600000262260437 49.23099899291992,-2.193000078201294z M-27.77199935913086,-3.865000009536743 C-27.77199935913086,-6.857999801635742 -24.190000534057617,-7.76200008392334 -24.190000534057617,-4.889999866485596 C-24.190000534057617,-2.0179998874664307 -27.77199935913086,-1.0019999742507935 -27.77199935913086,-3.865000009536743z M-104.79299926757812,-6.775000095367432 C-104.79299926757812,-9.850000381469727 -101.22000122070312,-10.77400016784668 -101.22000122070312,-7.809000015258789 C-101.22000122070312,-4.843999862670898 -104.79299926757812,-3.9019999504089355 -104.79299926757812,-6.775000095367432z M73.75299835205078,-9.10200023651123 C73.75299835205078,-11.918999671936035 77.35399627685547,-13.053999900817871 77.35399627685547,-10.118000030517578 C77.35399627685547,-7.328000068664551 73.75299835205078,-6.248000144958496 73.75299835205078,-9.10200023651123z M-3.2309999465942383,-10.8100004196167 C-3.2309999465942383,-13.73799991607666 0.35199999809265137,-14.708000183105469 0.35199999809265137,-11.836000442504883 C0.35199999809265137,-8.963000297546387 -3.2309999465942383,-7.947000026702881 -3.2309999465942383,-10.8100004196167z M-80.2239990234375,-13.692000389099121 C-80.2239990234375,-16.72100067138672 -76.6510009765625,-17.65399932861328 -76.6510009765625,-14.717000007629395 C-76.6510009765625,-11.779999732971191 -80.2239990234375,-10.819000244140625 -80.2239990234375,-13.692000389099121z M98.33100128173828,-16.018999099731445 C98.33100128173828,-18.790000915527344 101.88500213623047,-19.972000122070312 101.93099975585938,-17.025999069213867 C101.93099975585938,-14.263999938964844 98.33100128173828,-13.164999961853027 98.33100128173828,-16.018999099731445z M-55.69300079345703,-20.600000381469727 C-55.69300079345703,-23.591999053955078 -52.11899948120117,-24.496999740600586 -52.11899948120117,-21.625 C-52.11899948120117,-18.753000259399414 -55.69300079345703,-17.72800064086914 -55.69300079345703,-20.600000381469727z M122.81800079345703,-22.927000045776367 C122.81800079345703,-25.67099952697754 126.41799926757812,-26.888999938964844 126.41799926757812,-23.93400001525879 C126.41799926757812,-21.200000762939453 122.81800079345703,-20.08300018310547 122.81800079345703,-22.927000045776367z M45.814998626708984,-24.63599967956543 C45.814998626708984,-27.489999771118164 49.40700149536133,-28.514999389648438 49.40700149536133,-25.652000427246094 C49.40700149536133,-22.788999557495117 45.814998626708984,-21.781999588012695 45.814998626708984,-24.63599967956543z M-31.170000076293945,-27.507999420166016 C-31.170000076293945,-30.472999572753906 -27.586999893188477,-31.405000686645508 -27.586999893188477,-28.533000946044922 C-27.586999893188477,-25.660999298095703 -31.170000076293945,-24.645000457763672 -31.170000076293945,-27.507999420166016z M70.34600067138672,-31.57200050354004 C70.34600067138672,-34.34199905395508 73.947998046875,-35.50600051879883 73.947998046875,-32.57899856567383 C73.947998046875,-29.788999557495117 70.34600067138672,-28.718000411987305 70.34600067138672,-31.57200050354004z M-6.638000011444092,-34.42599868774414 C-6.638000011444092,-37.34400177001953 -3.055000066757202,-38.30500030517578 -3.055000066757202,-35.44200134277344 C-3.055000066757202,-32.57899856567383 -6.638000011444092,-31.562999725341797 -6.638000011444092,-34.42599868774414z M94.87799835205078,-38.46200180053711 C94.87799835205078,-41.24100112915039 98.47799682617188,-42.42300033569336 98.47799682617188,-39.46799850463867 C98.47799682617188,-36.707000732421875 94.87799835205078,-35.608001708984375 94.87799835205078,-38.46200180053711z M119.40899658203125,-45.37900161743164 C119.40899658203125,-48.112998962402344 123.01000213623047,-49.340999603271484 123.01000213623047,-46.37699890136719 C123.01000213623047,-43.643001556396484 119.40899658203125,-42.5260009765625 119.40899658203125,-45.37900161743164z M42.42599868774414,-48.250999450683594 C42.42599868774414,-51.09600067138672 46.018001556396484,-52.08399963378906 46.018001556396484,-49.266998291015625 C46.018001556396484,-46.45000076293945 42.42599868774414,-45.38800048828125 42.42599868774414,-48.250999450683594z M66.93900299072266,-55.159000396728516 C66.93900299072266,-57.97600173950195 70.54900360107422,-59.11199951171875 70.54000091552734,-56.17499923706055 C70.54000091552734,-53.38600158691406 66.93900299072266,-52.305999755859375 66.93900299072266,-55.159000396728516z M91.4800033569336,-62.04899978637695 C91.4800033569336,-64.81999969482422 95.08100128173828,-66.02999877929688 95.08100128173828,-63.055999755859375 C95.08100128173828,-60.29499816894531 91.4800033569336,-59.19499969482422 91.4800033569336,-62.04899978637695z M116.01300048828125,-68.98500061035156 C116.01300048828125,-71.72799682617188 119.61299896240234,-72.9469985961914 119.61299896240234,-69.99199676513672 C119.61299896240234,-67.2490005493164 116.01300048828125,-66.14099884033203 116.01300048828125,-68.98500061035156z"></path></g><g opacity="1" transform="matrix(1,0,0,1,153.07000732421875,119.93599700927734)"><path fill="rgb(55,32,133)" fill-opacity="1" d=" M7.234000205993652,1.159000039100647 C5.830999851226807,-4.640999794006348 3.061000108718872,-5.1579999923706055 0.09700000286102295,-4.640999794006348 C-2.867000102996826,-4.124000072479248 -7.234000205993652,5.1579999923706055 -7.234000205993652,5.1579999923706055 C-7.234000205993652,5.1579999923706055 7.234000205993652,1.159000039100647 7.234000205993652,1.159000039100647z"></path></g><g opacity="1" transform="matrix(1,0,0,1,189.22999572753906,245.92300415039062)"><path fill="rgb(144,120,237)" fill-opacity="1" d=" M3.25,-1.875 C4.570000171661377,-0.027000000700354576 3.934000015258789,1.875 1.6990000009536743,1.7359999418258667 C-0.41499999165534973,1.4559999704360962 -2.509000062942505,1.0390000343322754 -4.570000171661377,0.48899999260902405 C-4.570000171661377,0.48899999260902405 3.25,-1.875 3.25,-1.875z"></path></g></g><g transform="matrix(1,0,0,1,0,12)" opacity="1" style="display: block;"><g opacity="1" transform="matrix(1,0,0,1,216.1540069580078,57.244998931884766)"><path fill="rgb(179,156,247)" fill-opacity="1" d=" M-10.932000160217285,10.781999588012695 C-8.052000045776367,8.418000221252441 -6.619999885559082,6.636000156402588 -5.447999954223633,3.9030001163482666 C-3.684999942779541,-0.1889999955892563 0.721186101436615,-6.951120853424072 4.202282905578613,-6.583991527557373 C7.400681018829346,-6.246829509735107 11.339622497558594,-5.567859172821045 13.600820541381836,-4.372563362121582 C15.341577529907227,-3.451969861984253 14.148109436035156,-0.49645522236824036 12.525346755981445,-0.5817998647689819 C9.344249725341797,-0.7520644664764404 7.7185750007629395,-1.93588125705719 6.285984992980957,-1.0467697381973267 C4.528207778930664,0.04862438887357712 7.407272815704346,3.4391324520111084 4.825933456420898,5.79692268371582 C0.8920515775680542,9.387386322021484 -7.239999771118164,16.43400001525879 -7.239999771118164,16.43400001525879 C-7.239999771118164,16.43400001525879 -10.932000160217285,10.781999588012695 -10.932000160217285,10.781999588012695z"></path></g></g><g transform="matrix(1,0,0,1,0,12)" opacity="1" style="display: block;"><g opacity="1" transform="matrix(1,0,0,1,99.69400024414062,57.96099853515625)"><path fill="rgb(53,15,83)" fill-opacity="1" d=" M19.874000549316406,-53.604000091552734 C17.8439998626709,-52.53200149536133 16.093000411987305,-51.3849983215332 14.581999778747559,-50.17900085449219 C13.562999725341797,-49.36600112915039 12.652000427246094,-48.5260009765625 11.83899974822998,-47.665000915527344 C10.984999656677246,-46.76100158691406 10.237000465393066,-45.83300018310547 9.581000328063965,-44.88600158691406 C8.708000183105469,-43.625 7.998000144958496,-42.332000732421875 7.419000148773193,-41.020999908447266 C6.811999797821045,-39.64799880981445 6.3480000495910645,-38.255001068115234 5.98799991607666,-36.856998443603516 C5.728000164031982,-35.84700012207031 5.5229997634887695,-34.834999084472656 5.35699987411499,-33.82600021362305 C5.11899995803833,-32.37699890136719 4.9629998207092285,-30.937000274658203 4.8460001945495605,-29.520000457763672 C4.301000118255615,-22.906999588012695 4.611000061035156,-16.83300018310547 1.4079999923706055,-13.079000473022461 C-4.4730000495910645,-6.179999828338623 -14.942999839782715,-8.812000274658203 -20.677000045776367,-4.572999954223633 C-27.41699981689453,0.3959999978542328 -21.99799919128418,10.767999649047852 -27.139999389648438,15.33899974822998 C-32.28300094604492,19.910999298095703 -45.39400100708008,18.211000442504883 -52.069000244140625,26.875 C-60.75699996948242,38.1609992980957 -46.44599914550781,57.96099853515625 -16.52199935913086,47.89500045776367 C23.540000915527344,34.41999816894531 43.731998443603516,-0.39800000190734863 48.736000061035156,-13.3100004196167 C45.965999603271484,-16.68000030517578 42.27299880981445,-22.065000534057617 44.74800109863281,-26.23900032043457 C47.22200012207031,-30.413999557495117 50.50899887084961,-25.159000396728516 50.50899887084961,-21.29800033569336 C58.051998138427734,-27.716999053955078 60.75699996948242,-41.51499938964844 53.7400016784668,-50.334999084472656 C48.56100082397461,-56.83599853515625 35.71799850463867,-61.97200012207031 19.874000549316406,-53.604000091552734z"></path></g></g></g></svg>