<?xml version="1.0" encoding="UTF-8"?>
<svg width="900px" height="900px" viewBox="0 0 900 900" version="1.1" xmlns="http://www.w3.org/2000/svg" xmlns:xlink="http://www.w3.org/1999/xlink">
    <title>Illustrations/Virtual-Practice</title>
    <g id="Illustrations/Virtual-Practice" stroke="none" stroke-width="1" fill="none" fill-rule="evenodd">
        <g id="Virtual-Practice" transform="translate(43.000000, 46.000000)">
            <path d="M353.18,807.58 C353.18,807.58 761.18,654.5 796.18,641.31 C807.23,637.15 805.18,634.31 793.61,633.99 C777.95,633.52 711.86,632.42 711.86,632.42 L401.55,668.31 L125.46,764.55 L353.18,807.58 Z" id="Path" fill="#FFEFEF" fill-rule="nonzero"></path>
            <polygon id="Path" fill="#F4CECE" fill-rule="nonzero" points="665.77 315.15 564.54 331.43 567.22 649.44 667.7 654.52"></polygon>
            <polygon id="Path" fill="#FFEFEF" fill-rule="nonzero" points="747.32 639.98 665.6 654.52 657.57 330.95 739.73 414.36"></polygon>
            <polygon id="Path" fill="#F4CECE" fill-rule="nonzero" points="734.94 448.5 722.79 438.6 721.43 395.78 733.61 408.15"></polygon>
            <polygon id="Path" fill="#F4CECE" fill-rule="nonzero" points="714.54 431.87 699.61 419.71 698.23 372.22 713.17 387.39"></polygon>
            <polygon id="Path" fill="#FFEFEF" fill-rule="nonzero" points="689.36 411.35 670.6 396.05 669.21 342.76 687.97 361.82"></polygon>
            <polygon id="Path" fill="#F4CECE" fill-rule="nonzero" points="745.66 403.54 665.77 315.15 657.57 330.95 739.73 414.36"></polygon>
            <polygon id="Path" fill="#F4CECE" fill-rule="nonzero" points="736.95 509.21 724.83 503.04 723.46 459.82 735.6 468.5"></polygon>
            <polygon id="Path" fill="#F4CECE" fill-rule="nonzero" points="716.6 498.85 701.7 491.26 700.3 443.26 715.22 453.92"></polygon>
            <polygon id="Path" fill="#FFEFEF" fill-rule="nonzero" points="691.46 486.05 672.69 476.49 671.28 422.51 690.05 435.93"></polygon>
            <polygon id="Path" fill="#F4CECE" fill-rule="nonzero" points="744.87 466.36 659.31 401.13 659.64 414.18 741.7 472.86"></polygon>
            <polygon id="Path" fill="#F4CECE" fill-rule="nonzero" points="739.1 574.57 727.03 572.48 725.52 524.77 737.62 529.66"></polygon>
            <polygon id="Path" fill="#F4CECE" fill-rule="nonzero" points="718.83 571.07 703.96 568.5 702.41 515.41 717.3 521.44"></polygon>
            <polygon id="Path" fill="#F4CECE" fill-rule="nonzero" points="693.73 566.74 674.96 563.5 673.4 503.68 692.17 511.27"></polygon>
            <polygon id="Path" fill="#F4CECE" fill-rule="nonzero" points="747.61 524.77 661.41 485.67 661.74 498.96 743.69 532.12"></polygon>
            <polygon id="Path" fill="#F4CECE" fill-rule="nonzero" points="739.79 595.49 727.74 594.73 729.28 643.19 741.3 641.05"></polygon>
            <polygon id="Path" fill="#F4CECE" fill-rule="nonzero" points="719.54 594.21 675.69 591.44 677.28 652.44 721.1 644.65"></polygon>
            <polygon id="Path" fill="#F4CECE" fill-rule="nonzero" points="749.24 586.89 663.68 577.14 664.02 590.7 745.84 595.87"></polygon>
            <path d="M378.2,638.24 L377.51,182.94 C377.51,165.24 389.11,147.65 403.65,143.62 L580.84,94.47 C598.94,89.47 614.4,101.57 614.98,121.67 L630.05,642.47 C630.71,665.16 615.05,683.09 595.59,682.34 L406.06,675.07 C390.62,674.48 378.23,657.93 378.2,638.24 Z" id="Path" fill="#CAB8FA" fill-rule="nonzero"></path>
            <path d="M393.94,636.15 L393.26,193.29 C393.26,176.06 404.55,158.96 418.69,155.03 L591,107.23 C608.61,102.34 623.64,114.14 624.21,133.68 L638.87,640.26 C639.51,662.34 624.31,679.78 605.35,679.05 L421,672 C406,671.4 394,655.3 393.94,636.15 Z" id="Path" fill="#CAB8FA" fill-rule="nonzero"></path>
            <path d="M400,155.94 C392,158.1 385.53,167.8 385.559896,177.59 L386.83,639.21 C386.83,650.09 393.73,659.16 402.22,659.4 L592.53,664.87 C603.16,665.18 611.62,655.36 611.29,643.02 L597.16,122.83 C596.86,111.83 588.48,105.16 578.57,107.83 L400,155.94 Z" id="Path" fill="#9078EE" fill-rule="nonzero"></path>
            <path d="M423,144.9 L423.08,157.24 C423.08,163.02 426.71,166.84 431.08,165.74 L527.67,141.74 C532.96,140.42 537.15,134.16 536.98,127.8 L536.59,114 L423,144.9 Z" id="Path" fill="#CAB8FA" fill-rule="nonzero"></path>
            <path d="M620.24,118.6 C613.31,108.27 610.69,105.13 606.37,100.33 C602.05,95.53 597,103 597,103 L616.5,124.2 L620.24,118.6 Z" id="Path" fill="#CAB8FA" fill-rule="nonzero"></path>
            <path d="M606.2,680.84 C610.55,679.45 616.88,677.17 616.88,677.17 L610.12,669.26 L606.2,680.84 Z" id="Path" fill="#CAB8FA" fill-rule="nonzero"></path>
            <path d="M473.32,250.43 C473.56,273.06 458.76,294.38 440.58,297.9 C422.73,301.36 408.43,286.29 408.339571,264.39 C408.25,242.49 422.34,221.65 439.98,217.48 C458,213.23 473.08,227.9 473.32,250.43 Z" id="Path" fill="#625BE1" fill-rule="nonzero"></path>
            <path d="M447.08,283.62 L447.94,273.52 C447.94,273.52 442.85,268.42 440.75,266.34 C438.65,264.26 433.41,262.14 433.41,262.14 C436.07,269.41 435.62,276.37 433.16,284.27 L433.16,284.27 L438.59,298.2 C439.25,298.12 439.91,298.03 440.59,297.9 C441.786247,297.665454 442.965528,297.351424 444.12,296.96 L447.08,283.62 Z" id="Path" fill="#9078EE" fill-rule="nonzero"></path>
            <path d="M447.08,283.62 L444.08,296.97 C448.927234,295.318233 453.361327,292.640723 457.08,289.12 C453.857092,287.092686 450.518022,285.256198 447.08,283.62 L447.08,283.62 Z" id="Path" fill="#E0D4FD" fill-rule="nonzero"></path>
            <path d="M438.59,298.2 L433.16,284.27 C433.16,284.27 426.49,288.92 420.78,293.33 C425.829716,297.263368 432.241443,299.016603 438.59,298.2 L438.59,298.2 Z" id="Path" fill="#E0D4FD" fill-rule="nonzero"></path>
            <path d="M439,232.79 C448,228.03 455.73,230.95 457,246.95 C458.28,262.69 453.25,276.29 448.45,277.59 C444.5,278.65 439.54,276.69 434.55,265.26 C429.56,253.83 429.35,237.9 439,232.79 Z" id="Path" fill="#B39CF7" fill-rule="nonzero"></path>
            <path d="M456.84,244.79 C451.06,254.34 440.1,238.69 438.44,249.13 C437.79,253.2 437.23,258.53 437.23,258.53 C437.23,258.53 436.37,252.19 433.92,252.91 C431.47,253.63 431.72,257.91 433.41,262.14 C434.873328,265.961312 435.467701,270.060439 435.15,274.14 C434.55,278.79 424.63,273.66 425.38,264.46 C425.79,259.37 427.57,258.55 427.55,254.66 C427.53,250.77 420.19,247.95 422.79,238.1 C425.39,228.25 434.89,226.48 442.09,227.74 C452.45,229.6 462.42,235.57 456.84,244.79 Z" id="Path" fill="#372186" fill-rule="nonzero"></path>
            <path d="M563.59,328.33 L413.19,351.25 C410.68,351.63 408.64,349.68 408.629211,346.9 L408.629211,346.9 C408.585038,344.158185 410.466418,341.759531 413.14,341.15 L563.36,317.37 C564.731904,317.108578 566.148661,317.477618 567.218685,318.375121 C568.28871,319.272623 568.898679,320.603535 568.880417,322 L568.880417,322 C568.876865,325.11069 566.650694,327.774521 563.59,328.33 L563.59,328.33 Z" id="Path" fill="#625BE1"></path>
            <path d="M570.43,353.56 L413.3,375.29 C410.78,375.64 408.74,373.65 408.728788,370.85 L408.728788,370.85 C408.673917,368.109518 410.56982,365.714473 413.25,365.14 L570.19,342.5 C571.585033,342.262564 573.013476,342.656791 574.089258,343.576131 C575.16504,344.49547 575.777095,345.845009 575.760349,347.26 L575.760349,347.26 C575.771765,350.384048 573.512833,353.05408 570.43,353.56 L570.43,353.56 Z" id="Path" fill="#625BE1"></path>
            <path d="M534.63,384.41 L413.41,399.41 C410.89,399.73 408.84,397.7 408.83,394.89 L408.83,394.89 C408.761183,392.148111 410.671501,389.752833 413.36,389.21 L534.44,373.5 C535.809128,373.315207 537.190483,373.739536 538.219763,374.661079 C539.249044,375.582621 539.822904,376.90885 539.79,378.29 L539.79,378.29 C539.827575,381.32802 537.630677,383.933644 534.63,384.41 Z" id="Path" fill="#625BE1"></path>
            <polygon id="Path" fill="#F4CECE" fill-rule="nonzero" points="431.8 694.46 333.18 717.02 338.97 254.98 430.77 336.96"></polygon>
            <polygon id="Path" fill="#DEB3B3" fill-rule="nonzero" points="426.13 681.91 406.5 685.56 406.61 589.74 425.95 591.55"></polygon>
            <polygon id="Path" fill="#DEB3B3" fill-rule="nonzero" points="400.31 686.71 377.31 690.99 377.89 587.07 400.51 589.17"></polygon>
            <polygon id="Path" fill="#DEB3B3" fill-rule="nonzero" points="369.99 692.35 342.67 697.43 343.93 583.9 370.71 586.4"></polygon>
            <polygon id="Path" fill="#DEB3B3" fill-rule="nonzero" points="424.63 567.29 408.06 564.52 408.11 496.16 424.52 502.19"></polygon>
            <polygon id="Path" fill="#DEB3B3" fill-rule="nonzero" points="399.08 563.01 379.71 559.77 380.11 485.86 399.24 492.89"></polygon>
            <polygon id="Path" fill="#DEB3B3" fill-rule="nonzero" points="369.16 558 346.24 554.16 347.11 473.73 369.7 482.03"></polygon>
            <polygon id="Path" fill="#DEB3B3" fill-rule="nonzero" points="424.49 485.51 408.13 478.65 408.19 412.15 424.38 422.08"></polygon>
            <polygon id="Path" fill="#DEB3B3" fill-rule="nonzero" points="399.28 474.95 380.21 466.96 380.6 395.21 399.44 406.78"></polygon>
            <polygon id="Path" fill="#DEB3B3" fill-rule="nonzero" points="369.84 462.61 347.33 453.18 348.17 375.31 370.36 388.93"></polygon>
            <polygon id="Path" fill="#DEB3B3" fill-rule="nonzero" points="424.35 405.83 408.2 395.11 408.26 330.38 424.24 344.02"></polygon>
            <polygon id="Path" fill="#DEB3B3" fill-rule="nonzero" points="399.48 389.32 380.7 376.86 381.08 307.19 399.63 323.02"></polygon>
            <polygon id="Path" fill="#DEB3B3" fill-rule="nonzero" points="370.5 370.09 348.38 355.41 349.19 279.98 371 298.59"></polygon>
            <polygon id="Path" fill="#FFDFDF" fill-rule="nonzero" points="430.81 351.24 338.77 273.76 338.97 254.98 437.9 343.33"></polygon>
            <polygon id="Path" fill="#FFDFDF" fill-rule="nonzero" points="431.25 506.27 336.28 471.89 336.39 461.14 436.3 499.96"></polygon>
            <polygon id="Path" fill="#FFDFDF" fill-rule="nonzero" points="431.03 427.77 337.54 370.93 337.65 360.46 434.91 422.14"></polygon>
            <polygon id="Path" fill="#FFEFEF" fill-rule="nonzero" points="335.58 716.48 125.46 764.55 159.11 9.63 341.86 199.27"></polygon>
            <polygon id="Path" fill="#DEB3B3" fill-rule="nonzero" points="327.85 222.75 300.76 197.13 298.95 291.77 326.56 311.98"></polygon>
            <polygon id="Path" fill="#DEB3B3" fill-rule="nonzero" points="282.31 179.67 248.82 148 245.87 252.91 280.12 277.98"></polygon>
            <polygon id="Path" fill="#F4CECE" fill-rule="nonzero" points="341.86 199.27 159.11 9.63 156.84 40.09 341.42 214.69"></polygon>
            <polygon id="Path" fill="#F4CECE" fill-rule="nonzero" points="341.86 214.69 159.11 9.63 180.23 0.42 362.54 193.59"></polygon>
            <polygon id="Path" fill="#DEB3B3" fill-rule="nonzero" points="326.06 346.37 298.25 328.29 296.36 427.23 324.72 439.39"></polygon>
            <polygon id="Path" fill="#DEB3B3" fill-rule="nonzero" points="279.27 315.94 244.72 293.49 241.62 403.74 276.97 418.91"></polygon>
            <polygon id="Path" fill="#F4CECE" fill-rule="nonzero" points="353.18 345.49 150.45 204.25 149.24 231.42 339.97 355.4"></polygon>
            <polygon id="Path" fill="#DEB3B3" fill-rule="nonzero" points="324.2 475.25 295.63 465.42 293.65 568.96 322.8 572.33"></polygon>
            <polygon id="Path" fill="#DEB3B3" fill-rule="nonzero" points="276.08 458.69 240.41 446.41 237.14 562.42 273.67 566.64"></polygon>
            <polygon id="Path" fill="#DEB3B3" fill-rule="nonzero" points="215.69 437.9 169.91 422.14 164.65 554.03 211.77 559.48"></polygon>
            <polygon id="Path" fill="#F4CECE" fill-rule="nonzero" points="353.18 466.11 142.46 383.4 141.17 412.25 338.45 480.16"></polygon>
            <polygon id="Path" fill="#DEB3B3" fill-rule="nonzero" points="322.13 618.23 292.71 617.99 290.63 726.76 320.66 719.89"></polygon>
            <polygon id="Path" fill="#DEB3B3" fill-rule="nonzero" points="272.53 617.82 162.15 616.92 156.55 757.44 269.99 731.48"></polygon>
            <polygon id="Path" fill="#F4CECE" fill-rule="nonzero" points="353.18 598.65 133.43 585.86 132.06 616.67 336.77 618.35"></polygon>
            <polyline id="Path" fill="#F4CECE" fill-rule="nonzero" points="159.11 9.63 13.66 76.75 0.54 247.64 125.46 764.55"></polyline>
            <polygon id="Path" fill="#F4CECE" fill-rule="nonzero" points="158.92 417.61 203.19 412.57 295.87 261.58 249.19 273.19"></polygon>
            <polygon id="Path" fill="#F4CECE" fill-rule="nonzero" points="150.45 204.25 201.5 188 295.87 261.58 249.19 273.19"></polygon>
            <polygon id="Path" fill="#F4CECE" fill-rule="nonzero" points="163.62 614.35 210.8 608.98 292.53 417 243.88 423.07"></polygon>
            <polygon id="Path" fill="#F4CECE" fill-rule="nonzero" points="142.46 383.4 194.74 373.79 292.53 417 243.88 423.07"></polygon>
            <polygon id="Path" fill="#FFDFDF" fill-rule="nonzero" points="431.51 593.67 334.86 584.66 335.08 565.22 441.4 579.71"></polygon>
            <path d="M612.9,73 C627.17,69.66 641.34,65.86 657.9,61.54 C683.85,54.75 679.3,39.21 655.77,43.91 C639.66,47.12 622.14,51.64 610.09,54.58 C587.24,60.15 592.44,77.77 612.9,73 Z" id="Path" stroke="#B39CF7" stroke-width="2.6"></path>
            <path d="M462.83,60.54 C450.25,58.13 445.99,57.54 431.42,54.32 C408.55,49.24 412.36,33.51 433.09,36.66 C447.28,38.82 454.5,39.9 465.09,42.06 C485.22,46.14 480.86,64 462.83,60.54 Z" id="Path" stroke="#B39CF7" stroke-width="2.43"></path>
            <path d="M659.37,90.94 C671.17,88.18 682.88,85.03 696.54,81.45 C717.99,75.82 714.08,62.52 694.61,66.38 C681.29,69.01 666.81,72.75 656.85,75.19 C638,79.81 642.45,94.89 659.37,90.94 Z" id="Path" stroke="#B39CF7" stroke-width="2.6"></path>
            <path d="M749.54,59.59 C758.2,57.65 753.74,58.5 763.76,55.97 C779.51,51.97 776.76,42.23 762.54,44.97 C752.78,46.81 755.2,46.37 747.89,48.08 C734.05,51.28 737.13,62.36 749.54,59.59 Z" id="Path" stroke="#B39CF7" stroke-width="3"></path>
            <path d="M705.87,25.63 C728.51,20.3 762.67,11.52 796.81,6.01 C804.65,4.75 811.29,6.76 813.33,10.34 C815.37,13.92 812.16,18.28 803.86,20.42 C795.8,22.5 728.51,42.22 719.38,44.58 C707.94,47.58 698.44,44.94 695.09,39.27 C691.89,33.84 695.81,28 705.87,25.63 Z" id="Path" stroke="#B39CF7" stroke-width="3"></path>
            <path d="M423.24,67.8 C395.49,60.97 353.61,49.8 311.84,42.46 C295.51,39.84 286.84,54.87 303.54,58.96 C313.48,61.39 407.48,85.66 418.8,88.1 C441.21,92.94 444.53,72.25 423.24,67.8 Z" id="Path-2" stroke="#B39CF7" stroke-width="2.69"></path>
        </g>
    </g>
</svg>