<?xml version="1.0" encoding="UTF-8"?>
<svg width="646px" height="560px" viewBox="0 0 646 560" version="1.1" xmlns="http://www.w3.org/2000/svg" xmlns:xlink="http://www.w3.org/1999/xlink">
    <!-- Generator: Sketch 64 (93537) - https://sketch.com -->
    <title>Healthcare-Communication_Small</title>
    <desc>Created with Sketch.</desc>
    <g id="Texting" stroke="none" stroke-width="1" fill="none" fill-rule="evenodd">
        <g transform="translate(-913.000000, -219.000000)" id="Padding-Group-13">
            <g>
                <g id="Group-2" transform="translate(363.000000, 219.000000)">
                    <g id="Healthcare-Communication_Small" transform="translate(550.000000, 0.000000)">
                        <path d="M419.307933,153.183933 L425.446667,145.020467 C440.023133,142.600467 451.26,141.616333 464.7394,126.3058 C471.3944,117.8358 476.129533,113.3104 477.4928,102.823733 C478.856067,92.3370667 471.039467,84.8834667 462.9728,90.3607333 C458.899133,93.1437333 444.1936,107.1394 437.8774,103.065733 C424.6642,94.5554 429.084733,124.555333 407.425733,135.388867 L419.2676,153.183933" id="Path" fill="#9078EE" fill-rule="nonzero"></path>
                        <path d="M435.739733,125.725 L442.6206,57.1583333 C442.8626,54.6738 444.443667,52.762 446.387733,52.6168 L472.3624,50.6566 C474.863067,50.4710667 476.8878,53.2298667 476.605467,56.4323333 L470.015,126.943067 C469.781067,129.564733 468.0548,131.549292 465.981667,131.549292 L439.748867,131.549292 C437.3208,131.573333 435.441267,128.8226 435.739733,125.725 Z" id="Path" fill="#E0D4FD" fill-rule="nonzero"></path>
                        <path d="M407.466067,135.388867 C413.1934,130.694067 416.016733,127.160867 418.356067,121.740067 C421.857,113.616933 419.880667,107.3572 425.115933,102.791467 C430.3512,98.2257333 441.7494,82.9474667 444.758267,82.165 C447.767133,81.3825333 450.8486,85.5691333 448.0656,90.3042667 C446.210267,93.4583333 444.306533,96.3462 437.917733,103.065733 C440.337733,111.4954 442.507667,113.6492 438.6034,123.458267 C434.699133,133.267333 414.879333,146.537 414.879333,146.537 L407.466067,135.388867 Z" id="Path-23" fill="#B39CF7" fill-rule="nonzero"></path>
                        <path d="M363.4382,169.486667 C375.5382,160.484267 391.7522,147.932533 407.466067,135.372733 L426.487267,163.944867 C404.618533,183.304867 386.5734,202.406733 372.013067,216.926733 L363.4382,169.486667 Z" id="Path" fill="#372186"></path>
                        <path d="M508.533333,187.418867 C675.1826,136.0342 695.4864,388.278867 539.0334,436.896667 C489.6412,452.223333 253.586333,523.080933 162.191,551.443333 C-21.6806,608.402067 -65.531,348.5102 117.8566,296.246267 C194.4012,274.434 467.925733,199.930267 508.533333,187.418867 Z" id="Path" fill="#FFDFDF" fill-rule="nonzero"></path>
                        <path d="M457.2616,445.2618 C464.522762,443.086706 469.164055,436.000476 468.256467,428.475067 L445.6698,241.3284 C445.126452,236.83323 442.654027,232.796951 438.896394,230.270694 C435.13876,227.744437 430.467851,226.978251 426.100067,228.171667 L215.156733,284.396333 C207.574712,286.362853 202.632309,293.653848 203.613333,301.425067 L228.265067,493.411733 C228.843451,497.918916 231.361176,501.948812 235.158273,504.445066 C238.955369,506.94132 243.653204,507.655013 248.020333,506.399067 L457.2616,445.2618 Z" id="Path" fill="#DEB3B3" fill-rule="nonzero"></path>
                        <path d="M366.689067,489.176733 C366.689067,489.176733 380.128133,504.3098 385.911933,502.7852 C391.695733,501.2606 417.371933,487.1036 418.243133,483.4252 C419.114333,479.7468 403.577933,445.810333 403.577933,445.810333 L375.9738,446.5202 C375.9738,446.5202 371.698467,462.863267 374.546,469.768333 C376.757862,474.835695 379.312861,479.746252 382.1932,484.4658 L366.689067,489.176733 Z" id="Path" fill="#B39CF7" fill-rule="nonzero"></path>
                        <path d="M363.1962,161.1054 C355.532867,149.812067 329.033867,156.096 312.093867,147.658267 L312.093867,147.658267 C298.670933,167.5668 230.620533,176.1094 241.478267,147.3114 L241.478267,147.3114 C227.619733,154.224533 208.308133,161.024733 207.5418,174.1976 C206.565733,191.1376 227.498733,265.6978 227.498733,265.6978 L318.361667,240.634667 L368.859,450.093733 L403.545667,445.834533 C403.545667,445.834533 374.1588,177.230667 363.1962,161.1054 Z" id="Path" fill="#3C32AA" fill-rule="nonzero"></path>
                        <path d="M312.093867,147.706667 L312.093867,147.706667 C304.7774,144.060533 299.2356,137.6798 297.7836,125.926667 C329.4614,120.28 318.918267,76.3005333 307.552333,40.6297333 C300.848933,19.6564 281.319533,2.2324 255.119,9.4682 C214.866333,20.5840667 214.043533,51.2858 231.403,75.0421333 C256.030533,108.744667 266.896333,125.926667 253.336267,139.728733 C250.642,142.4714 246.3586,144.923667 241.4702,147.3598 L241.4702,147.3598 C230.612467,176.125533 298.670933,167.582933 312.093867,147.706667 Z" id="Path" fill="#B39CF7" fill-rule="nonzero"></path>
                        <path d="M237.541733,9.11326667 C193.9414,32.1355333 215.301933,72.6140667 200.911,89.4734 C189.238533,103.186733 168.466867,97.9514667 157.092867,106.3408 C143.7264,116.206333 154.4712,136.768267 144.291067,145.867467 C134.110933,154.966667 108.0798,151.562533 94.8504667,168.744533 C77.612,191.105333 106.006667,230.373867 165.369267,210.416933 C244.8582,183.684 284.9092,114.633333 294.847333,89.0216667 C289.281333,82.3344 282.0536,71.6622 286.925867,63.4342 C291.798133,55.2062 298.3644,65.5718667 298.3644,73.2352 C313.32,60.506 318.6924,33.1438667 304.769333,15.6392 C294.460133,2.6922 268.953333,-7.48793333 237.541733,9.11326667 Z" id="Path" fill="#350F54" fill-rule="nonzero"></path>
                        <path d="M593.443067,253.38 C584.303533,292.1 567.331267,362.215467 555.32,397.612 C534.056267,460.169 465.231467,431.1048 477.484733,376.638667 C485.2368,342.1456 500.660267,259.672 513.712133,224.114133 C532.781733,172.124467 607.914667,192.145933 593.443067,253.38 Z" id="Path-35" fill="#FFEFEF"></path>
                        <path d="M191.674667,367.7008 C182.535133,406.4208 165.562867,476.5282 153.5274,511.916667 C132.263667,574.481733 63.4308,545.417533 75.6840667,490.943333 C83.4442,456.450267 98.8676667,373.976667 111.919533,338.410733 C131.013333,286.453333 206.146267,306.4506 191.674667,367.7008 Z" id="Path-35-2" fill="#FFEFEF"></path>
                        <path d="M77.9588667,365.071067 C77.9588667,370.7742 85.0333333,368.943067 85.0333333,363.014067 C85.0333333,357.310933 77.9588667,358.908133 77.9588667,365.071067 Z" id="Path" fill="#C69999" fill-rule="nonzero"></path>
                        <path d="M126.617,351.357733 C126.617,357.060867 133.699533,355.1894 133.699533,349.3088 C133.699533,343.589533 126.617,345.2674 126.617,351.357733 Z" id="Path" fill="#C69999" fill-rule="nonzero"></path>
                        <path d="M175.2832,337.652467 C175.2832,343.299133 182.3738,341.4438 182.3738,335.603533 C182.3738,329.763267 175.2832,331.626667 175.2832,337.652467 Z" id="Path" fill="#C69999" fill-rule="nonzero"></path>
                        <path d="M223.9494,323.939133 C223.9494,329.5858 231.04,327.690133 231.04,321.906333 C231.04,316.122533 223.9494,317.994 223.9494,323.939133 Z" id="Path" fill="#C69999" fill-rule="nonzero"></path>
                        <path d="M272.607533,310.233867 C272.607533,315.880533 279.714267,313.936467 279.714267,308.201067 C279.714267,302.465667 272.607533,304.361333 272.607533,310.233867 Z" id="Path" fill="#C69999" fill-rule="nonzero"></path>
                        <path d="M321.273733,296.520533 C321.273733,302.1672 328.388533,300.1828 328.388533,294.4958 C328.388533,288.8088 321.273733,290.7206 321.273733,296.520533 Z" id="Path" fill="#C69999" fill-rule="nonzero"></path>
                        <path d="M418.598067,269.101933 C418.598067,274.7486 425.729,272.675467 425.729,267.093333 C425.729,261.2692 418.598067,263.4472 418.598067,269.101933 Z" id="Path" fill="#C69999" fill-rule="nonzero"></path>
                        <path d="M467.264267,255.3886 C467.264267,261.035267 474.3952,258.9218 474.3952,253.388067 C474.3952,247.5478 467.264267,249.814533 467.264267,255.3886 Z" id="Path" fill="#C69999" fill-rule="nonzero"></path>
                        <path d="M515.930467,241.683333 C515.930467,247.33 523.069467,245.168133 523.069467,239.6828 C523.053333,233.834467 515.930467,236.1738 515.930467,241.683333 Z" id="Path" fill="#C69999" fill-rule="nonzero"></path>
                        <path d="M564.5886,227.97 C564.5886,233.616667 571.743733,231.414467 571.743733,225.977533 C571.743733,220.113067 564.5886,222.541133 564.5886,227.97 Z" id="Path" fill="#C69999" fill-rule="nonzero"></path>
                        <path d="M84.6945333,411.898067 C84.6945333,417.6012 91.769,415.778133 91.769,409.841067 C91.769,404.137933 84.6945333,405.735133 84.6945333,411.898067 Z" id="Path" fill="#C69999" fill-rule="nonzero"></path>
                        <path d="M133.360733,398.184733 C133.360733,403.887867 140.4352,402.024467 140.4352,396.1358 C140.4352,390.416533 133.360733,392.126667 133.360733,398.184733 Z" id="Path" fill="#C69999" fill-rule="nonzero"></path>
                        <path d="M182.018867,384.479467 C182.018867,390.174533 189.109467,388.2708 189.109467,382.4386 C189.109467,376.6064 182.018867,378.461733 182.018867,384.479467 Z" id="Path" fill="#C69999" fill-rule="nonzero"></path>
                        <path d="M230.685067,370.766133 C230.685067,376.453133 237.783733,374.517133 237.783733,368.733333 C237.783733,362.949533 230.685067,364.829067 230.685067,370.766133 Z" id="Path" fill="#C69999" fill-rule="nonzero"></path>
                        <path d="M279.351267,357.060867 C279.351267,362.707533 286.449933,360.763467 286.449933,355.028067 C286.449933,349.292667 279.351267,351.188333 279.351267,357.060867 Z" id="Path" fill="#C69999" fill-rule="nonzero"></path>
                        <path d="M328.0094,343.347533 C328.0094,348.9942 335.1242,347.0098 335.1242,341.3228 C335.1242,335.6358 328.0094,337.555667 328.0094,343.347533 Z" id="Path" fill="#C69999" fill-rule="nonzero"></path>
                        <path d="M425.3418,315.928933 C425.3418,321.5756 432.464667,319.502467 432.464667,313.920333 C432.464667,308.0962 425.3418,310.282267 425.3418,315.928933 Z" id="Path" fill="#C69999" fill-rule="nonzero"></path>
                        <path d="M473.999933,302.223667 C473.999933,307.870333 481.138933,305.7488 481.138933,300.215067 C481.106667,294.382867 473.999933,296.641533 473.999933,302.223667 Z" id="Path" fill="#C69999" fill-rule="nonzero"></path>
                        <path d="M522.666133,288.510333 C522.666133,294.157 529.805133,291.995133 529.805133,286.5098 C529.805133,280.661467 522.666133,283.008867 522.666133,288.510333 Z" id="Path" fill="#C69999" fill-rule="nonzero"></path>
                        <path d="M571.332333,274.805067 C571.332333,280.451733 578.4794,278.241467 578.4794,272.804533 C578.4794,266.940067 571.332333,269.368133 571.332333,274.805067 Z" id="Path" fill="#C69999" fill-rule="nonzero"></path>
                        <path d="M91.4866667,456.409933 C91.4866667,462.121133 98.5611333,460.29 98.5611333,454.361 C98.5288667,448.657867 91.4866667,450.255067 91.4866667,456.409933 Z" id="Path" fill="#C69999" fill-rule="nonzero"></path>
                        <path d="M140.1206,442.704667 C140.1206,448.399733 147.203133,446.536333 147.203133,440.655733 C147.203133,434.936467 140.1206,436.614333 140.1206,442.704667 Z" id="Path" fill="#C69999" fill-rule="nonzero"></path>
                        <path d="M188.7868,428.991333 C188.7868,434.6864 195.869333,432.782667 195.869333,426.950467 C195.869333,421.118267 188.7868,422.981667 188.7868,428.991333 Z" id="Path" fill="#C69999" fill-rule="nonzero"></path>
                        <path d="M237.444933,415.286067 C237.444933,420.932733 244.5436,419.029 244.5436,413.2452 C244.5436,407.4614 237.444933,409.340933 237.444933,415.286067 Z" id="Path" fill="#C69999" fill-rule="nonzero"></path>
                        <path d="M286.111133,401.572733 C286.111133,407.2194 293.217867,405.275333 293.217867,399.548 C293.217867,393.820667 286.111133,395.708267 286.111133,401.572733 Z" id="Path" fill="#C69999" fill-rule="nonzero"></path>
                        <path d="M334.777333,387.867467 C334.777333,393.514133 341.884067,391.521667 341.884067,385.842733 C341.884067,380.1638 334.777333,382.067533 334.777333,387.867467 Z" id="Path" fill="#C69999" fill-rule="nonzero"></path>
                        <path d="M432.101667,360.448867 C432.101667,366.095533 439.224533,364.014333 439.224533,358.4322 C439.224533,352.6 432.101667,354.794133 432.101667,360.448867 Z" id="Path" fill="#C69999" fill-rule="nonzero"></path>
                        <path d="M480.767867,346.735533 C480.767867,352.3822 487.8988,350.268733 487.8988,344.735 C487.8988,338.886667 480.767867,341.161467 480.767867,346.735533 Z" id="Path" fill="#C69999" fill-rule="nonzero"></path>
                        <path d="M529.426,333.030267 C529.426,338.676933 536.573067,336.515067 536.573067,331.029733 C536.573067,325.173333 529.426,327.520733 529.426,333.030267 Z" id="Path" fill="#C69999" fill-rule="nonzero"></path>
                        <path d="M578.0922,319.316933 C578.0922,324.9636 585.239267,322.7614 585.239267,317.324467 C585.239267,311.46 578.0922,313.88 578.0922,319.316933 Z" id="Path" fill="#C69999" fill-rule="nonzero"></path>
                        <path d="M97.1333333,503.761267 C97.1333333,509.4644 104.207862,507.641333 104.207862,501.704267 C104.232,496.001133 97.1333333,497.598333 97.1333333,503.761267 Z" id="Path" fill="#C69999" fill-rule="nonzero"></path>
                        <path d="M145.815667,490.047933 C145.815667,495.751067 152.8982,493.887667 152.8982,488.007067 C152.8982,482.279733 145.815667,483.965667 145.815667,490.047933 Z" id="Path" fill="#C69999" fill-rule="nonzero"></path>
                        <path d="M194.481867,476.342667 C194.481867,482.037733 201.572467,480.134 201.572467,474.3018 C201.572467,468.4696 194.481867,470.324933 194.481867,476.342667 Z" id="Path" fill="#C69999" fill-rule="nonzero"></path>
                        <path d="M243.14,462.629333 C243.14,468.3244 250.2306,466.380333 250.2306,460.596533 C250.2306,454.812733 243.14,456.66 243.14,462.629333 Z" id="Path" fill="#C69999" fill-rule="nonzero"></path>
                        <path d="M291.8062,448.924067 C291.8062,454.570733 298.912933,452.626667 298.912933,446.891267 C298.912933,441.155867 291.8062,443.051533 291.8062,448.924067 Z" id="Path" fill="#C69999" fill-rule="nonzero"></path>
                        <path d="M340.4724,435.210733 C340.4724,440.8574 347.5872,438.873 347.5872,433.186 C347.5872,427.499 340.4724,429.418867 340.4724,435.210733 Z" id="Path" fill="#C69999" fill-rule="nonzero"></path>
                        <path d="M437.796733,407.792133 C437.796733,413.4388 444.927667,411.365667 444.927667,405.783533 C444.927667,399.967467 437.796733,402.145467 437.796733,407.792133 Z" id="Path" fill="#C69999" fill-rule="nonzero"></path>
                        <path d="M486.462933,394.086867 C486.462933,399.733533 493.593867,397.612 493.593867,392.078267 C493.593867,386.246067 486.462933,388.504733 486.462933,394.086867 Z" id="Path" fill="#C69999" fill-rule="nonzero"></path>
                        <path d="M535.153333,380.373533 C535.153333,386.0202 542.292333,383.858333 542.292333,378.373 C542.268133,372.524667 535.153333,374.872067 535.153333,380.373533 Z" id="Path" fill="#C69999" fill-rule="nonzero"></path>
                        <path d="M583.787267,366.668267 C583.787267,372.314933 590.9424,370.104667 590.9424,364.6758 C590.9424,358.803267 583.787267,361.231333 583.787267,366.668267 Z" id="Path" fill="#C69999" fill-rule="nonzero"></path>
                        <path d="M318.361667,240.634667 C315.5706,229.123533 310.093333,228.107133 304.204667,229.123533 C298.316,230.139933 289.684667,248.556133 289.684667,248.556133 L318.361667,240.634667 Z" id="Path" fill="#372186"></path>
                        <path d="M382.1932,484.49 C384.8068,488.079667 383.556467,491.927467 379.1198,491.6532 C375.272,491.419267 366.689067,489.176733 366.689067,489.176733 L382.1932,484.49 Z" id="Path" fill="#9078EE" fill-rule="nonzero"></path>
                    </g>
                </g>
            </g>
        </g>
    </g>
</svg>