<?xml version="1.0" encoding="UTF-8"?>
<svg width="98px" height="31px" viewBox="0 0 98 31" version="1.1" xmlns="http://www.w3.org/2000/svg" xmlns:xlink="http://www.w3.org/1999/xlink">
    <!-- Generator: Sketch 57.1 (83088) - https://sketch.com -->
    <title>Logo/Logo</title>
    <desc>Created with Sketch.</desc>
    <g id="07_UI-ELEMENTS" stroke="none" stroke-width="1" fill="none" fill-rule="evenodd">
        <g id="Home_01" transform="translate(-141.000000, -7670.000000)" fill="#F4CECE">
            <g id="Footer" transform="translate(0.000000, 7600.000000)">
                <g id="Logo/Logo" transform="translate(141.000000, 70.000000)">
                    <path d="M85.75,7.00387454 C88.5307588,7.00387454 90.9696145,8.20673904 92.7234147,10.2123829 L92.7230769,7.49077491 L98,7.49077491 L98,29.9630996 L92.7230769,29.9630996 L92.7234042,27.0714107 C90.9696048,29.1828653 88.5307533,30.45 85.75,30.45 C79.3046154,30.45 74.4423077,25.2813653 74.4423077,18.4273063 C74.4423077,11.9103321 79.3046154,7.00387454 85.75,7.00387454 Z M43.9115385,7.00387454 C46.6922973,7.00387454 49.131153,8.20673904 50.8849532,10.2123829 L50.8846154,7.49077491 L56.1615385,7.49077491 L56.1615385,29.9630996 L50.8846154,29.9630996 L50.8849427,27.0714107 C49.1311433,29.1828653 46.6922918,30.45 43.9115385,30.45 C37.4661538,30.45 32.6038462,25.2813653 32.6038462,18.4273063 C32.6038462,11.9103321 37.4661538,7.00387454 43.9115385,7.00387454 Z M28.7215385,0 L28.7215385,29.9630996 L23.4446154,29.9630996 L23.4446154,0 L28.7215385,0 Z M73.6507692,6.85405904 L73.6507692,12.0601476 C69.6953385,11.8376716 67.2914814,14.1113765 67.1340814,18.1907745 L67.13,18.3149446 L67.13,29.9630996 L61.8530769,29.9630996 L61.8530769,7.49077491 L67.13,7.49077491 L67.1299223,9.99012366 C68.6488099,7.97669079 70.8648105,6.87302024 73.6507692,6.85405904 Z M5.27692308,0 L5.27692308,17.96265 L13.3807692,7.49077491 L20.09,7.49077491 L11.4584615,18.3523985 L20.4292308,29.9630996 L13.72,29.9630996 L5.27692308,18.7527 L5.27692308,29.9630996 L0,29.9630996 L0,0 L5.27692308,0 Z M86.2023077,12.0976015 C82.4707692,12.0976015 79.6815385,14.7942804 79.6815385,18.4273063 C79.6815385,22.397417 82.4707692,25.3562731 86.2023077,25.3562731 C89.9338462,25.3562731 92.7230769,22.397417 92.7230769,18.4273063 C92.7230769,14.7942804 89.9338462,12.0976015 86.2023077,12.0976015 Z M44.3638462,12.0976015 C40.6323077,12.0976015 37.8430769,14.7942804 37.8430769,18.4273063 C37.8430769,22.397417 40.6323077,25.3562731 44.3638462,25.3562731 C48.0953846,25.3562731 50.8846154,22.397417 50.8846154,18.4273063 C50.8846154,14.7942804 48.0953846,12.0976015 44.3638462,12.0976015 Z" id="klara"></path>
                </g>
            </g>
        </g>
    </g>
</svg>