<?xml version="1.0" encoding="utf-8"?>
<!-- Generator: Adobe Illustrator 23.0.3, SVG Export Plug-In . SVG Version: 6.00 Build 0)  -->
<svg version="1.1" id="Ebene_1" xmlns="http://www.w3.org/2000/svg" xmlns:xlink="http://www.w3.org/1999/xlink" x="0px" y="0px"
	 viewBox="0 0 224 191" style="enable-background:new 0 0 224 191;" xml:space="preserve">
<style type="text/css">
	.st0{fill-rule:evenodd;clip-rule:evenodd;fill:#FBDEDF;}
	.st1{fill-rule:evenodd;clip-rule:evenodd;fill:#DFB3B3;}
	.st2{fill-rule:evenodd;clip-rule:evenodd;fill:#F5CFCE;}
</style>
<g id="Group-3">
	<g id="Group-2">
		<path id="Rectangle" class="st0" d="M6,0h212c3.31,0,6,2.69,6,6v179c0,3.31-2.69,6-6,6H6c-3.31,0-6-2.69-6-6V6C0,2.69,2.69,0,6,0z
			"/>
		<g id="Group" transform="translate(20.000000, 20.000000)">
			<path id="Rectangle-Copy-19" class="st1" d="M36,84L36,84c1.66,0,3,1.34,3,3l0,0c0,1.66-1.34,3-3,3l0,0c-1.66,0-3-1.34-3-3l0,0
				C33,85.34,34.34,84,36,84z"/>
			<path id="Rectangle-Copy-32" class="st1" d="M8,84L8,84c1.66,0,3,1.34,3,3l0,0c0,1.66-1.34,3-3,3l0,0c-1.66,0-3-1.34-3-3l0,0
				C5,85.34,6.34,84,8,84z"/>
			<path id="Rectangle-Copy-13" class="st1" d="M36,56L36,56c1.66,0,3,1.34,3,3l0,0c0,1.66-1.34,3-3,3l0,0c-1.66,0-3-1.34-3-3l0,0
				C33,57.34,34.34,56,36,56z"/>
			<path id="Rectangle-Copy-33" class="st1" d="M8,56L8,56c1.66,0,3,1.34,3,3l0,0c0,1.66-1.34,3-3,3l0,0c-1.66,0-3-1.34-3-3l0,0
				C5,57.34,6.34,56,8,56z"/>
			<path id="Rectangle-Copy-20" class="st1" d="M36,112L36,112c1.66,0,3,1.34,3,3l0,0c0,1.66-1.34,3-3,3l0,0c-1.66,0-3-1.34-3-3l0,0
				C33,113.34,34.34,112,36,112z"/>
			<path id="Rectangle-Copy-35" class="st1" d="M36,140L36,140c1.66,0,3,1.34,3,3l0,0c0,1.66-1.34,3-3,3l0,0c-1.66,0-3-1.34-3-3l0,0
				C33,141.34,34.34,140,36,140z"/>
			<path id="Rectangle-Copy-34" class="st1" d="M8,112L8,112c1.66,0,3,1.34,3,3l0,0c0,1.66-1.34,3-3,3l0,0c-1.66,0-3-1.34-3-3l0,0
				C5,113.34,6.34,112,8,112z"/>
			<path id="Rectangle-Copy-36" class="st1" d="M8,140L8,140c1.66,0,3,1.34,3,3l0,0c0,1.66-1.34,3-3,3l0,0c-1.66,0-3-1.34-3-3l0,0
				C5,141.34,6.34,140,8,140z"/>
			<path id="Rectangle-Copy-9" class="st1" d="M92,28L92,28c1.66,0,3,1.34,3,3l0,0c0,1.66-1.34,3-3,3l0,0c-1.66,0-3-1.34-3-3l0,0
				C89,29.34,90.34,28,92,28z"/>
			<path id="Rectangle-Copy-22" class="st2" d="M64,47L64,47c6.63,0,12,5.37,12,12l0,0c0,6.63-5.37,12-12,12l0,0
				c-6.63,0-12-5.37-12-12l0,0C52,52.37,57.37,47,64,47z"/>
			<path id="Rectangle-Copy-40" class="st1" d="M92,47L92,47c6.63,0,12,5.37,12,12l0,0c0,6.63-5.37,12-12,12l0,0
				c-6.63,0-12-5.37-12-12l0,0C80,52.37,85.37,47,92,47z"/>
			<path id="Rectangle-Copy-21" class="st1" d="M92,84L92,84c1.66,0,3,1.34,3,3l0,0c0,1.66-1.34,3-3,3l0,0c-1.66,0-3-1.34-3-3l0,0
				C89,85.34,90.34,84,92,84z"/>
			<path id="Rectangle-Copy-14" class="st0" d="M92,56L92,56c1.66,0,3,1.34,3,3l0,0c0,1.66-1.34,3-3,3l0,0c-1.66,0-3-1.34-3-3l0,0
				C89,57.34,90.34,56,92,56z"/>
			<path id="Rectangle-Copy-37" class="st1" d="M92,140L92,140c1.66,0,3,1.34,3,3l0,0c0,1.66-1.34,3-3,3l0,0c-1.66,0-3-1.34-3-3l0,0
				C89,141.34,90.34,140,92,140z"/>
			<path id="Rectangle-Copy-11" class="st1" d="M148,28L148,28c1.66,0,3,1.34,3,3l0,0c0,1.66-1.34,3-3,3l0,0c-1.66,0-3-1.34-3-3l0,0
				C145,29.34,146.34,28,148,28z"/>
			<path id="Rectangle-Copy-23" class="st1" d="M148,84L148,84c1.66,0,3,1.34,3,3l0,0c0,1.66-1.34,3-3,3l0,0c-1.66,0-3-1.34-3-3l0,0
				C145,85.34,146.34,84,148,84z"/>
			<path id="Rectangle-Copy-15" class="st1" d="M148,56L148,56c1.66,0,3,1.34,3,3l0,0c0,1.66-1.34,3-3,3l0,0c-1.66,0-3-1.34-3-3l0,0
				C145,57.34,146.34,56,148,56z"/>
			<path id="Rectangle-Copy-24" class="st1" d="M148,112L148,112c1.66,0,3,1.34,3,3l0,0c0,1.66-1.34,3-3,3l0,0c-1.66,0-3-1.34-3-3
				l0,0C145,113.34,146.34,112,148,112z"/>
			<path id="Rectangle-Copy-8" class="st1" d="M64,28L64,28c1.66,0,3,1.34,3,3l0,0c0,1.66-1.34,3-3,3l0,0c-1.66,0-3-1.34-3-3l0,0
				C61,29.34,62.34,28,64,28z"/>
			<path id="Rectangle-Copy-25" class="st1" d="M64,84L64,84c1.66,0,3,1.34,3,3l0,0c0,1.66-1.34,3-3,3l0,0c-1.66,0-3-1.34-3-3l0,0
				C61,85.34,62.34,84,64,84z"/>
			<path id="Rectangle-Copy-16" class="st1" d="M64,56L64,56c1.66,0,3,1.34,3,3l0,0c0,1.66-1.34,3-3,3l0,0c-1.66,0-3-1.34-3-3l0,0
				C61,57.34,62.34,56,64,56z"/>
			<path id="Rectangle-Copy-26" class="st1" d="M64,112L64,112c1.66,0,3,1.34,3,3l0,0c0,1.66-1.34,3-3,3l0,0c-1.66,0-3-1.34-3-3l0,0
				C61,113.34,62.34,112,64,112z"/>
			<path id="Rectangle-Copy-38" class="st1" d="M64,140L64,140c1.66,0,3,1.34,3,3l0,0c0,1.66-1.34,3-3,3l0,0c-1.66,0-3-1.34-3-3l0,0
				C61,141.34,62.34,140,64,140z"/>
			<path id="Rectangle-Copy-10" class="st1" d="M120,28L120,28c1.66,0,3,1.34,3,3l0,0c0,1.66-1.34,3-3,3l0,0c-1.66,0-3-1.34-3-3l0,0
				C117,29.34,118.34,28,120,28z"/>
			<path id="Rectangle-Copy-27" class="st1" d="M120,84L120,84c1.66,0,3,1.34,3,3l0,0c0,1.66-1.34,3-3,3l0,0c-1.66,0-3-1.34-3-3l0,0
				C117,85.34,118.34,84,120,84z"/>
			<path id="Rectangle-Copy-17" class="st1" d="M120,56L120,56c1.66,0,3,1.34,3,3l0,0c0,1.66-1.34,3-3,3l0,0c-1.66,0-3-1.34-3-3l0,0
				C117,57.34,118.34,56,120,56z"/>
			<path id="Rectangle-Copy-28" class="st1" d="M120,112L120,112c1.66,0,3,1.34,3,3l0,0c0,1.66-1.34,3-3,3l0,0c-1.66,0-3-1.34-3-3
				l0,0C117,113.34,118.34,112,120,112z"/>
			<path id="Rectangle-Copy-31" class="st1" d="M92,112L92,112c1.66,0,3,1.34,3,3l0,0c0,1.66-1.34,3-3,3l0,0c-1.66,0-3-1.34-3-3l0,0
				C89,113.34,90.34,112,92,112z"/>
			<path id="Rectangle-Copy-39" class="st1" d="M120,140L120,140c1.66,0,3,1.34,3,3l0,0c0,1.66-1.34,3-3,3l0,0c-1.66,0-3-1.34-3-3
				l0,0C117,141.34,118.34,140,120,140z"/>
			<path id="Rectangle-Copy-12" class="st1" d="M176,28L176,28c1.66,0,3,1.34,3,3l0,0c0,1.66-1.34,3-3,3l0,0c-1.66,0-3-1.34-3-3l0,0
				C173,29.34,174.34,28,176,28z"/>
			<path id="Rectangle-Copy-29" class="st1" d="M176,84L176,84c1.66,0,3,1.34,3,3l0,0c0,1.66-1.34,3-3,3l0,0c-1.66,0-3-1.34-3-3l0,0
				C173,85.34,174.34,84,176,84z"/>
			<path id="Rectangle-Copy-18" class="st1" d="M176,56L176,56c1.66,0,3,1.34,3,3l0,0c0,1.66-1.34,3-3,3l0,0c-1.66,0-3-1.34-3-3l0,0
				C173,57.34,174.34,56,176,56z"/>
			<path id="Rectangle-Copy-30" class="st1" d="M176,112L176,112c1.66,0,3,1.34,3,3l0,0c0,1.66-1.34,3-3,3l0,0c-1.66,0-3-1.34-3-3
				l0,0C173,113.34,174.34,112,176,112z"/>
			<path id="Rectangle-Copy" class="st1" d="M3,0h10c1.66,0,3,1.34,3,3l0,0c0,1.66-1.34,3-3,3H3C1.34,6,0,4.66,0,3l0,0
				C0,1.34,1.34,0,3,0z"/>
			<path id="Rectangle-Copy-3" class="st1" d="M59,0h10c1.66,0,3,1.34,3,3l0,0c0,1.66-1.34,3-3,3H59c-1.66,0-3-1.34-3-3l0,0
				C56,1.34,57.34,0,59,0z"/>
			<path id="Rectangle-Copy-5" class="st1" d="M115,0h10c1.66,0,3,1.34,3,3l0,0c0,1.66-1.34,3-3,3h-10c-1.66,0-3-1.34-3-3l0,0
				C112,1.34,113.34,0,115,0z"/>
			<path id="Rectangle-Copy-2" class="st1" d="M31,0h10c1.66,0,3,1.34,3,3l0,0c0,1.66-1.34,3-3,3H31c-1.66,0-3-1.34-3-3l0,0
				C28,1.34,29.34,0,31,0z"/>
			<path id="Rectangle-Copy-4" class="st1" d="M87,0h10c1.66,0,3,1.34,3,3l0,0c0,1.66-1.34,3-3,3H87c-1.66,0-3-1.34-3-3l0,0
				C84,1.34,85.34,0,87,0z"/>
			<path id="Rectangle-Copy-6" class="st1" d="M143,0h10c1.66,0,3,1.34,3,3l0,0c0,1.66-1.34,3-3,3h-10c-1.66,0-3-1.34-3-3l0,0
				C140,1.34,141.34,0,143,0z"/>
			<path id="Rectangle-Copy-7" class="st1" d="M171,0h10c1.66,0,3,1.34,3,3l0,0c0,1.66-1.34,3-3,3h-10c-1.66,0-3-1.34-3-3l0,0
				C168,1.34,169.34,0,171,0z"/>
		</g>
	</g>
</g>
</svg>
