<?xml version="1.0" encoding="utf-8"?>
<!-- Generator: Adobe Illustrator 24.0.3, SVG Export Plug-In . SVG Version: 6.00 Build 0)  -->
<svg version="1.1" id="Layer_1" xmlns="http://www.w3.org/2000/svg" xmlns:xlink="http://www.w3.org/1999/xlink" x="0px" y="0px"
	 viewBox="0 0 98 31" style="enable-background:new 0 0 98 31;" xml:space="preserve">
<style type="text/css">
	.st0{fill-rule:evenodd;clip-rule:evenodd;fill:#F4CECE;}
</style>
<title>Logo/Logo-Blue700</title>
<desc>Created with Sketch.</desc>
<g id="_x30_7_x5F_UI-ELEMENTS">
	<g id="Home_01" transform="translate(-39.000000, -41.000000)">
		<g id="Stage">
			<g id="Logo_x2F_Logo" transform="translate(39.000000, 41.000000)">
				<path id="klara" class="st0" d="M85.8,7c2.8,0,5.2,1.2,7,3.2l0-2.7H98V30h-5.3l0-2.9c-1.8,2.1-4.2,3.4-7,3.4
					c-6.4,0-11.3-5.2-11.3-12C74.4,11.9,79.3,7,85.8,7z M43.9,7c2.8,0,5.2,1.2,7,3.2l0-2.7h5.3V30h-5.3l0-2.9
					c-1.8,2.1-4.2,3.4-7,3.4c-6.4,0-11.3-5.2-11.3-12C32.6,11.9,37.5,7,43.9,7z M28.7,0v30h-5.3V0H28.7z M73.7,6.9v5.2
					c-4-0.2-6.4,2.1-6.5,6.1l0,0.1V30h-5.3V7.5h5.3l0,2.5C68.6,8,70.9,6.9,73.7,6.9z M5.3,0v18l8.1-10.5h6.7l-8.6,10.9l9,11.6h-6.7
					L5.3,18.8V30H0V0H5.3z M86.2,12.1c-3.7,0-6.5,2.7-6.5,6.3c0,4,2.8,6.9,6.5,6.9s6.5-3,6.5-6.9C92.7,14.8,89.9,12.1,86.2,12.1z
					 M44.4,12.1c-3.7,0-6.5,2.7-6.5,6.3c0,4,2.8,6.9,6.5,6.9c3.7,0,6.5-3,6.5-6.9C50.9,14.8,48.1,12.1,44.4,12.1z"/>
			</g>
		</g>
	</g>
</g>
</svg>
